<mxfile host="65bd71144e">
    <diagram id="VveESbay_mxKPyMVc5VR" name="ページ1">
        <mxGraphModel dx="2638" dy="1777" grid="1" gridSize="10" guides="1" tooltips="1" connect="1" arrows="1" fold="1" page="1" pageScale="1" pageWidth="827" pageHeight="1169" math="0" shadow="0">
            <root>
                <mxCell id="0"/>
                <mxCell id="1" parent="0"/>
                <mxCell id="4" value="" style="rounded=0;whiteSpace=wrap;html=1;" vertex="1" parent="1">
                    <mxGeometry x="90" y="100" width="450" height="820" as="geometry"/>
                </mxCell>
                <mxCell id="5" value="HOME" style="text;html=1;align=center;verticalAlign=middle;whiteSpace=wrap;rounded=0;fontSize=30;" vertex="1" parent="1">
                    <mxGeometry x="192.5" y="60" width="245" height="30" as="geometry"/>
                </mxCell>
                <mxCell id="6" value="" style="rounded=0;whiteSpace=wrap;html=1;" vertex="1" parent="1">
                    <mxGeometry x="680" y="100" width="450" height="820" as="geometry"/>
                </mxCell>
                <mxCell id="7" value="&lt;font&gt;&lt;span style=&quot;color: rgb(63, 63, 63);&quot;&gt;RECORD&lt;/span&gt;&lt;/font&gt;" style="text;html=1;align=center;verticalAlign=middle;whiteSpace=wrap;rounded=0;fontSize=30;" vertex="1" parent="1">
                    <mxGeometry x="782.5" y="60" width="245" height="30" as="geometry"/>
                </mxCell>
                <mxCell id="12" value="" style="group" vertex="1" connectable="0" parent="1">
                    <mxGeometry x="90" y="860" width="450" height="60" as="geometry"/>
                </mxCell>
                <mxCell id="8" value="&lt;font style=&quot;font-size: 20px;&quot;&gt;HOME&lt;/font&gt;" style="rounded=0;whiteSpace=wrap;html=1;fillColor=#dae8fc;strokeColor=#6c8ebf;" vertex="1" parent="12">
                    <mxGeometry width="225" height="60" as="geometry"/>
                </mxCell>
                <mxCell id="11" value="&lt;font style=&quot;font-size: 20px;&quot;&gt;RECORD&lt;/font&gt;" style="rounded=0;whiteSpace=wrap;html=1;" vertex="1" parent="12">
                    <mxGeometry x="225" width="225" height="60" as="geometry"/>
                </mxCell>
                <mxCell id="13" value="" style="group;fillColor=#dae8fc;strokeColor=#6c8ebf;" vertex="1" connectable="0" parent="1">
                    <mxGeometry x="680" y="860" width="450" height="60" as="geometry"/>
                </mxCell>
                <mxCell id="14" value="&lt;font style=&quot;font-size: 20px;&quot;&gt;HOME&lt;/font&gt;" style="rounded=0;whiteSpace=wrap;html=1;" vertex="1" parent="13">
                    <mxGeometry width="225" height="60" as="geometry"/>
                </mxCell>
                <mxCell id="15" value="&lt;font style=&quot;font-size: 20px;&quot;&gt;RECORD&lt;/font&gt;" style="rounded=0;whiteSpace=wrap;html=1;fillColor=#dae8fc;strokeColor=#6c8ebf;" vertex="1" parent="13">
                    <mxGeometry x="225" width="225" height="60" as="geometry"/>
                </mxCell>
                <mxCell id="16" value="&lt;font style=&quot;font-size: 30px;&quot;&gt;スタート&lt;/font&gt;" style="ellipse;whiteSpace=wrap;html=1;fillColor=#f8cecc;strokeColor=#b85450;" vertex="1" parent="1">
                    <mxGeometry x="192.5" y="550" width="235" height="100" as="geometry"/>
                </mxCell>
                <mxCell id="18" value="" style="edgeStyle=elbowEdgeStyle;elbow=horizontal;endArrow=classic;html=1;curved=0;rounded=0;endSize=8;startSize=8;exitX=1;exitY=0.5;exitDx=0;exitDy=0;entryX=-0.002;entryY=0.417;entryDx=0;entryDy=0;entryPerimeter=0;" edge="1" parent="1" source="11" target="6">
                    <mxGeometry width="50" height="50" relative="1" as="geometry">
                        <mxPoint x="550" y="890" as="sourcePoint"/>
                        <mxPoint x="600" y="840" as="targetPoint"/>
                        <Array as="points">
                            <mxPoint x="640" y="660"/>
                        </Array>
                    </mxGeometry>
                </mxCell>
                <mxCell id="19" value="" style="shape=image;imageAspect=0;aspect=fixed;verticalLabelPosition=bottom;verticalAlign=top;image=data:image/png,iVBORw0KGgoAAAANSUhEUgAAA4YAAAKuCAYAAAD9+wLiAAAMTWlDQ1BJQ0MgUHJvZmlsZQAASImVVwdYE9kWvlNSIQQIREBK6E0QkRJASggt9I4gKiEJEEqMCUHFjiyu4NpFBMuKrlIU2wrIYkNddWVR7H2xoKKsi+tiV94NAXTZV753vu/O/PPfM/8958yduXMBoHfxpdJcVBOAPEm+LDbYnzU5OYVF6gEIoAAyMAYsvkAu5URHhwNow+e/2+tr0BvaZQel1j/7/6tpCUVyAQBINMTpQrkgD+IfAcBbBVJZPgBEKeTNZ+VLlXgdxDoyGCDENUqcqcKtSpyuwhcHfeJjuRA/AoCszufLMgHQ6IM8q0CQCXXoMFvgJBGKJRD7QeyTlzdDCPEiiG2gDxyTrtRnp3+lk/k3zfQRTT4/cwSrchk0coBYLs3lz/k/y/G/LS9XMTyGNWzqWbKQWGXOsG6PcmaEKbE6xG8l6ZFREGsDgOJi4aC/EjOzFCEJKn/URiDnwpoBJsST5LlxvCE+VsgPCIPYEOIMSW5k+JBPUYY4SOkD64dWiPN58RDrQVwjkgfGDfkcl82IHR73WoaMyxnin/JlgzEo9T8rchI4Kn1MO0vEG9LHHAuz4pMgpkIcUCBOjIRYA+JIeU5c2JBPamEWN3LYR6aIVeZiAbFMJAn2V+lj5RmyoNgh/7o8+XDu2PEsMS9yCF/Kz4oPUdUKeyTgD8YPc8H6RBJOwrCOSD45fDgXoSggUJU7ThZJEuJUPK4nzfePVd2L20lzo4f8cX9RbrCSN4M4Xl4QN3xvQT6cnCp9vESaHx2vihOvzOaHRqviwfeBcMAFAYAFFLClgxkgG4g7ept64ZWqJwjwgQxkAhFwGGKG70ga7JHAYxwoBL9DJALykfv8B3tFoADyn0axSk48wqmODiBjqE+pkgMeQ5wHwkAuvFYMKklGIkgEjyAj/kdEfNgEMIdc2JT9/54fZr8wHMiEDzGK4RFZ9GFPYiAxgBhCDCLa4ga4D+6Fh8OjH2zOOBv3GM7jiz/hMaGT8IBwldBFuDldXCQbFWUE6IL6QUP1Sf+6PrgV1HTF/XFvqA6VcSZuABxwFzgOB/eFI7tCljsUt7IqrFHaf8vgqyc05EdxoqCUMRQ/is3oOzXsNFxHVJS1/ro+qljTR+rNHekZPT73q+oL4TlstCf2LXYQO4OdwM5hrVgTYGHHsGasHTuixCMz7tHgjBseLXYwnhyoM3rOfHmyykrKneqdepw+qvryRbPzlS8jd4Z0jkycmZXP4sAVQ8TiSQSO41jOTs6uACjXH9Xn7VXM4LqCMNu/cEt+A8D72MDAwE9fuNBjAOx3h5+Ew184GzZcWtQAOHtYoJAVqDhceSDALwcdvn36cG0zBzYwH2fgBryAHwgEoSAKxINkMA1GnwXnuQzMAvPAYlACysAqsB5Ugq1gO6gBe8AB0ARawQnwMzgPLoKr4DacPd3gOegDr8EHBEFICA1hIPqICWKJ2CPOCBvxQQKRcCQWSUbSkExEgiiQecgSpAxZg1Qi25BaZD9yGDmBnEM6kZvIfaQH+RN5j2KoOqqDGqFW6HiUjXLQMDQenYpmojPRQrQYXYFWoNXobrQRPYGeR6+iXehztB8DmBrGxEwxB4yNcbEoLAXLwGTYAqwUK8eqsQasBT7ny1gX1ou9w4k4A2fhDnAGh+AJuACfiS/Al+OVeA3eiJ/CL+P38T78M4FGMCTYEzwJPMJkQiZhFqGEUE7YSThEOA3fpW7CayKRyCRaE93hu5hMzCbOJS4nbibuJR4ndhIfEvtJJJI+yZ7kTYoi8Un5pBLSRtJu0jHSJVI36S1ZjWxCdiYHkVPIEnIRuZxcRz5KvkR+Qv5A0aRYUjwpURQhZQ5lJWUHpYVygdJN+UDVolpTvanx1GzqYmoFtYF6mnqH+kpNTc1MzUMtRk2stkitQm2f2lm1+2rv1LXV7dS56qnqCvUV6rvUj6vfVH9Fo9GsaH60FFo+bQWtlnaSdo/2VoOh4ajB0xBqLNSo0mjUuKTxgk6hW9I59Gn0Qno5/SD9Ar1Xk6JppcnV5Gsu0KzSPKx5XbNfi6E1QStKK09ruVad1jmtp9okbSvtQG2hdrH2du2T2g8ZGMOcwWUIGEsYOxinGd06RB1rHZ5Otk6Zzh6dDp0+XW1dF91E3dm6VbpHdLuYGNOKyWPmMlcyDzCvMd+PMRrDGSMas2xMw5hLY97ojdXz0xPplert1buq916fpR+on6O/Wr9J/64BbmBnEGMwy2CLwWmD3rE6Y73GCsaWjj0w9pYhamhnGGs413C7Ybthv5GxUbCR1Gij0UmjXmOmsZ9xtvE646PGPSYMEx8Tsck6k2Mmz1i6LA4rl1XBOsXqMzU0DTFVmG4z7TD9YGZtlmBWZLbX7K451ZxtnmG+zrzNvM/CxCLCYp5FvcUtS4ol2zLLcoPlGcs3VtZWSVZLrZqsnlrrWfOsC63rre/Y0Gx8bWbaVNtcsSXasm1zbDfbXrRD7Vztsuyq7C7Yo/Zu9mL7zfad4wjjPMZJxlWPu+6g7sBxKHCod7jvyHQMdyxybHJ8Md5ifMr41ePPjP/s5OqU67TD6fYE7QmhE4omtEz409nOWeBc5XxlIm1i0MSFE5snvnSxdxG5bHG54cpwjXBd6trm+snN3U3m1uDW427hnua+yf06W4cdzV7OPutB8PD3WOjR6vHO080z3/OA5x9eDl45XnVeTydZTxJN2jHpobeZN997m3eXD8snzed7ny5fU1++b7XvAz9zP6HfTr8nHFtONmc354W/k7/M/5D/G64ndz73eAAWEBxQGtARqB2YEFgZeC/ILCgzqD6oL9g1eG7w8RBCSFjI6pDrPCOegFfL6wt1D50feipMPSwurDLsQbhduCy8JQKNCI1YG3En0jJSEtkUBaJ4UWuj7kZbR8+M/imGGBMdUxXzOHZC7LzYM3GMuOlxdXGv4/3jV8bfTrBJUCS0JdITUxNrE98kBSStSeqaPH7y/Mnnkw2SxcnNKaSUxJSdKf1TAqesn9Kd6ppaknptqvXU2VPPTTOYljvtyHT6dP70g2mEtKS0urSP/Ch+Nb8/nZe+Kb1PwBVsEDwX+gnXCXtE3qI1oicZ3hlrMp5memeuzezJ8s0qz+oVc8WV4pfZIdlbs9/kROXsyhnITcrdm0fOS8s7LNGW5EhOzTCeMXtGp9ReWiLtmuk5c/3MPlmYbKcckU+VN+frwB/9doWN4hvF/QKfgqqCt7MSZx2crTVbMrt9jt2cZXOeFAYV/jAXnyuY2zbPdN7ieffnc+ZvW4AsSF/QttB8YfHC7kXBi2oWUxfnLP61yKloTdFfS5KWtBQbFS8qfvhN8Df1JRolspLrS72Wbv0W/1b8bceyics2LvtcKiz9pcyprLzs43LB8l++m/BdxXcDKzJWdKx0W7llFXGVZNW11b6ra9ZorSlc83BtxNrGdax1pev+Wj99/blyl/KtG6gbFBu6KsIrmjdabFy18WNlVuXVKv+qvZsMNy3b9GazcPOlLX5bGrYabS3b+v578fc3tgVva6y2qi7fTtxesP3xjsQdZ35g/1C702Bn2c5PuyS7umpia07VutfW1hnWraxH6xX1PbtTd1/cE7CnucGhYdte5t6yfWCfYt+z/Wn7rx0IO9B2kH2w4UfLHzcdYhwqbUQa5zT2NWU1dTUnN3ceDj3c1uLVcugnx592tZq2Vh3RPbLyKPVo8dGBY4XH+o9Lj/eeyDzxsG162+2Tk09eORVzquN02OmzPwf9fPIM58yxs95nW895njv8C/uXpvNu5xvbXdsP/er666EOt47GC+4Xmi96XGzpnNR59JLvpROXAy7/fIV35fzVyKud1xKu3bieer3rhvDG05u5N1/eKrj14faiO4Q7pXc175bfM7xX/Zvtb3u73LqO3A+43/4g7sHth4KHzx/JH33sLn5Me1z+xORJ7VPnp609QT0Xn0151v1c+vxDb8nvWr9vemHz4sc//P5o75vc1/1S9nLgz+Wv9F/t+svlr7b+6P57r/Nef3hT+lb/bc079rsz75PeP/kw6yPpY8Un208tn8M+3xnIGxiQ8mX8wV8BDCi3NhkA/LkLAFoyAAy4b6ROUe0PBw1R7WkHEfhPWLWHHDQ3ABrgP31ML/y7uQ7Avh0AWEF9eioA0TQA4j0AOnHiSBveyw3uO5VGhHuD74M/peelg39jqj3pV3GPPgOlqgsYff4XlBWC+98HurMAAAA4ZVhJZk1NACoAAAAIAAGHaQAEAAAAAQAAABoAAAAAAAKgAgAEAAAAAQAAA4agAwAEAAAAAQAAAq4AAAAAFc18SQAAQABJREFUeAHsvYd228q2RQmKVJYl5+N0fNJ97/XtMfr/P6S7X990gnMOypFUr7k3SqJoRVqyRWiVTZEEgQIwd6VVu6rQ2lWoHEzABEzABEzABEzABEzABEzABK4sgbEre+e+cRMwARMwARMwARMwARMwARMwgSBgYeiEYAImYAImYAImYAImYAImYAJXnICF4RVPAL59EzABEzABEzABEzABEzABE7AwdBowARMwARMwARMwARMwARMwgStOwMLwiicA374JmIAJmIAJmIAJmIAJmIAJWBg6DZiACZiACZiACZiACZiACZjAFSdgYXjFE4Bv3wRMwARMwARMwARMwARMwAQsDJ0GTMAETMAETMAETMAETMAETOCKE7AwvOIJwLdvAiZgAiZgAiZgAiZgAiZgAhaGTgMmYAImYAImYAImYAImYAImcMUJWBhe8QTg2zcBEzABEzABEzABEzABEzABC0OnARMwARMwARMwARMwARMwARO44gQsDK94AvDtm4AJmIAJmIAJmIAJmIAJmICFodOACZiACZiACZiACZiACZiACVxxAhaGVzwB+PZNwARMwARMwARMwARMwARMwMLQacAETMAETMAETMAETMAETMAErjgBC8MrngB8+yZgAiZgAiZgAiZgAiZgAiZgYeg0YAImYAImYAImYAImYAImYAJXnICF4RVPAL59EzABEzABEzABEzABEzABE7AwdBowARMwARMwARMwARMwARMwgStOwMLwiicA374JmIAJmIAJmIAJmIAJmIAJWBg6DZiACZiACZiACZiACZiACZjAFSdgYXjFE4Bv3wRMwARMwARMwARMwARMwAQsDJ0GTMAETMAETMAETMAETMAETOCKE7AwvOIJwLdvAiZgAiZgAiZgAiZgAiZgAhaGTgMmYAImYAImYAImYAImYAImcMUJWBhe8QTg2zcBEzABEzABEzABEzABEzABC0OnARMwARMwARMwARMwARMwARO44gQsDK94AvDtm4AJmIAJmIAJmIAJmIAJmICFodOACZiACZiACZiACZiACZiACVxxAhaGVzwB+PZNwARMwARMwARMwARMwARMoHNVEezqxnf1pxuv3YrvhHarqjqtVjWmdwcTMAETMAETMAETMAETMIHmE9iRGNjppSLgL1qgaIKrIguupDDE2Nh9S38Wt3er5e1eLRCr6vrEWHVroqomlBqkD6urkhCan919hyZgAiZgAiZgAiZgAibwJQF0waL0wOet3QqByPfZTqu6IU0wI68RIvEqaIIrKQwxNkZf71bV+81e9WajV21ro9JD9eNMVc112lVHg2zb2udKpIIv84e3mIAJNJDALsMk+kKL3q+vCIPxEdXXxvkVl3Mhh3KPQa1mVwgGOfFLgtmReNoLKNz23uFWDq7jHIbjl/GdfF17x+RNxlXw8Tyup9yS303ABEzgMhOgzJMEqJbkLHq+1q0kDeQ5rKpbk2PVeGssnEUIJkYVNj1cKWFIvY7hV6QK38nqr9d71fOVnerVmrZibL0m9PphaqyaauurKmi9OZiACZjAyBKg4c9re3unWllbqzY3t6qpqclqanKyGqcTrNMZSszt7HSrjc3Namt7u+p2u1Wv16tmpqf1mqrGxsaGivOyQIZXt9urdnRfa+vrem1Umxub1cbWpu5zV/emumJ8PO93ZrqarnmeJOZgBK+tre1qdY1412WX7TgPzCbHJ8I2c3Oz1axYjqmLmu0nBa6XOLe2t6pN3vUaH+9UszMz1eTE+JH22NnZ0TE71cbGRrWqa9nQPZbrabeVNtqdam52puJ6JicmdM+dU13PSdfr303ABEzgshBAFDJ8VD6i6rVE4b8Wd6o16YRtOY9uSQ+sbrerBzPt6o4+Xx/PzraTS+XLcndnv44rJQwRhXgKl9Uj8FTG/31pp3qy1K1eLHerCbmLVedF78A6DYLd9pXoGTh7kvERJmACo0QgekIlHDa3tqpPn5eqpeWV6vrCtWph/loldVghAE4SNIfd705XlafEzfLqaggRRNStG9erCQkISU0JiOxcO+zYy74NocX9bUhEf1pcqj58/FQtLi1XS0srsR2xhgi+c+tmdfvmjap1fT6ENscdxZLfeCHMV1bXqncfPlbv9QrRqW0diXQE2I2F+ere7p0QYh11TZ6kC/filX2Jd0X2WF5ZkyhEWI5FvCjZNmp2IGxLGK5LFH5eXNT1fNL7UtiUtIIdEYP37t7R9SgV6do67TELwwGG/moCJjDaBCjeJAuqdQkEHEb/lDBc0XDSLX2/NT1WrWkxkk3tND6mjjI6U7ndL4vT0YbQd/VXQhgydFT/Yz7hxy15CVe71R8Shc9WutUndRHsyODzEoY31RuwIJfhpHzF+tpku/clAX80ARNoMoGeOrpCFKrR//tfT6rnL9+osX+7+uEOr1vxGpf36yhBM8gGIdLTa0Xi48mLl9Xrt+9CGLL9b7/8VC1cm5N4kDAcwfEWeAO7vW6IpbfvPoZ4+yTR9FmCGo9reEZ3e7Fw2fLKaojF12/fVw/u3dXrjrSTPH3y0iHI+nUYnjk8hBzzSrxev3mnc8gDKVHWlRcxItQBS/r94yedb3G5uiWhdufWjRCfiMaMM1sjxQY7uqZVeYER52/ffaje6MU5EIj3f7gjcTcub6Y8uFxMn8JEnJIm3r7/EPZD/HIMHmC8mrviwPUSeH+n/Ugv93WP89euhRcST7ODCZiACTSBAENEx9WZeU0eQTyDuyoHN6QWlzS68IW0AkFdqOFcuimdcEPrkeA1ZN5h08KVKNnxFHbVaPkkUfi7DPxn7Sl8K68hopAEcUPjiH+61qnuKkEw2XRcFWl/xd40w/t+TMAErgYBhA5C4OOnz9U///Nn9b///E/1848Pq6UfV0Iw3Ly+EMNJoXEacYgoRCAtrSxXfz55Vv37jycx/LClGhJh9JPiRmhq0MXIda71JPoYhrm0vFr99eyF7u2v8MCtSjQx9BYvHIwYRsuwzfX1zYr7XllJT+L9u3djP4Rx/93jmUN8vXrztvrX73/p9Wd44/DITU6mZw6mDPVlCCv7LczPV3//r1+ra/LUTVUa9quGSGmDIAzZH3GJ5/GVhOYfssUffz0Lkbi2tlH9/b9/C8F6W15NhGUJHMuQ0cXl5erJs5fVP/79e3zWZnkE29XUNEOMOyESNza2QmxyzC+PH5FA9F8Novm5vTRT4vW7CZiACYwiAdr6jHJhChlDRx9fa6vDTqMLpRnCiyhn0qa8hziZ8Bz+NteurkkndFTOHyzpR/Huv7zmRgvDfU9hr1qUW/hJLQqf4ylULwALzsypsr0+2aoey9C/6nVXKWMSY8vapRL+Epu3mIAJmMBoEAjvUi0OF+WJevP2QwgAtiMKHz96INExHvPJKPdOCuGl0ny0D/JsvXrzvnrx8nUIBrxTDEsMjxMqg2Eap4jvpPN9y9+35EVDQOPVe/vufXyeknBDXCHQ5ufSG4owRMS91xBTRON7HbOjHmZEI8N0W63pqo0YEwOEOd44xNufT1/EcE2aE8R3U0NvmUs4NTURHskYriqP37rmNOKJvaEhqgzPvSE7LRCvhBvCnN8/fV6UDT5LuL2PF8cStrZ2YrgwQ0qZP7grsZur5+CYzLmTH3XsM3l73+gceATbY+1qXmIvPZ7TMX+yzK2EB15M7vWpjiG0NaSUoaZ4Ik/TmRAH+Y8JmIAJXEICVFP05fFYChab+WWuU6nYrrY0hPS9hpauynO4KJH4UgIRRxPCaVwHMN9wQS+O0/9Rq+6OtERjhSFtEp5RiEfwnYaL/ikx+JfmEv6lOYUMH+VRFVNS/Pdnx6ofJQh/k7eQ15y2xaMqjkTmH0zABExg9Aig1WLxkxA/i+GZQhSy6Mi0Foxpx1DDfc/SUXfIEESGVr7XUEfm3n3UZxazQQgxFHNUA6IJD9xLeeueyFuIeGI40X0NE/3t58ch5BBxeAgZnruouZovXr2J/eHw8vXbak7DSB/e+yHmbU6PTYaIw1v7WaLt2YtX8ug9lfiaqX5+/LB69OB+9aNeMzNT4aFjUZoVicK37z+GR5G43+nzk9mX0nW71eys5gyq9bHDuRXf7/IOIu6Im+GjeDPx1jJnlOGlrYHhrNlBoKkT8l4iJv/3X79LRG7Fwjm3NWT18aOHMXQ15ogqDuZXbmpo6b//fCK7/hVexj+fPA9PZYhkDRnGw8j5HEzABExglAkgDhk9eFPOoil9iGGi+jPV6VbPpB2Yc/heC1UyvJSONn2tfpnVCAuVfy0VgU0SU026l700SdsEUbistWZZaOaZVP5/JAhR++/1jAoeSzEjlX9ruhWi8G/zneoRKw6pp0C6MJT/XmT+YAImYAKNIUD1p+EwGi7JvDSGTC5qQRVWEmX44Gka+QxDxFP14ePnWFUTjxheKWLO2OMU8QcxSi2KIMXLxgI1CBPeqVz5w9w5XpyfIai5GA6/pZBlaCXn4B0hwmqb/fPtcs/9v8zZQ7gx1JLPiCnmw5XhlId5uBBNvBBKiC68cT0dPysR98PtW9WvP/0YcwdZ4ZPj2XdBYoxr5TMiGY8gYhLvIDwZJsoCNnxn0R88bgwnvaXFahBwiMJHD+6lqNb9w4WFaCY1ZBWhSZx48xCUiD7m+I1pGCfDUvHmMfeR88EFryZeRRbD4bfnEpXc96BFsAPHM5eR+YXEe1f390Bi9id1EvCZe2IoLPsxr5L4WJQGkcqwVYa+cl2cFztYFu6nPX8yARMYXQJ4DZlKxjMLt2fojkuJtEV1tasVqjWc9OOGtralI1R/UfbNaP8b0hNzepUpaIP14KgRaZwwxM0r22nZ2d3qhVzATyUG8RI+07zCJUl8BOOcJo4+lJcwho9qLPFPUv3XNOuU3oIvWjajZlFfrwmYgAkcQoDGPuIIjxCPV2BVTR5NwMqYM5pXxneGgx4VEEAEhAICgZUs8TIuaDESHnuBsAvB1hcBx/Qk6vAyIpBYsGZZ8/GW9ZnfWOQEocH8vXl5oBA3eMZCHCoeFkNh2CSCiWGqDHVk1U48lITDRB5zBFnUhfl/HMM9X9d8vfC46XoPO4ZrQUQidhBP3Mf1OM9UdfPm9RB6/Y9qII4pcWQoLteHEExv7HacE+E9K7HMOyLz46dP4X2bECOOQYQRP7w5F72R3DMLxTAU9cH9H+LeEe3PNVQXwYc3k/Nyf4hsHpdBXMTDCrMxX1HxIVAR0IOBe8TbiODj85iGg14TcxbOQXQigoso5DxpA4bGLoQXFM8ndud+STfcL/E4mIAJmECTCKj40xBRdVjO5CPrmN09LYHwQnrio0YcLmoqGsNMO5KO6I3HGnn4WM6leYaVCgTHj3JolDCkiuJZJFpTpvostyAPqfyHlp19vdKr3soFzO+sOMrk0p80hvhvC+3q0XS7uq/laOkpGHFbjnI69LWbgAlcMAEa+4ikycnx8BQxpwxPHI19hgbeunEjBA77HRaKeEIY4tHisRcIG+bB4V1j3tnBRVcQInrWoQQNQx3xMjJfDY8cL+LjhSiclii9JQHG/Dn+IZAQm4gRBGUeu6i5fjdi//QsHi7yEJOfNJdyWdeHV3Ra8YcYlnhrtQ4XMmxFpHLvCC6Ge7L4CyLt5vXr4cUbFFt4LtkPYTY5MRnHc78MCeWde8MD+XlpKcQhHkFEMHHe/+FusENMF94M/ZzQMCZswWqxDONEQDPXEXHJfbE/wo5j8Pbx+IiH8jre1yMl8O5xbrZjC8KgJbkmBB12Y77kbdmc1UvhOiPm5TiORfTz4h6xzWtdR4hfnQNvbAwbPhwnhzuYgAmYwMgRKGVm8RziMKJKRCMwBQ2vIQvRrEgcsm1TZeDurp4ZK88h++JBnKjrUH0dydAYYSh7xXzCZRnsmQThcwnBPxf1jEJ5CzEkNSQrj96bkbJnoRl5Ch9KFKLwMa6DCZiACTSdAN4pRBJesIfySiEUmG+GGMFzNFd768KLNQADTxUeuEUNP0UUIlDw8i3Mj4XQwytYAnpBUUucrVYvXr/RIifvwzPJvDzi5hXCQwKGOJdiWOtyCMc7t2/GMEvESAw7lXeMYYz/0Vy3tXV52iTY8BhOtrT4Seqfctq4nyWJTubecY1cEx7GOxJaeMhYUfOwEMMu5WXjOYLMtWNRGAQr5+Eec1jmwSMRsVwfXBhKS/yIWYQlIpIFZmCEsGXoJcNZEePMU2QfPHKHBRaC4ZEXeE8RgjHXT/exJZEst16I5vT8jsf58RYyR3R3dyMWm4keUAwwEBCTiNmZarp6/PD+nieVhXXweMZiOQPHEA33WB5jgaBk2CrxICKLqB04zF9NwARMYOQJoO8QfPelFYpMmJD6ey3P4Zt6UZpXmn+IkKJDc1mjDx9KYzBPkQVpEIqjGBojDNU/G2p+UZ7CJzLa/8pT+Ga5V72W0ah/x2WhG1Ot6lfNJ/zbfLv6UW7f2xKKGH5EbTeK6c3XbAIm8J0I0IhHjDDkENH1048PtKLom+rZy1cxFBHxsi0RFo8jOEQ/4Y3iwek85J25iQxnRDTNyEOFeOgXhtwiogJPIQu5/Pn0WYg7HqPAuVlpsy2Rgbhg8Rs8YgzjRHjwmaGu89dm4xx4pxjuyqMjKLCZn4eXLuYN9s1wQ+QSeAwDwpBz4+HCi8n1IUaPEjLJRiuFyjvGuXP+XK64iYA9TCjjMWPVz83trfB0Iga5ponxiRzKqYqFFVwRhgyFRcwxXBde3CfhsOvBRumJlDCUAIMrnlOGpUJ1WsN+5zs5pJY75vqIh9VIjwvsg9DkxfxGho+GwJRIPez+Ii4xRdwyjBU7IGgRzNzncTyPuw7/ZgImYAKXnUDRBXgAGUbKvMO26hK0BItafpDHcE0TDZd4FrrqgnXKSr1mVDayiCV9kG2VuaMYRl4YZlNADRAZiDmFT1Z2Yk7hOw0fXdc21cXVHan9uxoD/HPtKfxBj6TA2NhsNM02iknN12wCJnAZCCCU8FrdljjjMQSqy+rhnisSMasxxBDBMBgQOHgXmSOIYJnvzEm8XQuvGl7I/oCIQKix+AqBuYEMXURY4AlLYSchJRHEcEnEHIut8LB4FmhBgOIpQ3wgkhhqiqAlXvbFG8g1sBgMgXPxGy+uk5VSKds5D+fDy4UwOqm8Z58itMr+DPHsD5yLF3Pt4MEcQIQngpdhtQhaPI0cH0NLJej4PTyQIaqSLb8fFtjMfWODTluL5uiFdxKBGI+fUCOEY9mH+u+oeA6Lu2xDkMuvuXevZXt5D9vpmjkfw39ZIRVxCE+GncYwVl1fDh0uR/ndBEzABJpFIEpp/ZlES8iZROiqDEb08Sx0pqltaL7hezmkmPmu5cn07MOqeqApanekNThCVe5IhZEXhtBWnRnCkEdS/FPDR18u71TvVukp1hKyUvd35Nr9n+udEIZMEGVSqTaf2EgYKUv6Yk3ABEzgFATwCNKwZ3XMGXkMKUDxSOEFRFQxv48Hqg8GHoHAs/WKMETo4DFEsCH4+gOeOkQaXkVEBo9xYC7bXQ0TZe4ex/HYB0TNmjyVCEEe+s7CKSkMVyVWt0LQTel6GCo5ofPhyWOoKOIQAdYf+A2v2uoqHsilGB7Lwjg3F3KO4Gnq5hBcEqtjVCoEXd/gcfyEt5AhsHvCUPcKT4atBhMJUUKZc4jXDU9heNsk9I4VczonXkO8cgzv5DPzH5mvSDyIRI7vjwPGZwljGq46UQve/nhKHMSHKET88rxKxC82vq17vHPzZgx1jeGyug4HEzABE2gyAUo5nm9+R6MOGVqK2GO9EnQEz0jf0BMQNlbpCK1itdJNlZ+TbXWCTsg5peNSTo4OoZEXhqovw627JsXOQ+s/yK27KkPt6PukekUnZcQFqfwftOAM436n9b0jK7k6G51E6is1ARM4PwK05Tud8RCA85qfhgcI79QHrZzJMEVEI68iPsITJ6HH0EweuYD4QvxckweQoZGEQXFRhhlek3hjLiMC8dYNPaS9nh+It6+UwiwkwwPe8TriyUKUIFRZ5IYhlyzYsqDzISo5D8KxLIiy0ONh8vn4iDXmKsqTmI9S2AkhsyChxmIvg8I1LvqIP1E3HCF4uLZ1XRfPDnypuZNv332IZw+GZ/IB3rSb4cXk/hHHPAeRhXkQdsxTROjx20mB07M/+/JC9rGiKHFFT+hJEZzwe97el7Ug94fwZD4jj7OgI4BhvKSBOXleYwXTu7dDqA/a/IRT+mcTMAETGFkCeP0oMeUE1Holmj/eG6vero/Fo+92eq0QhwwtRYdc39Tcea1totK6alN4f1nUXmoOIy8Mu6rEeC4hRljWh+Ut9RpLFGILBOCUFpdhgZlbEoe86/+o2ehSJyBfnAmYwGgRoEEfc8u0kuZ1CUM8eYgphnIybJFHI7D4CkMqCXi9EIM8+47VSFmB855WwWSIJt7Cjc0NibODDDgWjxePU5iezEc5IPKY3xZx4knUB4RIruDJXLmcA8exW5q3xzXhFUTULcRKnnfieXrMQcTzxgPi8RIiJvHg4Xnk+hCUijaGc15naKfucXCo68GrPd03rpV4V3QehlY+ef4yxBOeQ+Y9/vdvP1d3xY77DhzaGZHFtRUvH9eKp/S4kL+mR7CIQ/bnsR8MYYLbRQXuERHIPSF8//HvP8KLjDjFBqyA+gPCUENlHUzABEzgKhGgbGZRmWtyMO3K2YRAnNXj7zZ2WpUeJiQtslutShwytW2Tcl/7X2R5fVHsR14YYiheuHXnNUT0hryCPQnDbaS6LIJrd0VGYqLohCpkxgVTL9PkOaF+1h4OJmACJtA8AohDRArPsbsnYfjq9bsQAh8/jWso5loMW2QRFfZhOCGria5IGDLvbyZWzJyXeFwITyArVg4G4kdMIDQnJtRZp+MYpso7i9jEkEiGm+qFN5FFWl5qGCkL2+RiK+zDs/I0l4Pr1BxFFkvh+HcSsIt6BAQLuhCX1shUUa/lwxX/W61eyvF4PvEqxvxEDUVl2OPXBCp37h3RGcNHX72W9/Sj7lGLmEkM8ngJxDJzN4uHD7UcA1FV31BHERBeoS7z67F/OSe77++PWDz2kKF/DNGro2HHo0R4hAnzPXlnhVQ6D+7fvRuLBsH0a3kOfaE+0ARMwAS+AwGKYkmLeH7hkjTFe2mKZY1O3MYRpYJa1Z28idIh0iDXJRb5TK1zUWX2RSIYeWGI0GNSKILwFz2CQu2IqITXtegBKwetbOjRFSs0UuRVlAHHWpq3oTk2jBe2MLzIpOW4TcAELisBKiterMLZat2Jx0ogfEIASmCx0MiYysnW2Hg8CxAxxDMBCTzvriwgw+MojgsIQAQbXj5EBu8IOl54CrsShWWoKr/hpcJDuLm1GcMvi3+Mh68jvj58/ByilTgZ0omQKZ5NFs55+/69hOaOhp5eC2/ojDxbeCm/ZpEUGgSIM4bSvnn3rnoqT+HzF6/i3DyP8MG9H2K4LMNrw1sIWO2PhsM7yPXxjshFBPN+XODXEGp6BEbM1ZR4JjDXENFJ9OcdOB/nwkv7TPMJuUeGycL34f171W8/Pw7hW0Shh5GetwUcnwmYwGUmQLHNcwyXNDqRJx/8R088eKr1TD5p8Rk8hfQ9XucZ6dIhv17rxChFnFE4oUYtjLwwRNwB/prGiD7UwjIYjxWCEIHLKHo9ffKDxCEDl9gPFU9ASM6qhmUbcTiYgAmYwFUjEIu6aDgoDX5EB0M4EUB4jXieHs/mQ/wx1wzPIat7zs3NxBBP5iFuaMjhYQFP4K7iYs7fa3kC3374ECugEi9ePhY2Yb4cQ0F7EkDMwSN+ngnIeXvajlhh1AeBoYs3Fhb0GD/mPnKd2+G9w7vJdSO+EIsIR66LIawMfWTYKx7HYQOXEB5OnY9hqs8kCJl7h4hmXiRi9efHD0Mos2hPCVx7eGV1XcynxMPW1VBQPJ45dFYRq/45tOrRsYhlvKi8I9gYUhrxMEz1nJUh15o8N2I48ctXbyte2IVVZ+/evhXPPSzzQ+HtYAImYAJXgQBVUNEVnzVV7Y3WMXkiUfgfPRLvsz5vSChOaWjpNQ0rfaAnH/D0gx/1PMMFaRJtHskw8sKwUGcV2VsSe9gBI+JFxHjbqoyZg/hRqn4ceajfVmXIX+c6emilHvas4ybOuaIt1+R3EzABE7jMBPBwTWgIPgvJ3JTw2pCnjhU/EYLxzDuJGsQcq4UiY5h7iOia0rxBPFhHiZRNDS9F5L2Q9+kf//kjFoxhPiKi7e7MrVihEzGHyMh5eL3wFiLi8DKO14+hKOy4Th4BwbBG5h0iZhCCLIZDoY8AXNGqqUu69mt6SD3DO1khNBe5KbGc/Z3zLEvcftAjG/Ci/fX0RQi1e5pnh2BiniPPZJzUnMf+ABcEbFy3WHHveAu5ZsQhwpl7P4wfHsVtCVG8tryHMNS+ufqrvJ+K97wC90f8dAa81LxJ5k7iHV6X/R6ENxSP6F0x1+qzk3re4Tme+7zuwfGYgAmYwEURUB9lzBdkOtqf8hT+pacfPF3Skw/0zow1VU3VHT0O7ydpCryFCMO7Eok893BUQ2OEIS5bRN4kjQ3ZAwWPQVlKdkUGXdF7b7dbbagi1MdqSjvx0EoWpEHVow1H14yjmvx83SZgAt+TAJ4shm4ipngO30cN50QIvVY5Oi+xyPMDEYrvNHePRxXcvHErvGN4y2KI5BGdaogfvIWvJDD/ePIshij+9OiBViW9HXMFEVWcFwGIMMEzhjeSBXAQosxN7A8xp03iC2G4oMVkGIoawlDDUxFfc7Pdak2PqVhd2whBy7Xi4RpWGKZgQqBpqJCY8LiGl2/exnBYBCfzCX/WgjN35DHker4MOR8Qcc28QxbL4XmNDMdlTib3S+AZiYPiEE8dHkm8oQhD6iUWC4IPzM7TY4dYxVv4WSu9MoT0heZO8ugQPJR3tArs//G3X8NDXDzKcdH+YwImYAINJ4CnUHIhRCGLybyVd/APOZv+JU/hp3U9T1ffZyQA5yQ87stD+F8LneqxROEP9UKXo4znYO07yndSXzvPDOE5hYTNeR7g29Icwx29NDRHQnFJxnwpna+5oZU+Vo/1jEOGoOJhRFxaHNYg/WYCJtB4AogShAaLuzBfDkH0RkMl1zbeadimPHP6ncdD4AHksRE8MoL5hQiU4+bKMTdtaWUlhofiZZqX8OSxFcxVQ4TyKnPmED8bGvJPfIgUPI0Mu+wP4X1TGX1Nw1gRZXgKWQjm5ZudGG2KRwsvF6uPsjgOK5HyKA3OMUyI5yVK2CJSn754Wf3+17Ng84hVObUIDu88t3B6wFNYzpV6WfPfdT2sjPpZ4pr5m3jmELQIP35r05s5EBBriGrmZOI9ndU9M8eSYb882uNr5kuWU2FnXtzfOw3zfV57CmHPqqMI60eaW8jjRrD1oHgt8fjdBEzABJpIYEf1kXxKIQifylP4pPYUfl7XgmnaPiUByNDRR3Na30Tewh/lNbwlYYGWGPXQPGEoZXddXsA5Hgysz9dkKOm9alGK/5MMypzDTVW2GzK6xL/26VTXZWAqvkPq6FG3r6/fBEzABI4kkMJQ5aXEB0MGEVt/PXsRYhAxwqIpeJOKkLlzSx5DDTlFoOAVPCrweAuEEI89QMggBBGGv/78Y3j4+le11HonEoQ8uL0XwnBTcxOZY9gfUgy1Q8AyjBMB+eT5i2pdApEFaniG4YaGXiK2GK6KF48Hyg87vxCPHp5SvIQ8luKPv57GoxqYT/j44YNYcGZhfq7/Er/4jDhETPOMwwUxxDPK8w/LcFI8rhMaqjsoupiDGF5aeU+3JRLnJNC5p5wPKpGm47420BOOEEcYcn94RN9osRmu956E7//87ZdgiN0cTMAETOCqEcjH4DGnsFv9f/IS/rnU1ZQ0TQfQPMMpOZ+m5S18KGH4f93sVA+n5SnUwjOMQmxCaJwwLEah6rwWDzKsqjUZj97RF+PyFkr588xDHkT5Vp7E/2hHegYeyRX8SN5DhpjGSkLNsG/B4XcTMAETOJIAQg8hOCchwCIqzKlj0ZgVDSvckveP4ZN45RAokxr+edJcM4Zwsi8ePDxgrHaJtwxP2JTiZ1gkQokXC8awoMur12/j9/QYHhSG5cIndBxDRGc/LcaCNcSJx3NdQ0gJDIdFzJSVSM9ajDN0lGGqDB/9Q17CP588jxVS7965FZ5CvIQIzl2Ge0qIDgY8lIhRxB4vhrlyPYhD2CIEPy8u6vmAv8vzmcNqEWPcAyu0IsB5DAaPD4l5nto/vJPMYwxvoeIePOkZv1MXIvbxBP/17Hn15NlLnXcz5krCr3iE2e+we+RauUfeB0XtGS/Fu5uACZjApSHA8FFWGJX2q15puOhzCcG/5EF6JW8hi1ny+zU5khg6irfwN80pvK8n3ueUtK8tmS8Nhqq5wlA2mtPkwRlWpJM1Z/R5qp2ewtdaiGZd3QEb2xKF+m1Rf5QWqnnt05rQfA6Jw6/vk708RvaVmIAJmMBxBBBSzCPj8RU8AxBRgDDpdt/EIisMIcULl2Lv5KGFDD+c05BOHmqPB2x7bUfeqRUJkuVqXoUt3jJEGEMlGRaK1+qFHlWBcKR6HRxKWq4dj2Bex0wsWoMwxHPJvEiGeDIMMoShBBXnOGvgevCisdjOf/58Wv1TC+fgSb2v170fbod4mtGQTrxtXz6/UZ2Kum/VILWnMlcSRRBeFzuui+v/9HkpHhyPV5LhrrBGQJZnCL5++0EL8bwN/j9pHiPCkEV/ENkhxs56U33761Rx7QjDJxKFfz19rkV1XoRX8qEeu/FY80ARhnQUHH6Purt4NuV+GrA47APsjyZgAiNNAFG4In3wXDrh//mc09A+rOpZvNIJExqNeI1HUsy3q//zeqe6J0/hPX1vmjOpscKQlIlXl+ccMudQWk8PpmxHT8Bku1u90eO3eDglbmFEoYR/xdREPIcPZ3JFIY6nkeJgAiZgAqNLgFKMuYR4sHKxGR4J0R94LMW4BA1eQ+aXfZRHLlanXF+JR0XwgHPEDZ5AxAkhYtX8wfQgtWsvXf6GIMTDyLBTRM2KBBwC8B///kNiaCpeiLD0JvLcxFw0ZkHHEB+LtRxW+DIENVcnnYpFXRBa4WGUyHr0YLy6K3HICqtnHUKKOOPFdeCxe65FWN5IGDPPD2bw4fmISxK3CLRy//Fh709Lomo+hBXDTONe6sV9YPFIQ2nxvuKRjMVe9OgL5lfiQUUYch/LmpfJcFOGysINsfujhCHxch3H1UcMXUWkce8IO8Q+Q4FL4P6YO0ncHz5JjGvIMKuQvv/wWXNBN8MTiojnwfY8HmQwEDcvBC4dBXhB8S7j8XQwARMwgVEmIBkQcwffafERPIV/6hmFL+UpXNT0M2a8z2qu2V3NI3wgjfCLvIWsTYIzqYnPRG+0MCyJdFrGG1djY3dO76o0GQdMItjSKqXb6gX4hLtY7Rl1EEQCWFACYL4hS9E0ZMhwQeF3EzCBq0ggGvXMaRuPhnxbIqM/sAplS54gvIZ43ZgHx3xDhoDioeMh7giBA6uF6hiO6yBEJEIQI7HYi7QIj4/gXHdu3ajua7GYlxIl7zRclEciIHDYL1Yj1SIzCLkyVBUhhDDEkxaeKMXfHxBoExKwzLdDbHG9H7cWYwgmYpL5cTzO4qzewhBNGtbKsxTfagVW5twhCpck0vgNHs8mXsY99gvj/mvjeh/Lw8fqq7y4ntkZcdH9Iqbw/iEqGaL6QcL7qYQhwqwMP0Uk84gKwnU9g/Hxw/vx+lHv8Oifl9l/3v7P4ArxLLEG//4hv7qNELd4Oln9lbmkbyQCP2loK4KUxXuePn8VwvIwfmPqTOBa6ST4n//6pfpZ98jQWgvDfgv4swmYwKgRQA/gINpWIflKwvD/lqcQUfhenkLNOlMZrkc16fF2f9PKo3+Tt/C+PIV3NKRUm1VPjdrdnny9V0IYYryOFN51jfKhotTAnViRFHX4Ppad1ZzD7m7Fc0pYlpYVh6hEj+2ePZmt9zABEzCB704ATyHCDXHCyqMEnr3HNgRA8QRRweEB4lESLHrS1Tw6PIgIE+bYMSQSYVYCnik8S6wAykqh1JA84zBFIs/b4/t1DU+8H55G5i0yVHTvqfW7mvstPyXCk3NS3iI+uR6uj5VSmc/YH4hT6iRED55DvI+IOQQL91e8WEW89R97ms/Eg+jEQ8diOYgrxBzP8AuhekylwO/MIYRLMgVJetmYU8k94anFM8iwUQQac/gQntQ3XDM8EZT3790JMY5IX9BD5onzpHvC64hIuy0x/stPP9bzLWdU99WeQ6HTBYVdmCdZrgdmBO6T+z8qkFb4HZsgPs9jEZyjzuXtJmACJvAtCUgCxDPPGUb6PrSAHqOkbUxDu631R3681olnFD6Wx3Be65c0ZaGZwxhfCWFYbnxS4nBBleOulH+lRsmsDP7HkryHLT2+gvpQv9HsYfRNNEDKgX43ARMwgRElQCOeeYMIhr//928xZ+0HCT2EVQ4pRTFkQJTwcHiGN96UOMJTdlcrkSIiGB7a70kKsSmvXVuChOMe3L8rD+HN9EhKRCBC8Hx1Oj/G0EOe47cmDyRz63ghMnghOPHyMUKDxVcICKnyQPu8svIXoZUiCs8j5y3Chve5WS14IzGXIq4cc/I7+3NvXMevjx9VNxXXiq6V62X7GEKoRLP3oWzYf8eDyQuxO97ZF7V42xDd8EbkwWlFzzRcWVuLRWeYz4fwY6guYhduZS5lEZr7Z/nyE9ePfYjjJ10/wo/zYctYLEjbuWy8ly3F/4v24XcEKp5KAvfZP/Q0Nvb9wT6ch3mmN27kYkT2FvYB8kcTMIGRJEDHHEvL7OgDYpDv49ILs1Ot6q7mEP6mR9/9rPlmD6QdbmjOWdOfYHClhKF0YHgOxzQlot1So0IbWOocNVjq+jlNLuUZhwjEsm0kU7ov2gRMwAREALEwoVdb8yIQCQgB5uYhoAYDwmS+k49HuCFxwjxAhoUi1AYDom6aifeKc2ZmqtrRYjJ4nRCMRZiFQJEQuXljIUQIj7Fgrh7XwH7h5dLxxEGJi2DsqVbmeDrnEEWE9Kqp0tZwz5gnJ0HD4jXsx7P2GGqJmEIocr/l/HHwKf6wP6/wmN7pxPw+HpnB+c4SuGbEFRwRriXgteUe2Y7gRbDxAHuEIffBuRjeWzyG7APzcl0lnuPeg6e8g3hfmeOICEW49Q9BLWKcuZgITxpAZw0IyM54inriczABEzCBJhCgzT8jQXhTw0TxFCISEYMMH32kOYUL0gc4lJoerpQwLMZk1VE9j1KVrio4/bun5WYRiIwxvqdEgOGVNvR7OcLvJmACJjDaBGJIqcQgjfl+sfDFXangS+9V7nts47/ed0IiD8HAvoOijO8hTjm3xArPKyweMq6JbfxOaKnDLsQK5a/+8TsBMcjCKAwbZe4j8wCZJ4dHk+GWDzRElrmKZxFSEfHAH46HTUw56OSCNAO7HP+1XHc9nHRw52Qh4aj7RDQjFPOxHXgM8/EWnD8WmtG1nDVwCHM+WxLzcS7VcYeFiL/6coGZw/Yd3FbugaGkHlkzSMffTcAERo1AlJuqb6T9qp/oQJUA4LEVaIJ5eYru1o+kYPXRqxCupjCk8pT4o0cAtzCPrOiqNcILwzdxlaGrkJh9jyZgAkcToEGPV+mkQNUXjf8z7ntczAi/FJsnnf3w3/FcMh+PFTt5xuBbPYydlT1ZYZO5iDxOYl5DUrnurwkcj7jV/wsLRQRP6ySHrf75tSfO6z/+BkJ8XuRNfu1N+HgTMAET+EYEqDVwBLIWCauN/iAhiB5geGlHdQK6gN+vSjiuLr8SDOgAAAIewp56DOwpvBJm902agAmMAAGGkBJ4tuBbrWrKKpo8RgNPIXPxGDbJcwbvamgmc9++VhiOABJfogmYgAmYwAURiC41DbRo7+bTCxhzcfi4iwu6gEsQ7ZUWhnQAIAR5MXDJwQRMwARM4HIRQBwuLi9Xz/R4h6fPX8Y78/UeP3wQK6YiDO/ouXoWhZfLbr4aEzABExg1AjiLQgheYV1wpYXhqCVYX68JmIAJXDUCCD4eFv/jw3vhJWRFT+bmscrqnZs343mGZXjmVWPj+zUBEzABEzCB8yTQUm9sjtU5z1gdlwmYgAmYgAmcEwEeq7ClR1ls6H1T7yzUwgqirLo5rkVtTjN38pwuxdGYgAmYgAmYQGMJWBg21rS+MRMwARNoBgFW7qQPk9VJu71uDBuN1UO1qA0eRQ8jbYadfRcmYAImYALfl4CF4ffl77ObgAmYgAmcQKAMbOE9PksMlkclWBSeAM8/m4AJmIAJmMApCVgYnhKUdzMBEzABEzABEzABEzABEzCBphK4aquwNtWOvi8TMAETMAETMAETMAETMAETGJqAheHQ6HygCZiACZiACZiACZiACZiACTSDgIVhM+zouzABEzABEzABEzABEzABEzCBoQlYGA6NzgeagAmYgAmYgAmYgAmYgAmYQDMIWBg2w46+CxMwARMwARMwARMwARMwARMYmoCF4dDofKAJmIAJmIAJmIAJmIAJmIAJNIOAhWEz7Oi7MAETMAETMAETMAETMAETMIGhCVgYDo3OB5qACZiACZiACZiACZiACZhAMwhYGDbDjr4LEzABEzABEzABEzABEzABExiagIXh0Oh8oAmYgAmYgAmYgAmYgAmYgAk0g4CFYTPs6LswARMwARMwARMwARMwARMwgaEJWBgOjc4HmoAJmIAJmIAJmIAJmIAJmEAzCFgYNsOOvgsTMAETMAETMAETMAETMAETGJqAheHQ6HygCZiACZiACZiACZiACZiACTSDgIVhM+zouzABEzABEzABEzABEzABEzCBoQlYGA6NzgeagAmYgAmYgAmYgAmYgAmYQDMIWBg2w46+CxMwARMwARMwARMwARMwARMYmoCF4dDofKAJmIAJmIAJmIAJmIAJmIAJNIOAhWEz7Oi7MAETMAETMAETMAETMAETMIGhCVgYDo3OB5qACZiACZiACZiACZiACZhAMwhYGDbDjr4LEzABEzABEzABEzABEzABExiagIXh0Oh8oAmYgAmYgAmYgAmYgAmYgAk0g4CFYTPs6LswARMwARMwARMwARMwARMwgaEJWBgOjc4HmoAJmIAJmIAJmIAJmIAJmEAzCFgYNsOOvgsTMAETMAETMAETMAETMAETGJqAheHQ6HygCZiACZiACZiACZiACZiACTSDgIVhM+zouzABEzABEzABEzABEzABEzCBoQlYGA6NzgeagAmYgAmYgAmYgAmYgAmYQDMIWBg2w46+CxMwARMwARMwARMwARMwARMYmoCF4dDofKAJmIAJmIAJmIAJmIAJmIAJNIOAhWEz7Oi7MAETMAETMAETMAETMAETMIGhCVgYDo3OB5qACZiACZiACZiACZiACZhAMwhYGDbDjr4LEzABEzABEzABEzABEzABExiagIXh0Oh8oAmYgAmYgAmYgAmYgAmYgAk0g4CFYTPs6LswARMwARMwARMwARMwARMwgaEJWBgOjc4HmoAJmIAJmIAJmIAJmIAJmEAzCFgYNsOOvgsTMAETMAETMAETMAETMAETGJqAheHQ6HygCZiACZiACZiACZiACZiACTSDgIVhM+zouzABEzABEzABEzABEzABEzCBoQlYGA6NzgeagAmYgAmYgAmYgAmYgAmYQDMIWBg2w46+CxMwARMwARMwARMwARMwARMYmoCF4dDofKAJmIAJmIAJmIAJmIAJmIAJNIOAhWEz7Oi7MAETMAETMAETMAETMAETMIGhCXSGPtIHmoAJmIAJmIAJnInA7i67x5+qarWq1pmO9s7nQcA2OA+KVzeO3UxAfQCUj52R+3j44ygTaIQwPJhH6woXq7jSHeW0eeDaD1TkYdrhSuEST8ul+AG+o/Kl2G/Y67XdhyX3fY7bt/fJDa+L2ve877y326t6vV1VT61qjGJML6fL4ynv2/b4/Y76dZDvvg2qamxMA6fcVjgK3chsHy6NnFyuDAJAFPb02lUeLmGMjNwacydPAfKd3g8T7FG+fqfrGdXTjrwwpDAgMUQWLe+yBu3+FhupeHmzEEgQI/gXM5bCuPS0j1GR16/T3hKNMQp0RaYynEYZiePsFcNpz+f9zp9A5HXyecnrkfFPdx7MTQWeZYHtfjpq32+vkudpgGGzfdt9eU2xb52/ydfRUDsib2cR0CfOolGn9PBltOe+hevsdnvVzk43BEm7zbWOVczpcB11NG5qeNLBsPl+v7xPzthge1s2EP9Ou6ra7ZxVYxscbYPL/suZ0kid2aMdsdcWON0dUuWQfnjRHuH7eLtddahgeDl8UwKU58UOUT7UbYKwBCYpVyPb7H0u2/x+KIGRFYYlAXR7qmSVQXt6p+Gf2TQTAxUuBX1HhT4FfxETh5LwxktLgAbB1vZ2tbW1U2Hvbq9bTY6PV1OTE7JrO2x8XHlMWiFtbG3vVBubW5FWOp1ONa4Wwfh4vl/am/eF7RHAjts7O5EOeCff7yo9EOq6IN4HC//4rj9tlQcTE+PVhGzeoSKnRehw6QhQ0WNr8jr5dVOvyYmJanJyPGzYLxBL3t7pdqvNrW3tuy0bd7T/eNiYcr+/sR+dQ3W8G+yrtECa6HRUR9T1xUUBKfe0vrFZra5t7JU9nJ/yDJHo8CUBuCGkt2Tfbb3zmfqecJp8TztgQnyxNekBO6+tb1Yrq+thg+npSfFXmaDyoH1cRfLlpXnLJSFAOuhPI9QP5HXCobkKkaAfSBO0I2gHnLZ92FO9QzmzsZVtCcqp2empakYv2pr95U1cgP9cCAHKBSyMPbJdmBogO//zlKWuOKABKOfP6Yqoq4ooLYUR9h/1YmSEhaEShDJkFAZq8NMw2NH34t7HOFQAWSmooUBK4LvenHFJzKMRIuMr921KFK6tb4S425ZInJ2drtqqyFP8cy9HZ3UKCgqOTR23rMYAlca0KgMqBNICAtHhchOgEiDsyHZralgXwYA4LKFUFHwvBfNeH6GSB3aenZmqZqemKgoEC8NC7rK949nPsp0G/PLKWjU321NeDyPK26/OoPqSSRbF+4PYIn9jY1LL1ITSgY4pjf1IH5QFSjPrG1vV0spqNa20MKfE0mqdvmE4DC2uhxd1Fuf+vLwa4nVKopB7IG2qNBsm6kYfU/L9tur4yPdih6Cnvi/hpHxPPp9To703NRlCQLAjro9LK0oj41EHpJcZ0Vhi9fuoECBfEeg0IG+tb27GO2kky4lSWuR+/KV+oDxBzNGGiA5mfS/1xv6eBz9FeSPBiSikYyE6KuI8rei8Iq5sYx48zt/On0CUqTIIbQDKh200gF6lQ4Azhm1lk/HxdjVRZcdQByOeZOgzXC7RlbqFeLN/78s0d4Yov/uuIycM9yoKNRDxAIVLH0EolB01GFS71t2I2ZuAIEAI7KqhER4ieYqyF+G7s/cFnJIANifD4xFAENDj3lJmn5IXAfHfaR3f00saweuwpoZjFuY7kUboPZ7ojZ/yKrzbZSDQ0jwO7EYPYE95uTWWDcTiEaaiJn/T0EuvYI4UUE0QQpBtiIVzrBcuA5ZGXgMlOB0B5Hl69PGqYVvsXwxI2UD5vqHG4Ko6jpZX14JFdArWaaDoLSpwyhFGH2Q5oniVhigMsrPw4itz6imuOUe41KNcuDB+cDiSQNhdZT2dgeOq01UMRMjRJGoLHMj3WT5wTMn3NPyzEzFtHDZQvUC5wWf9OfLc/mE0CPQ0kqiMLMo2327k7ygvBm6hdAREh4zSVXoLB3Y65Cv1RlvpCg/0zJQ6r5QWuypTYjSDyiV+d91yCLhz3kSexSlEeV5GEZCDKfepHkpgW9Yj3XAO4CFu6cV+GCpLg7L32d9jrnJX16K0RzuTMmaCTr4YyXb2+C7LESMnDAFHYR69Q2owRKEu85bGIoaJpKAUEQlGBove524ryn5+p8LY3XXj8LIkwmOvQwVAFgI7IQzxIOAZYCgowzdoMEYm7ysMBuOj4KYhSMNxRQ1HepYQFpMackZl4jA6BMi7iLue7E5od9Pw2eDXyAGJhCiUZV/2naAjiApb++I54FjKChoCDpebAG117LqhDqEJvbYmtsOG4+NU9xkoG2gE4img4wePIWU8PcS8ertyG/btS2MihpzWnUwMIyREcvhGSYKGShEkdFhyD/t3VF+s3w4QiBFAyrvjHY0QEK8o87UHHb90EOMxYDhwS/uk/dM7gEkpD2KYKOVAne9hTrvA/A9gHt0vsicNc9ICr50dOg+yXYiIG8za1A2ZThjCnXXFaW+e4xiqThok/dHJk9+zQ/K08Xi/4QhQVvLCU8joAeyOQO/IHh2V+Vk2qI2vf/yWzqHak6gDcSC1tABJtBy+sh1AOV7E6ZbqoRiyWqe7UdYYIyUMSQwYglckhuglVCNAFQIFf+n9iYSjgiJKA5UIUfHqe6l+4yclDN5jdSm9y5ZRaZSKoyTZEhdxlJC9S4jLOkb9VOKmD4LP7F6OoVAi3vBU1J9LXH4/DYHkud/LnkMH0pNQ2313v9IvMYbFZAg6CGhcMi8AURjxYLt4lb3zvWzbO1ffftiQCoWCh8rki7SifUtBFGlE+xEfcWW8mYaoWEo8fHY4mQCsYQh7ev3gR36PBrbyGzamQbCh/diH8oDKmqFCaascVkKHAsy7lCNKD4hG9tdhB+yZdqPxmDbjCovNytXyU+xX27jfzmOsUFenFc5hIVqone6dchRmcIQ7c0mx7/j4TjWFl78e/Y190vYaXqh9lBSUB+v5aNq/2CTSj34sHQg0FiI/R/yZlymn9+2Z+ZbjCdi62L/k38H8n/tlminzXoivBNJDqb9iG+mn/Oj3Qwns5XvloS/zPUPLM9+PqePvYL6fjE4g8jX2It/HaAGMXIJsg3kyrzN0eT+9sC3Sh44tdi/2zv33ywaiZJ/Bshzb4tEkPZJOub7SSVXiKpfi968ggBEVeMvyWo1+2YM6gOki0xpC3G929k3bsg8dCFmYRF1CZwE79AXKAH5TlLmv3qO+wOb1cATOp619R/njRRIgD5KvKPsJeHFTAxRvoDbKkDsaUTQmpxBhdzf3Va6PtFLMFfZWfKQd0hB/ShoIO2vHwbY752df6pEYyqproSyKc7blOWzl1Ic8TsePWNIYKWGIJTBeuO/JrPrM/BEqDDxH9BiQQdPQdYWgTF9czvuFMXtkQzMa8nIFdzQwmAYkYX8/feGcdcEQP/KHxqTOq5+qbvQ65n75OylAiZaGp44j0MhhYQH1ZcT15bb4yX/OSADbkNlo4DHnBK9AmTyOQb6wnbZhf0QkDUtsxnDEo/Jp2JTMHg0ONTb1XnoF09uE4GDOKsPaskHJLZTGAudgkQSGPFFQZfpimEEONeDEDF/jlQ0dC8PTJgFsSyUO94ldeXtlrCigld9YmIjeQ+w8oTTBAiQ0COZmtSCAWBPC5pFvc388TdiAxT9otMU+dcIgXiod0lkJ4X0cp5DPnag+SBshRGR3vBbkebaRVrB/xK+0wtDnclyJz+9HEciKtDTuYEiJzTCxyZ19u3M0Hp8Qe7IVgc4CdiY9sOok+Y88zUZsmvtusyHrjHrRGQQoKYR9OIa0EfNWoszA0ulxxvvAOWKkQp0OiKsE7F/mvFAWxPl1NLbnGFJOqRfKMX4/nsBevpeNyPfYKPK+uGLjTc33WltPm7CIzLQml87NTAdvYoZ5NNDI+9TLmSDqk2a6wE6bu5pioNDtpt3Iv512XU5PZJ7nWji+lA0Rt7ZFo5Q8vherPpCWlB7wUJMmSlmQHcv1jn47dwLYelzTS+gYnNWIgFmlhbBLMU6ckVZZpgvqk1I2ZHmR+b1cWLQfVR6wH20N2onYlc4qjssXe/NZcSo9OFwcgZL/sQEd/QzdLO0p8sMe/s4AAEAASURBVBj1BhagzG73ZCsJtWKTUs/nryoP2K+2IbZPu2YZwTGYkmPU6gj71wZWGUAnBHV/1j9d2on6TKBs4FjSSR5HGTRaaWK0hGFg509mQDIhASNkYYshaYBpo35j+eDoudc729JzkAYqiQsj8tLekaDYsd+E7BfGVyIkxK8Rb/ZO8Vv0AiuRRCrj+DrRZA9Ubu4ogTLplWtAwNJQdDg7gdJY5EgaXixKQ8FNYyuEWl+UZHLsE428sg+2o+AY4J+FQ8aJsNtU3CxyE3HXBQfHkZ52uhNh8+iMUKFE2iMtcr4YsqohbfzGi/MXUchqqqSRdns7fpuhJzPi5JqcHvpMd+RHbEAuLEE4s2BXSc0wjrCRWFKYZwM+G/LsX2xMeqCxtrrGQiVaxEgiLgryiDbjzsaf9pPYLKGlNWsYrkbgvKSNMiwxRITizYZnL84/piErU1pJk7QRaSWuz3YOgMf8UXaKQF5DYNPAoyxlqE7x+GNLAh1w2XDrBvPwDuh4BODBfYvo03aJCUIMNyX/RprK/JtzGpX/aczrfMRNM5HT0finzGFuM2ePjgIdS9rhekgzlEcsTIEwRchy3QTOQbrjnsrqyiFQ8ufYx3+OJkAZW6/qEDuBraSB7CxSQ4x8T/2qNEN+o5HYHziGxlwYs/6B9INNo2aPdEd6ooFYP05EcZKmOJbyBI9fpEXZNo/L9se0lraITomSeOv0QBqiA3Nb6WFXiyKRhrLuqRN5fR1+Oz8CtNGUzSItFMFAHj0u4GygHUi+zzobMZG2LXU45UXYTz9EmaMyhrRA24N0N76rrv8TznPcNfi3kwnsFZf6QJlMfct72irfo6wgDYT90nscGVjR00bItJDpITz60U6kE5h8X3ckRqSKT/+6Y7Jvj06ibL9Tg0d5H7ZPfRCOIB3T0jbKjp1enp9ynyGlimakwsGS89Jfeg1bFi/5DwNh0DEZDyMydpjAZ+r77Clk3DHf6wa4tnNcV57CbCTSG5S9fm1t3yX+moXsHPGneEz7ZiVV9zKpEtlRDyPXQJz8tlcI6diutmUvsioszYei8mgx5j2uk33rE/ntRAJwpWDWzEKxFlsVzFlAk6HpldfGPqAU6GWJc4Z2YVQaDNGAUIXfH2iksT/CbkmrICIIyOBsLzYtlQCrm1KBzNAbqaGKXFOkQ1UszGP8vLySDRN5qnRFUYIRT+mtLiI23qlQ8CD2p5v+C/PncyOALSj4ycuscLuolSGjF3hKHkMKb/XvlYCtsfHaxobsl1up/EPo6Su2I60wp43FkEg7mVZIgq1qs5fLpW9uj6ts6EbjkpVwx/s8juVcfv+SAAwpk2NEgIQYrLck6Mjv2Ib8pv+xVDllL4wRAngIsBtDx6NDRnbaz2/Z6CcObDnRzkdakL/Zh7qAuYrFplyVfqqDbKp8zzmnJ3nXB3UUcH2UJ9l47FUr6hSi/EAQkNaiHtJokShDtlJA4tmmIwFhqbsoJ/D7tyQg7JDH5sxbR+TRXqCSwCbYF5uStq4pvfB9Sp7IydZEbCeNke8J2JYG59RurnDKNpIH6ZR4mRNPukJU4s1kf37fT1sc4fA9CVA3b1Pey1ZRfiiP8oxL8nbkXRmLtmSWOyorZFc6gEoaiXpEHVj1yNLveStX59zKr9QTJa8i4HhR5pK3yM7x0hfaaNQnUa9gS3ZQoNwnj2JPymtexZkUtlZZEMeoDCAOFkCjDZ/pIDsDo22nDM02PtMWbevVG2MbZ+FPno9voxBGSxiKbRhJBiYj8gI5DYDtmns0zuoEwKayf5sVS+vvaUAlihiGpIShymGim0NUlAzC47dnR4wtI1MAlDCe1o5EQMKih5EKhnPHcENdV5yXxMfxvHSNJDquN/aJOXGjl2AKg+/1ToOupaF5WSAnU9jTEBvTdv28F0gXFPL8RmVPIY9dorBXGukPxEfhUJ4xRmFBRUCHAj28pLWuGvs0QHc300vB8Tl0ITsJsC+CkoYAXo7uRHqOOB/piXMz/IRrIk1Fr7b20xmi0Dl4Rf1X58/nQkDZjbyPnRAOiPgZ9eKn0DhYfLMfAgJbRabVBUxj+4iD/J7zVhGY0ehTOiGNKLFE+mI4GukyDiabK5DvO3gxFAlpweF4AiCCGWIc7xt5j4Y6ZS6Vb7El+Tzyk4QWHmD9JCGZeYx8jb3Jf7G/vmNX4iXvFm9xSRN4d+KxCBKiNADotOE6sFcMW1S5gP2yoVF7qGVzrg1PIOXHijzRpBPKjiyvstwpZVaUV9xHGWVyPAb/egEEIkvqT+kQIG3kiANspRPqD+lkXemA8hs7kr/HNbQ0jlE6iLJBuyIcprUvcRJPlPPUOLQvKCcUB2lqrpQ1ajA6XCyBaLMp3zNqgLIak+afPC91LnbC1rzTRmO/HJbMCsebMcWAMqKUA0UgYj3KHDqdKY84jtE/5HmHiyWAHcGM3bBHtK30PdpvrRzCSR4kr4YQrO3MvmOU5Qcur65DqBPq8ph0EAvTqEynzZgeRZ1R20v7vqO2O4G4yis2lO/ayPVF+io/jNj7SAnDMAIGltHGVVDnqpKZ+ctQABIDv5fGfynUo4GPtQ4L2P2w7UdtO6IEiB5uNSaKWCAxZmMm5zlSgJCASWClAjnqFN5+OAFsi8bPQj0L9ui9U+VLYUCDrwR402gn05dFR8jo6UU+mBZorCEUQrSpQscTgDdwUl6eaDDIlohFfudFZR9ejK1JpbXsjSJZYFsardie+S7MSSAO0gaJjGO59lxNi+vbjGueVG9zlCbl4v1+wQTIgzpFvPhzdKCC6N+Pxh5eBuyfgqQd3mOGnJEGKXMinej3kmaoQcpD2rNH8ujz+ZeagPJJCriczwvrIgqjHKXhJ1tkQ4DFiDK/wZ6GPKE03PhchBnbyIPxYPt6P/J/sSl5Fc8jjb0pvaKk0B/KEjp9OB/5lzg4T7E3nQSURexPvp+dyefmIT5JQDkfLgXrhuKK9MeFOXwHAnUdLFvT8McbOD0pe2luMqKBcny5LYHPlcmg5PXYT3alPMhiI8uN+MwWPkRiOXg7Wc7kMQd/8beLIEAnD2V0NuTXI98Pnod8S9kSoo/Ouv6gfE3eZoTHNT0vOcoJ2nUqX0gf/W03PpdXfxT+fHEEyGLYB9tFB7xGdoUwlM2xPeV3tPtDHKZA5HuIxdq2e1en7/xGXJWeZauve8cSV0lL1OPUPbyK/SnXO50UjMRHDidd0f7nRfrKc+6dbWQ+DOSIy3/dkShk+HDrKlNisB29GPZXEkxJFGE4GYqx3y0ZXvb/IlBoU56fJmSCOHpPxABeIHq4Q8DoOne6EoVqiKzv5nCVvcRFMvIjM46GecQvFAhk/Mj8si3M8SbwHTe/pnpEwFY0GqPxrs9k/F319FCAYHEKgP6wo2FqiDQalRxLgXNtblqLl8yooKCpsD+n8dPicjwvbXNL84WU9miQkh6jaNCxiE8KBAoHhpvOqXKJxqF+W1ODkEZodBKokKGBOKUGiX6K1+B19V+jP58XAfIevHmvcz9vvAbSRTmj9oyf+UtnD8/N49mYVBx0HLD66cK1mcj3zHPmd9IcwwoZXki+31Y6QNy0wmNwxInKCf0epqCipUwlP2GrPXGofBxD+KMBSO8x++FdnIh8nGIs54EiyCg3oqKP4yQM6/zJfpid/IhXBy8A+ZYynHw7q1exFNeApwBRiO25HhqP7M9xq2uaS6a8zbmmNDx54dpsDh2sr53RBIhLyqRITSXt2dbfnoCMjt2ZE0Y+xY7zczMhEEMY1g1A7FlGnrDwEJ+xr4wf1xxlCAkkvx5xH7K2bX0Em/PfTBlBfi4dQHweDJQpdNzuyu6UMWkfjJh1PXmdsoQ8TFsgRwhg6JwrHGmgRFrSQvnu9wslAHua8ggv9dupzbbf6be7Q9uO9mF22LGeR3QCKI/L3Koo9D0K9Ho4t+zJEG/WIykjPGhT0p6kg5/2IubdDY2BMMy8HO1PxdXT3EPSDtvHoi2QjiHSFtdxIJ1cKJXzjXz0hKFgY4hQ5rFgDIZn2friiQMQlkx3f3rsWIig7h1SAsHw5xmIjoRIYiHuTBB5hvhNf/gtWxjRJIjElt/P80qaHxc8ebFaHGmAjBtemUrzdqayx6hkVHrv89kyOTYc8sXLs08qMzodC1GBKG3RUCg9PsXTrFNmz5IyPJUEhRJVCOmL4SoULoQslLLjgoZEeCrxcuqimbsanRY6lnMQYkicCpUTWhaxr/9cAgJRrqSnivRCQ5HMTKdC5n2yuTorEP9Kf3Q00HsdFY3SKun1vMufS0Dlwi6B/LTf0Vd7AeuGHvxpuLOVlWjJl5QJ0eirPT+Ix03N7SN/lZEa2AIxXwRn/Ca7YKeIT+fcVnmOB5F6pQREHWUN+7AvIw+wJ/ukZzJFIWUH3oVsTNZ5X5HwnXNGR5LKL+oMJRWH70FA3MmntB3CJrILZXjJm6Q70kiIfuXvbCBm3e2y+nsYbIhzym60BXh9Edi2t5k2G3tEosgyhLyqVylTSA+RYmK/L2Lzhm9MIOoF5c9iF+oIOv4oi9PcmVejM7Aunym7o2xWXt9r16kIzvUFMjnQnqNcICD2eOoA24iXc1GHUCOU0eAlOZA8yuc4eOBbbhudvyMnDEGLgWiYM4SvowfeYmwKbirn0itMg43v0XBXommrIp9Szw+NAh6C21cqfL21dD3ZQ5ECsFQuca1KIEq/2WjkrHVhxNteufT1V3ClYsD+FNoM0aThTU8/di8ZuDxDLBqO8hbEkuOyPRUEjbr+xh72YHscr9/I3hP1EuWZxmh2ZqARgaeBhh2PoyDv00BkDiNLJlOgUEBg/2hw0NOoYyLNaRsFRzRK6wqHNMq1MNco0wUp4mDxUp/ab5eAQDYyssIodqfyoLJAGMYCR/V1IvixLfPOSJdtLTxFGUU6K3MULsEtXepLIJ+TX5RrorFW5olHPhdzhDefyXMpuOiwIX/mEKMUejnUlBslJmxFnCEgybM6mLwX9QZ5WeVFu3TkyIZ4AkugPEHwEy+NDLyUnL+UPXymM6g0PgbLDxqZEzoZD2EuotG5vdD91u9ZVtOgHO+woASNxdLQVFqRYSjDsSV23d0qAiPLaP46XGICMhDriVFml0Z9/9WS54sNyYPxWR/4TDrA7nv5tBYg/OZweQhgJ9rWvPdqDUCbKspy2v51m5B6N5tV6VTK9pj0A/UL5b+OV82wVz8Xr2CIQCWU6ABWXUBVFOmmL+0QL2XF4eHIHw7f/RJtHUlhiHEiYBT9w64M38LgPT0WoqfnlnTl4qVA39lRg0wHUDhEJS7PYQq3izBaNv65Nhoc+Z6JKb7EBv2JG+AmeF3EdXCiZgd6d6nMyfTYk0xMBkYolk4B3kkTNBQp6EkDafuDbDBHeTHxGNNhv9qE+zuzXfvG7/XWFAvZO7Vnyvp4zlXSQYkk4tWXtDp/SQMOl5NAaQzuXx2W3rN5bTpyffxLo8bOUdeoTGIedEvPuWCeCmmQ9PhlwtqP358GCZCHaKRnY43P8bgJLTRAJ08M246yQGJLHYXkLwQZ8zl3d7fq8oA+3iIy87ED2WGTnT7FnnTQUI7wLzLogKl4Fq0GnkVDBCEaK9TpHdsTKEMIJd/n1tzGX77z2vs9dhjciz0dLppAQU96yYZiseLBM5PeDrNQ2VbeDx6V30qdUtLFYft42/kTiDqfzheVAzzHliGhg/Uwv4UHX20IOvVZHHAvyOhp9zQ+Nj7OznvH+cM3IxBFbf0HW6lLRw6fXDhqTFOGeLRER+29ruy85yBS+zC8gGozlvRA3qSTj30owOsifK9Zht0pr0uZfVUSwsgJw6zEZS0sJivyFkaW8ZQu6sqZxpsaEAhDGZw5IRtKFNGTIOXPUrIkpm8e+s+5lwK/+VU04oSl8GcOJwV7t+7Jz6F72auPvWlQRgWgBhxCMZ8hlQgOmEBfSFuRomSnflMVYLGt/q0ULPwWx3FsX6LKfeudD42txOr3y04g00V9lZFOZHOVIWwnHUTFIcFH51QJbfUgMC6hM5aLDyEKEYe58EykjrKr348hUPIZDTkYkqfx2tHJQ6cQWW4qOn60IjEVgPIa+Z05gnQU7XRzNAGn4Hf2Jx4+YwuaAtiR7Ft6itmX8+Zr36adWL4+RwrwW9hUcTGklLCXTvSV8xwMuUGxxr9oaLhcOIjoW37DRpyvtlOks/rzaS+D3akxDg38QFlx9B6HHuaNX0+AYYJjypeTKgOuad4oq8Fi6P48GblwL4/r5z5d2H8FZ0wS/Yf68wURoKwmlLJ7v6yWiFPnYPxM3tOOxXvI6sKM9ChPIiAxYFtG9rBCOaNPaEeWujxGD2gPpv+M1XqB9HNV0sPICcNw78pQ0bMrw2PIUsmH4cJyOTyIB8qTStgnElKdWPQWBs7CoTa29o3d48fcIxoM2pd3zndVEkXAuuR/KAzIvOENrFcKY0jn6roKg2gQZqORXv1oCNIrqMZkvw0PfFZlwtAhlhinwYl3ea+hqHOxL9+jQVq/U5BwHeWdVNMfOCaP7N/qz9+NQBokbEKRwIsQdiXz1yHyO8KjfpVyIn7WMXRK4LGm3OEwvjOEkGeURQNTO2allWUH8ZUeavYt5y3n8/vRBJJVij0WgWCO8CY9vFTyyoedDsOJ8CYiDPEYYo8cTUADEfaUC/qkHuR6DqK8BAw5jbhlP5JB1CM6jriIB3txPl4llHqA76QJBCj7lTIg00M+5iQbIdQp2XlAiqDsiFEsKl8oY+JxFVRQDt+VQMmzmRJOcynk4XwdaI+ELbNQiXSnOqTYOaxMYeHwDQhQJ+cQw3HlT0YW7dv45NOnBbXf3oeTj/Ee35IA7XGJutrxQ7nLIjNltfnoypPt+h8sHxogtvW145SHi3BEICqpRJkeHQskIJ0j8nf9bMST7jDzeP9ebBnNRDRSwjAqZhkwh4hmJUvlPKkHnrfkOo7qutiB97rw/sI22jUL9hR7NBA4mkQwFoV3NihyW1bgVOokrrMUMIrS4YII0DALryHeAYaNKV3gIaBnqAg4Hh/A6oAIQxryGn12aMCmRWRubedKtzQOQxySJnRUpAWlgfRCZIVPeqCBGY1DGqGUVg6XmsBe8UCmVxqiTKFyiHmesjLZn3KAiiKGoOgZpQwhZN5ZlhkpCmls8DuVExUTvdOsYln2SbGp33U86SjEpNJICMMvCqRLjey7XxymKkItFn+RMKSHl9w2NiYvrPizjDx2ICAMqRd4D/vKTuTNnpYWn2nXj5CIYafsnWU6+7YRjLI9xzJUlPKDR9YUcw12GHG+FPp0KmUnFXanB5r5z6Qrzk/gnfRC+cEQWF7dHg+4dxgtAqQX0limm0xfiP66Y1k3Q8lCGZLtFFY1zXRgW4+WpX21l48AxamyWnSyURcwQoz23a46BtXKUztO1xx1e1477cRSJ8fn2JwddrTpeZGHSx2TTxSgnk5HQpb55GiFEzOw4mWnE/fL6C7z35EShgUkiYNKN+aY6AsN9F09kqIU1rGftkfDDcMrJUVhrj97iUS2bsXjInJbVNyqtPutmtvq3l3iiHZHnUjKxfj9uxDAnmR0BByZmUqYBhkrB5Ywq50QjSEMOYAqe8B8EY+2RQeDvANU8OtKBxQ6eCdo8CEaOZDHYrCdBUXI+xQeCAS8lgxLU0opp/b7JSSQKSDFGTZFbFCO0JkQQUalfGAbti8Lx7RazCvLXUgvdAbgSWK/zXpeWvQsKu2QVIgDoVmEBGlTsiWSXpY/lxDOJb8k8iFewbGx/YWmyH/FHpEHga8Q9YE+Y2PqBMp06oLI/voeIwhqg3I8NiH/szgZgXIF24VNaTTE1qxziieQY3JlOu2tODk/8xo3tjRkaTMbLCxIRN3DNVBn0YghrVGGkHaoX5rQiKjxXJk3bF+8ytiS/E3dwMPRSXP8XuqPTdUV2fi8Mnh8oyZwwQRS2FGGUq63osefMlYdgarTyX8RVL5GJy9lucphQpTbdR6NDeVPXfdT9kdFoYKZ4pnjs5jO48vu/e95jIpy7UKZHtelVe5jEbOokrRHqUT6D7zEn0dMGAJYhXIYNg1BoaxHBKqgzp57GgUEjMRvVOQYioY7jYvyXJPcjUo7GxAU3giLcVYP1EqnBBITcdDLy+9jaiA6XC4CpIVY2EMVNI0s7E1DLOxKY02ikd7/Mg/oy6vP9ILAm9YzB0krNO6o2JdX18MzQboh3dGw41lkrHa1d141JiN+EpR14Zd4L9mWqBhUFiAE8DJRsSzrWYOsPol9MSPbohGvhj2dTwwtkRys7wQvsZ57pmGjpBWOYzEUnlWImCBdkF7waJGGovGvI1kAAUGSqe2SQRmByyFPs0pgiqyspGGNHWmks2JpKfuxIZ+xA/ma37s9GugaLlSXF/yWDQA6eHJBGp45SqCBv1rbjvKEQJx0FFBHcA1l6DCPyWi3cshpb0aNAqWB9d6mnk+6WS3pmPXxFAv0JHM86SpWOuUW8jYifv8ZHQK0JaJDkPwsoU8ZQSfA4nLOW40yROkmxCEdBUoTzvejY19f6eUmgBDLejwFF2Vut6dylkfSSQfQ9oug8pXHkJH/aMdT4NIOpGO3dCqiEwiUz7TzWy2V78rAxE+bP0SeHnlEPc62wSKbbdG2rDM410K+J1A30SFM84H9RimU1s5IXDNso/IX6TCs3umRxegYkRVJ0wDaUYYMYajf2Je5KIw3p0EQcdRx8R0DFhHIcfQSEFL902OQiYLzR/y1kfU12hYlvthc/8ZP/SESkH7LRBeHubLoB3Ts5+RGo66IvrQDjTp66+W1izlGaf/SYGQ7DbgY6in2mIZKnfSQceX+xEUamNagZBr5nQ7eoloEhjBQL5TOQ8OOnmGeTYiowFOJ54jzlDQTcSudRfrkhIcE0kDsR7rS8IeSJg7Z1ZtOSwCmeiEQIo/LxpHnDhxfpwHleUQa4o7KgMY+FUA8bkImy2GkpUOJeOv0ovixaAxrlNCjwsFDTRykF4aVUulwDTQWqSC4JvbvjWdn04HL8ZdTE8iOvaxsEXqU13TIlPxNORBlQsSYdmY/8unE9v6KxOTz4jGUaeqgMkRxzWjoKPGSx7d38O6l95jdiBt7IuzI75QfRfQXoUipnqMM0hO9tq7GisqMIkJjTozSCsfhYeT6Sjmxdynlkvx+SgJ1vo98l2U7ZfVJPKOsEH/sGOXEfmLYO29ur+sLxR+2Usx0FEXa6+aCR5yNemNVnUNZlucq2TQSs0NZe6j9UWytE+6dwx/OjwBYsWdPLxIAvE9MCPXpsQj25hjyp3Jm2PKwCPr3HdOwgWhL6Fib9fxseVRMhTH5DFuxEjUd9ZnX1FbXPPKxmBMYEiDqdep2hB/7l/Y+ZTaBdhvbov7XZ+pyfiIt8Bv1AS/SAcdz/jwyDo/vbKd+4hjSDtey3cKTmWUTq6UePCqPvcx/R0oYAhLDYAieG6f15TJByBAYHqPovwIN7nq/khhkHBoFpSJgLxJXPn8uvQT0DmNMAoV9JCTZtKcKhDgjASjVpAeBa8neB47oqYDIBEIBkXEQTwR9zcZDToKmQZC9DAP7lf39foAAOKmImfMDN+xG4yw463OkB/0+G6uP5eqDNMZn1PAn0wdrxYjty2IS/B7pITItv+kkSh+cgwJhi55epYcsFLKTgMZcDhmTIJQonJqcjDi4DvqSiJ+hq9c01wzREY0/xcv1lxDXrmvFgxSdGToX91bupezn97MRiLwskY7Xh7QxXj8rrj8vFjswagARQC6nIc+L/Sg6Ih4di3hgaCFlCumE9FLsRDxqEoYN57XqHV4jRGIsea5IsCtpYVrpg+tAvNCJsH98X4I4221e2b1hThnKYlLkL0RWcq09sdqBfQj5ThlBGaAyQ//I99iY79iSMqM/lLIBe1PWk4ZKnUI6Kds4Z+lUIA+TNvid49nOnESioGOAayRwfq59vDNRjU216g7LXqQv5iISR386jYP851QESr6HO/am0y7qBsrzgRBb9AfWaSvNN1W64DP2I64S+Mg28u/ubi4qRXlAfULa0SGVElW1M6N5xfpH+iDlkPiIn07oqQmJFA0p35zAg7Ab5UUcH/uws8N5EiBfk895xyTYlc+nyVu0EUg3e/WyynCOjzRBYugLYV+lNdID8Xd1HB1QmX4O7tt3mD+eGwHyWI7yIO/FqD7K2ii7qX8jJ8bZsBU2on1Hvs26PEVc7KCk0lOZju3qw/eukvxP8d5DOyg9sA/5mrK8pCnetQRBlD2kB+p+rkmbRzqMoDBM6GRiDMcjKeitix4DFcJZscsmGEwGjcI9Kows0DHkns1iSAgNDv2GKNS/WIRC6SoMHpUA59s7Io7NRkUKFOLnd86bz1I82OAoqYP9JnTNRMVnEtl+rGUvvx9GIDKk2JVVH+EdlT8M9ZKZsqKXMKQQCK+N3mmM87nYB+40LNP7UPceaT9CpAHF05Kg45iNrU61vr4ZHgKEIvalYU/jA/GIAKGQIU4C81UpMDinBg7unTvTSuwSf0oFtCtdQpy8SgXk9LDP6bSfCjNsim13p7MHkM6XTCMHY4r0IvtiQ7zMpBfSF5ULvYbYi3iwbeTRvuxc0hx2xuxq44fNsR9DyRCYadPsyGB/0sOU0hR5PxZA0rkczk4Au2EKGn4IQyp/8mLkSfEfxMr3FIZZJuzsTCiTymbkbx03GLLBn3mYPMo+2BMPYYYUE8wjxKZcB6KB6+JcUdcoXdE5RZpiLuH6Rg4vLr/ncOJsPFDPpHe7Tqc6p8PpCRRa5NFJ2b8nYZg2yE4c7HJYYCsv8iy2Io/ymWMHj2EbHQGcgzqBz2zLukJpRdt7SouUNaSTzW11MOkf28nvdB4S56SEIeUC6Yb6YvA8h12nt52dAPmuCDuOJv9jm9ME6o/SCdBfL2OrwZSU5QP2VRkUHiVEJPOfsyw4zfm8z/AEZJLIQ+Oa2oXNt/Ws8rFt1eGqvxn1Q3uNgN3Iq+RZynPSQ9Td4d2LXSK/qt8ntqMhsjMvLU5e5VhCCD6duLQXuAYCeX1XdiduAscXD2Pk83q/+HGE/oycMCxsMQxG5waigFYGLY2ykpNLIojeAhKD9u23U3xWRGF7Eg1GjsZ6Jry9jK7t/ceV7RQQOqpehIDEmJVCucbyTryRwOp4+JyJpj/Wsrff+wlEwSzbhXiqG09so6KGKwR51gyZGG9dybjYqL8ByDFw35tzyLH1tv7zcRyZvNVSXIoTAVEqCo6nMUcFkueh0Egb6hJjWwgOHU+DtdiZ85SQFZBEguImXnqSaZw4fA0B5Tt129FYx36l4Rae+T72e2fQtkgfyrt0NmCn4r2N7apssgHHEfu2y3SxF4vSH54DpRVtIg4afpiUV6QVbeuvkPZj2o/Dn05PgPxOvprRkO9grDwUnPV+WCAdkFdJG6Unt+S1/jxZjmUbx0TnkdIRZQ6eYELaWPle9ibvtzU0MOM4aFWuJ55XGcfnkFeOz3KFMgEPVNZV1B9ZN5zOq0E8Dv0E0l40yovteC91Q/+e5XPuJ2GosqIcE2W17K5D94O+hC3VwiC+3njd4bSX1rIMiXpJ++Ixmu7Ksxj/yP+ZVkg4xE+CLec8cJ79M/rTkASwI3mqrbw5pVFkWa9mnqMcP00gDsoGyvRSL+N9PsxWUQ7pXORpRAD7cyxxOHxLArThMl+q9RUrSpdO/HIV2Ao7lTYBNuo3E5+jrlcW5X1Xdo2g7aQFjiWwsA2BeCi3+dcfsnyn3UBazF8oP9g+iumipURd30b/bY7O57z6vIWDd5LzAuNOSAwn3NJh8WQC+vLI/oQVZy4EteuXe++fuKAexYSyfxff51Nht392Mtz+Nz6xD6bY33z4Pv1HHWaLkhYG3zlh/OME8bk/Jp2fr1yDPnBth8Wdu5QEs3/8Ufvu7+FPJxE4TRrpj6PfXpFyarNgC+x3WBi002AaKd8zfZR4yvthMXrbWQgUG2OqYqJBm/THV/bv33bc/uxXyhEy9H66qOuTOt8fF8f+8VkeZcGQ5cHh6crpo98+Z/38pY1P5llsdFIaGox70O7l95Lvs0w5aOu6WIn0Onj8We/V+x9NoNigf4+z8C62PM3xZ9m3Pz5/vhgC/fbIPJi5bt/+x5cJh6WdvNJSQgzG9+V9fBnH8ef8MobLs2XkheEgyjQOW/uE4eBOJ3wnjsMr8BMO9M+NJUDBs1/INPY2r/SNnZeNzyueK22MS3Lz2RzQxXxl/neauCQG/QaX4fbDN4DsU5jACQRc5p4A6JifGycMj7lX/2QCJmACJmACJmACJmACJmACJnAIgdMNwD7kQG8yARMwARMwARMwARMwARMwARNoBgELw2bY0XdhAiZgAiZgAiZgAiZgAiZgAkMTsDAcGp0PNAETMAETMAETMAETMAETMIFmELAwbIYdfRcmYAImYAImYAImYAImYAImMDQBC8Oh0flAEzABEzABEzABEzABEzABE2gGAQvDZtjRd2ECJmACJmACJmACJmACJmACQxOwMBwanQ80ARMwARMwARMwARMwARMwgWYQsDBshh19FyZgAiZgAiZgAiZgAiZgAiYwNAELw6HR+UATMAETMAETMAETMAETMAETaAYBC8Nm2NF3YQImYAImYAImYAImYAImYAJDE7AwHBqdDzQBEzABEzABEzABEzABEzCBZhCwMGyGHX0XJmACJmACJmACJmACJmACJjA0AQvDodH5QBMwARMwARMwARMwARMwARNoBgELw2bY0XdhAiZgAiZgAiZgAiZgAiZgAkMTsDAcGp0PNAETMAETMAETMAETMAETMIFmELAwbIYdfRcmYAImYAImYAImYAImYAImMDQBC8Oh0flAEzABEzABEzABEzABEzABE2gGAQvDZtjRd2ECJmACJmACJmACJmACJmACQxOwMBwanQ80ARMwARMwARMwARMwARMwgWYQsDBshh19FyZgAiZgAiZgAiZgAiZgAiYwNAELw6HR+UATMAETMAETMAETMAETMAETaAYBC8Nm2NF3YQImYAImYAImYAImYAImYAJDE7AwHBqdDzQBEzABEzABEzABEzABEzCBZhCwMGyGHX0XJmACJmACJmACJmACJmACJjA0AQvDodH5QBMwARMwARMwARMwARMwARNoBgELw2bY0XdhAiZgAiZgAiZgAiZgAiZgAkMTsDAcGp0PNAETMAETMAETMAETMAETMIFmELAwbIYdfRcmYAImYAImYAImYAImYAImMDQBC8Oh0flAEzABEzABEzABEzABEzABE2gGAQvDZtjRd2ECJmACJmACJmACJmACJmACQxOwMBwanQ80ARMwARMwARMwARMwARMwgWYQsDBshh19FyZgAiZgAiZgAiZgAiZgAiYwNAELw6HR+UATMAETMAETMAETMAETMAETaAYBC8Nm2NF3YQImYAImYAImYAImYAImYAJDE7AwHBqdDzQBEzABEzABEzABEzABEzCBZhCwMGyGHX0XJmACJmACJmACJmACJmACJjA0AQvDodH5QBMwARMwARMwARMwARMwARNoBgELw2bY0XdhAiZgAiZgAiZgAiZgAiZgAkMTsDAcGp0PNAETMAETMAETMAETMAETMIFmELAwbIYdfRcmYAImYAImYAImYAImYAImMDQBC8Oh0flAEzABEzABEzABEzABEzABE2gGAQvDZtjRd2ECJmACJmACJmACJmACJmACQxOwMBwanQ80ARMwARMwARMwARMwARMwgWYQsDBshh19FyZgAiZgAiZgAiZgAiZgAiYwNAELw6HR+UATMAETMAETMAETMAETMAETaAYBC8Nm2NF3YQImYAImYAImYAImYAImYAJDE7AwHBqdDzQBEzABEzABEzABEzABEzCBZhCwMGyGHX0XJmACJmACJmACJmACJmACJjA0AQvDodH5QBMwARMwARMwARMwARMwARNoBgELw2bY0XdhAiZgAiZgAiZgAiZgAiZgAkMTsDAcGp0PNAETMAETMAETMAETMAETMIFmELAwbIYdfRcmYAImYAImYAImYAImYAImMDQBC8Oh0flAEzABEzABEzABEzABEzABE2gGAQvDZtjRd2ECJmACJmACJmACJmACJmACQxOwMBwanQ80ARMwARMwARMwARMwARMwgWYQ6DTjNo6+i11+ij+5T6t19L6n+aUvqtj9K6M7zSm9z5AEBm1FNF9rr/NOT0Pemg+7AAK7u5liyntLhQUvh+YRKDbmPV71LWLtsDm2L5+bd/tX/o72bF7bvx/Ifr4n//f/4s9NJpBlAXeY9cB+OmjyXfveTOBLAo0VhmRywmBDviA4a4Mvo1MjokTQ/143Ivo3+fP3I5A2P8JW9WWd1f4ctt+Y+PLehonvy1i85XsRwLY9Gom9XrzTHmy32xaG38sgF3zeYu9ut1t1u706b++GvdtjY1W8bP8LtsL3i5683pPdu+R37N8nBjqye+b9upPg+12mz/yNCER5QFrQi7Ye30kD7faY64BvZINvcZrSNjzTua5g+75xwpAMXTI2hT0VQFFz0QesFh+N+LF4V/I4weh7celDNBxLZBxKn3L8J77Su1jez5T0vPM5EMBWGDvsVBfupcLnF+wlM4X99bb3nd+OC5GmtEOvR9rKioP9iSPST6SnbFRGrPEDPzpcdgJZXuxW2zs71db2drWzvVPtdHdk1rFqZnq6mpqc3Eszl/1efH0nE8De5OOtra1qc1uvTb22tiUOu3HwmCqGTqdTTYyPV5OTE9XkxETdQFQnwcnRe49LTCBtT+N/t9rY3JTdt6pt5XdeCAIMPKZOgbD9xHg1IdtP6p1tLV6X+N58acMTIF2Q/zcoC/SKziKlh+npqWpmairyP+WCO3+HZ3xZjizl/54oOMWFYfe91yn2b8IujRKGxeg7yuS86AmmR5CAZijGpTe4o56g6Bkkw+v7YEiNoQJDlUjEtZNxlfiIsT++7GHOnmYXIoM0L/57sf2evWT7Xoi4WhrKoIhCKvlif3oEsRWi/qiAyIx0pPgyXZGeEIjRjog0QBzFw0APY9uVyFE4L932nZ1uiMKPnz9X7z98qhaXlqvVtTU1CCernx8/rB7c+6Ea77RDLFy6i/cFnYkAeRnhjyB48+69Xh+qz4tL1eelpRAHuyrryb8IgrnZ6erO7VvVnVs3q+vz16qFhfkUCGc6o3e+TAQQfyura/F69+Fj9e79x2pFeX1jYzPKAOoQynE6hOZmZ6t7P9yu7t29Hd9nJBIOaydcpvvztZydQLYbeirz16tXb95Wb1UmrOjzml6PHz2oHj98UM3NzVTTU5MhEM9+Bh9xGQhgZ9ps23V9T10QouC4i6ubhZQJtAGoG9IBdHR78bjoRum3xgjDNDxCrqdKvqveYPX+SxySEAhKBntG7cjIk+OdSChSh6rwY5eDf5RwQhTU8W3Rs6i4iDPDbsQXQkMJZly9zOO76lUW0bGxtuIuHqSD0frbxRAgnyMKt7G5bIW9aAhgw5I2sBWvcQnCiQl5BaInSMY/QhjGcdExQJpSnPIqRe8yJ4sUlaIyhKbS0USH7R01Lmz/i7Hy+caKfbd3tqt1NQxpJP7x5Fn1+s276sOnz9EwnJS38PbNG0oekxKG53tux/btCTBMGK8w4uDlq7fVv37/s3r99l2IRLwFlBd0Fk3LS3B94Vr168+P5Vncjgudm5uNTiA6Ax1GjwB5nQ6+5ZXV6q3y+p/K638+fV59WlyM9IAHmd/pLMbWN64vVH//r99Upo9X1c0qPMfUHQ7NIhDpQvmeDoLnL19X//7jicr/T9XHT4vhVaaDgPbihDzHlA0Oo0mAJlvW9zvV+uZ2lPV8Py6Ush5RSLEfjqDo9D/uqGb81pjmTogCNdzxAOyogI8mOmKNFl2pyyNx0KRXz7H2Y0gJ3/g5RUPuyNYQmNonxKC8hQiMTkeiYjyHFJFQSrrineEHkdD0he/hOWqXEzcjsVzGu8iCnUq/q0af7FULdzzCrTpDYw/223uXzcvwIToIWrxk0FIQcJ+kDdIA6SQEod6xJhVEFBJ1osp4sxOB/djM7+lBtP0vW5ohDfR63WptfSNeCANeeAs/fFSD4POiGotLYX8ai5GnlV4cRpcANqT8XpXNn794FQ3Ad7L16vp6CIAf7tyuxigv9K+rtMHQ0h3l5SV5j//ff/w7xCGNwgV5DudmZqKhOLo0rt6VM0x8VZ0BnxeXq7+ePdfrRdQX89cQgPOyZzaDYvSAOg4YZkr9gFd5fWOj+vWnH6vWz2PVNQnGCdUVFojNSUPUAx/VEfji9Ru95DF8/yFGjdCBQIchHYe0A7IeaM59X7U7oc2/7yTIUYQp+A62+wa50CakLUlnf44EHNyjmd8bIQyj4lfmxUuEOEDs0ULH8BTkpSFPBqdXkIoCwbdLYz8a8hpWqiPC08fRakSw36biw/vIvLKMj7knKSJwKdPDXARknBdBigjR3hNyHSIOHS6WAJkdW23JluEl1jt2H5edcrjwWNpERqHDIDsOUkCSDmgO0ktMZ3C/MCQNhCisPYV4iic17whPI6KPxkFJJ+xHWtlRo5J0wkv6MfYhfTlcJgIMDc8hZR8kBukh/ud//pBIXI9hhgwjWlpejrKAIYfk5fxzme7B13IWApTJLDDC8LAnz1+G2KPcpoPgp0cP5Rn8MRr9lAPr65vROKSz4KlE5Ju378NTMDc7E+XDtLzIeBAcRocAw4c/S+S/VOP/9z+fVv/7r/9oiPjd6uH9H6q76hS4q+HCDB/Gm7y0vFI9k93Zl2GFv//1NEr0Wzevq0zHa5Rl/+jcva/0OALrEoavlcefPnupUQRpczqMEIV0CpB26HR2HXAcxRH4jTogynwJRHX6I/JiKpmcPXQIHt5O45dsx5Hvo314+I4jAOBslzjywjBFYYoDGnwYn4oboyMQ8PKF4cPA+/PJ2G+ny3G58MSYhNzu7lj0KpBwiogg/vT+lPgkIhCT+tfTh7HefqJCoDCvTfVLHNPT0MKQCVckMZ0t6Z3P3jT6spGXvUCR4WX3Cb0QbyHOtY/+R8YOU8govW06CWR/pQNemkBStbQTv4fg0za8jwhCbMjwU9IVaWpM+3Iezl0WHUKgSh9qW3ZQZMETZz2i0Dmf+3cspyeAnbflDYqhhOodfiqRsLyyUs3MMKdoRrbtxDDS4ikkHRDy7+nP4z0vFwEWE8IzwFxCvAN4hO/evqnXrerRg3vV/bt3Ig1QzuMtZNEZRMDK6nr1SR5k5pw+V6MR8cB8w3H9RiPBxfrlsvNhV0MepgMQ7++Hj59D/DFf7JaGiDOHjKHi1+flNVRHYlcFOB5h6g1GhiAKX6mDYHFpRelgKeYashhNjEI67GTeNjIEGCJOx997jRx4qbqA6QPke+aUvlOHIZ0E5HGX/SNj0iMvFBtSDtTVedg12oa05/YE35eH0+6Llr7SQbTz4ltsbPyfkReG4TFSg29Hr1h2WqkAT9FU7dmhsi8BMUeCIHS77eg5CCGnEYAcQ8IpohCPIkKPwFATvEWIjOg5iK0SBYpvV/ERJ6sYlnloW2qIIEgndoWXBkS9v9/OlwAZvtgfu1GQlw4BPLt77GsDFEHHfmX+aR7PfFHFNlYPN63jTe9idjSE91npAIHI8RQYKEm8zPldh2+3whPN8BPSU0/XEKnNaeB8DT9kbD2JfIaJseDIsxcvq3/8+/dYVOSHO7eq+bm58Boxz4RGIKHYdcjT+bBLQoB8vKKhYdgVzxGeQ4aF/v2/fwuBcFPDCUPsKU/PqB6hk4B5hghIGo6IxecvX1Xz1+aqR/IysThJdDi5ZL8kFj78MqjPeVEvL8oTyAJT5GlE4UMtKvXL4x9l09kQetTfDDejk2h6ejLKAuaZbe/8GfPPPquDYEH2n9dwUs04PPyE3joyBBCFlAXMLcc7zKJjd/5/9s6DvY1cydqtLFk5WJYtx5k7d/cL//937LPP7rc3zYyzJUtWDlb+zlsgKIoiFWxKYpMHNsXUDXafKgB1qgqAnEWMBdgV27u7YUvEUF+au/KFNkSAfkBf0L55pg+AF0RGmchhWOhNjPTqx11mw5WeGGZFCNInY7xHxj3kgEePojq1xh1CRjFQCsgcDzwJkAoGkFAdvYjIH5/pH56CUCIRvSAWdT1Feqt6+qhHNEAkM6WYpno490xzDasKxs+4tAwB8EcufcKfBC/kheyzA6D+h1gx9KT3VHqRvokOQzIP8esjnpP8UiQR/ejTwRBCjMGL9VbkGjJmwZm06hX6lOvoQSfP9GNWgHpRPNh7+gW2oZgYHy+eKGr0RKsPjla2pmBuCdEiogwunYJAat/0xTgA5mX8Ma+QB/PGhodYkj45DPvViHEqIX+I4LhWJMRJyKqFB3IqRHZBp8DS8feRenVkC5lnQZkp+no9iAwR/R1W9LDWRmAuEQVnQnynjpu+PLaykU7gSHQpLwLZ3iNlmNRRVqdFtnmhMRxGRAwZ52v1orx37CsHAZqtmnEU5MoDW5EHJcua1m1TjSUUS14wzREq7J/bQbCR7ifjr5GI0QMeWSnQldquPjqOmFN4TgrpJDie8xqVqI9j6Ez0LylhIhahgHzQ7ORGFfqzGyGAOPpECpnPd6qUXgp4ZyMvPmjwp3JkHFv/NfJnIaNTpZkiNgpyTWSzsQJk+ffJKQHp4DRVoWtSPUQVRVob6SJ1u9wfAiw3T/R/XCvNvXy+KKN/rJieniyIGCGrIxkILDKCDF06BwGi+uxHiNH3+sVirDj64tnTYlzEj0wQ0r5zyQYC7Z3UslGlFsb8U5EC+obzI/MZfm5XBJIsz8IJ9PTJ44gEI0NG/JmpqZiHnuVdvQcJmM/oA5JDODkZY6sKPrcCVKEq4wuc/mQLscgYq9KyIBF9A06g5CgaU5sfKeOt+ZqvRCA5hDiEJlzfjlO/kCo4o52nl137t/zEUBIM1k9kBmnrPx36pQ6/RsQMDVEuKUBSB8aORAoYCPAqpMHikjblevTMMdn7gJLxgGBAFlzuDgFEDhEkEphLI9lnmZI6nL2+nJsIf5Iz53NcEDpeqIT8MRKI+nJCo4KOyC+BgRn16RhpQNSjaasubYIAsmF+ENGDJ4/7YkVCjIBRpQ6yCMG2vMjZudMml+zLaAECjAfDInkQQ+YJk0o4NzsVe5Pl9p9/hlbPI/qI6APUh4skEkVGd0I/mvUDuRI/txUCLERGtJDocC58RvoofX2SOH0/8xFPYtERVjGFQMQ0EukO8xLTitTu0DOGZXtGvkwlIPrPfFMWF8IeYK7xguYZ0y9AEplL7NJJCCQnf7LLdV+V/pv3ZAPQzadegL9QiGTrcRjjQ3zWZX1+6YlhiFF9dZ/S9WKeWI0wQ6J1f5JyQNpSRA/BQyww6pPsUQtqVZHGxPF1dTR6mxULQsBrxhs2TEbpXO4OgSBrgFzXcJFbLvklnQCDPWlCfI/s0yIxKSIcdWigyDoSehB6UdWIXOWF59AVfcIl6PDUmejnU6dDBBlHxYVT/OYBEEBXIAZEA3gePh1Kxn5FOKEx52rzAFfon7wLBOjfSR2G4GHg0wcwh7CeFPLb7HXI96SNMs9oXREFzmFfQxwILFKSxgo36LuQVavrTI69tM9wfSYJW5MwWDNihzNQsmeRIrYsYFXaHcmftGL2soM0kHruhWdaLaH7q4+unfnlLDaz8u1bzB1mjmleoXZUciZrxKXzEAi7XDYf/2jxtHcWmIzssOACdATp22wX0l/kTDHcQU0DA50HVwekkmp8DioX4/TVgzUGP55glAJiiOHeJy9wvzzKeIKjJlWBYsAMQ4VQlorC9Oi5kYWfjgu9ipMyseC3eO1ytwjUN9gq7oIe+KO56xlDAI/wsfalRLjInGgCHQB1oD36OAg9J8ZnqALf8WVyF/CiYaGG82MrxgYVurQFAsgGcsCjUPqxS3cgQDsfHEwrTV53x4wLRBVYuXZrezeiyGOjI8XM9FREnCAG6JFLeRBAXjiC5D6uXnRalTLtV8mqtTgLmVfKHONPmnv2ZfmrnAOHQQqZizijiCOLEqV6qtX4RUkQCKewZLy+ualtaD5XFxgjisx8UyKG2A2bW55bXhKR3u4yZYdluxCbkNcQQwrbkdDv8zn2eiKGTDtRf6HPwj6UzdBN3X4HRAxvph8IHe9AHgAgh8lQVHqZNq0nFRHB8xmbHbMNBUqC7rCtAUrEMSxEUl+IDKJc1J0UrEImUbagGvVn+P1dIYDMUmRQ3iA8QnrkDiGeJStKJoQ0fmRelWqlc0hHcWT+rnoEH15REjlMJDIqu+JYf2UEjEA7IEC/wRhBxGhpeUXbUyzF9hb0A0SKmJM4K3LoiFE7SOvnr4Fo4DetOsr2JaxWur2zV3zX3nU4Bdi/jpVMY97Zb3Ox3yFzTZNTwKmkP4/+/daADcA8Ybad+apVSL+ofZMazgrDi8+eVCPBbE/l0pkIYIfX2oaxzZxsu7Dp5ThMgaE0BsANOBZ7HluSNUso2sG6yhE6E6Xzu+oaYsgtI2S8gkSNIAlwPBatQfCQAwregvAQHKcBgOMge3QurH5ZX0LZUCJ9TwpSVirOCyICN9BJN6UV9fX7/e0RCCIvGR9qcOeB/JAFUiDVEzI40KctSNjSRJ6giBBXfiY6EL2Ow/ksBHdD6XFYPNLx1MGvuhgBI9D+CNCX7+99j1Szt+9ZmCJtWwJBeLH4VAbkaKSStv+d+AqvQ4CIMOmiyJlFSFa1EiX7VhI9fDQyHPNRiST9+2+/xp6Xo4oaMy/RpXwIYPdBDHEEsD0Fjh/a86KIIfuY0r6RbbIRynd/vuIbIIAhpv4d+xzCBxHs1er0LEyGvU+ggP6fw/j+WHYjW+Cdab/r09M0tzzOqQ0i3OBny3pIV/R0mdhBCDMphBCGQkSIOEeFZNdDDKUkA9qe4kSdRY46kVbC3od9fdrqQNKGR2L4x2ImETFMoeiYv1QlG4kglFU5ynrdeIHOJAMK8gySXvECpc9S+sD3w0KeQ1YaTOlhzB26VILZxZ9LX138ILQi8ciLX/idETACbYwABgFEgRUK2dMs7Wu2I3IwoajCQsxBgiywEEmtE6mNb8mXdg0CLEA1Nzstp+FJLCrDipREi9nfjuwfenPSStnrlH0v0ZHJibHY2sTppNeA2yZfh6EvuTFfeFkLzbx9/ymiwVNahfqxZM++hSxIZcLfJgK7w8uIVYZlEzKDJGx82f+DTCPTM4QvBYaSnUdWINPLCCIdsv2cdAiyyDGx44EWIuz00hXEMEUKRQrxAtDpI3iRPiaWh2LofS6hNHwvJRrsPysOtTEhSnF0pNXpFBXs75O3Qd9zHPVGhJAwtSqQ/sR3vYpIpdB0rtXP94UAcgH7fok0dQZp5TkGidqJxinCm0g+W16QPhz7DV660EwKeT7Xk0uHVT+4yTHVg/3CCBiBB0QgG4+sVPh5ebl49/FzzDEjwsCiFH/9y5vY63IEYqgxgf7FpfwIPHo0XDwuZophrUA5LQcA8v8u5y/phhtbW7Hh+dbOTkQVGedxDMS4gjGp8d2lHAggO+TKCqS/v30Xq46yPdGcSCHkcFJp4gQIOM6l8xAIu1x2WzUTUM7/ftn1EL80hUxZgNjzNbdOPx/R4wPtSy2bXzEFPSfeEJHFdErNGZ33sqOJYSZuKVKYNqetzi2T8BMpvJgeyrgPwYuooYgjGoPaBKGU/CGC8Zn2p0PpUKpMFHmvTBQpEhuoJ/JIfbVKxykud4sAmJP2y46Cp3pzpi1DkE0/kV0NAESB5SNIr/X+UJ6hAUUN82qDITPVEWdptduKpFUDtVwhTX2NoZmOS4decbQOcDECRuAhESBKxNYERAnff/wSc86IJrHYCMRwQZEkFh0h5dyk8CEl1drfHugfKDRtMEgBG9mzGA0RAuaO7MS/AABAAElEQVQYEinc3NouPn5eim1s2Az9w+cv0fWz7Qnz0/L43tqrcm2tRICN67e1gNSyVpllI/t17V34bOGJIoWzQQgh+rHwiIx+7AKywg4jYszidGndCPQiHuxxW3H4O2uglVK627rC/tKfcOqEPydZc0QFsfGbtWOCgnwPR0gBhWQ7Ytvrm+sswbu9qXuovWOJYY4QQQoPj9IDw59QMJPIeUbw0oxLMPMRx/b3JGOA/Y56T5SDLGKBYqBa2P8oG2mL8SwF4je/63F6nOYvBtG4ikhc+mV/0AoEsgHHlNBED1UrpE0bzfdr6wiIIbLCKxSvJVfO6Vf6MCUR/co5FVlD9y5rCkfnkglh0g0+DdW6+qR8sp+NgBG4ZwToA3ZEAliB8r0ihTwwFJl/xNwj0khZjdSRwnsWzD38HFG/ZA+IIMoREE7kGA/IDjqKyCH6QXoxi9G8+/Ap9GBO21aMaSXLbFTew6X6J34QAQjd6vq6MgCWitW1dW0/s6co0UA4e8a1NQVkcF8LDjFEk1J8cHAU0cUTOQgoBANwFPAgxZhUcrLM5E2I7/2nHAgg37DTZc+nIltNxhmfZ1ux8kU8hd2mbxOZhATKcSCbEX2hT+DfxRhj7dmd8brjiGGY5xIekb2IFCo0RKePsEkZSMQwkcJGSnEuVkSvpWsrZJLnFIFEnVJMiKgUn6NA8b2Uh29RHp5zJJHjXe4GgWioEno01mjsRGorJC618JBF/sPxFHShV/KC6JNWOnCqTiN9FSmo6Ea8pSPgHN4k0cf5tX8qp8U1xHxGjtexEbWsXkztGX5tBIzAQyFAeyY6gMG3vLIahPCbVqekqTLniKXrIYZsik6EyKXcCED2SSc8lsGPcc+cMohdcuhe7NTTeHJWEEWcnpyIhUlwHhBt2lAU8UBkA9tCw75LGyPAmIy8s+yIAPN6Q9tVED0kU2BwZSB0gNvAtmOq0aaiw8xHJIuAhWrIIiDyuKvUclYlztuWYB9cbT+2MThdemlVQofshMF18gvTTQ295yQ19mw7dgN8HUcMZcUHu8fbQ2rIgRo7JCDmE1aihcnb11i8YeSrDmz7yDPWM6SvT6sXsVE538cxKBYPtEcFpSGWmDyPCjf3KDVRv5u/j4P8p+UIgDvEDnlVSbp+pRnufM4/SHsi8z3FCVFgnU9d6TsZDSHXFFXkcx5IvCLui/eh74IQRkRZx2qQocT1NDzh4ul+ZwSMwP0hQFtl/tjq2ob2NPtS/PH+Y/TvT0QIn+pBxJDI0JDmn7mUGwH6bSJHaUuK3diLkr3rkO3Q0JB69IsljxukDg8PszrpWGxjASFMC9CdpP5dY7tLeyLASI3csQuI9O1ppWHmkJIi/Oe7j/FMKjGOgTw86/Cw3XAWfVCfQN/Q1/8xCOSXr5qPqPTTV8+fFb/98kp6MxjR49gPtz0h8FXVIUA6KFE/5E0bD9tMx+T2Xnf4+VuUqWL1YxtS6vuM+LDD/nQUMaQziL0KIYVKH02EIW1YSfoo6SMRKcq9QSNhqg50AbLAtgeUtHIRGkViYirpm6QkkYOs8/AkVsmkDkxeSc7IZ1VO9lPLEABv5Az2yFbZogJeRP4qGfPr+j43dN4meSbilyK9DPyKGlbkShoB8mwkS87l99ED0o15nzqf5Biw9AWIixF4YATCWJSzkOgR2xNgAEb0QEbjrIjgsyfzQQpZlALy4FJuBKLvVv8NOfgmQ58FSIgCM4+MFWexCXr1aFZyH87wjcOX+mKkcIfeDLL2+DzklByzpI7G9iPakoK0cKLF+/tKD+3RyiI1JSRb0ZV9RROJHrKvJYsR7ewMFyNyEuwrashChEkPak72y7ZGIPoBtd+88CSmYZ+CPD0xb7zxpaNCuf/gdViLYTOm4zu9C2jeKzbGq20/jYiNCAKrCLF3HWmkGPhECnnEMrOEha+5g+ggZNwfH1PPURx9pvPFDlWflKmSQ0I9uTMhQhR7n+g3+TBHrvpEUBhcUESX1iKQ+v5ExsEe4nZymiYLS1iSFeTs8m9WG3wcX4ns6cCIEMY5eJOyDEkfTqQPRwNrHdd6Gak96wDeKDoe3if5i5yKqPK6EZnkXBcjYATuDwH6CVLFSAtk9dHf374PcvBcm9c/fUL66BNFCqcijfD+rsq/dFcIYNiRRrqnOYJsbP5W8wTXtTfl2sZ4RH9GNbcw9edpnOY6OId+nAghESYIJRFHooesTAvRIHvo2kjDXd2U670WgZCN5AghZK9CnllI6v9ovihZXIzL9ZZgpJJWUk//++//Chvyl1cvil9fvyzmH8+E44jtLUgvxqHQE07iay/FB7QBAthkOO6x6ZPbXqac7Plkmyfnfe1l0gfofzXIlBeTTJmG531F7Tmd9rpjiCGRGiJHsYF9RAu1P1GFELJ4AJNPc2eO4C8Xvten+grloaNg0RqOTQqEoS8TX56G2sL3kBKIKL9PibkL6jhCkWoP9uuWIoAYU6QuEfMerT7Ke+RFlBcp13JD3qMnOa0AGSP0WHGwoh9ZR9AX5HeiTVBP9EPhaOAzhSRrqR515ih1ilDXyj8RztCrlt65KzMCRuCmCOSB/vDoUKRgMxajIFrIgiIvlR7GY0HEkGgSxj+FKFN9oT+oJxL1x/h9+yCQx4dDbUbGyqKQw51d5gtuaO7oUBj7XG0QBTl9KbEIiYjglkgh89LQF+TOyrQ8SEFNK9TG4f7TpggwjiNj9qckLTy2KhPxa1ZwIOAMWNNcY/Y0/bz0NeYZ/6+//lo8mZ9TtHGyGH00UpV/s3r8eXshELa+OgICR9jpkDxsREo47qUn2Ge1NloEmcJOJGsw2fT9ZKFVHf3tdY93cTWlJ4YIHkGyz8iBInxEC1GA/DlKAFkkmlQr/HowgzxK8BQ6FSI9sVQtkSCRPkgEx5zgaagcw2dBCvQ9xIHfRHkYOGKwSZXx16XFCCRZpsaKB4+C3CNdQIFeZBGROwZ8BKa+IEeVj7UCWY7uxX42kimyjjrpJPQPAxCvUq4XHaIeVZvqlX5kHQuHREXv4rxebX4R9VEZP+5iBIzAQyGQFx/5ppUJf//zffGP3/8UOdiSsXgUm5dvKIpEX7Et8tBoXiHjAc14SsSRBSiIHtG+aesu7YsA2T2M2WMy6IkYMUeQxUdYofLP9x80rh/H4jKj2rci701IdHBd+xiurW8WX0QOSCeEXHA+D1IK0YXsQGzfu/eVgUBkAkkHkBe60KzgEOAY5g/2ERHUa7anGBwcSPNR5RAgWuw23wzB9vw8t1OcO4MDfbLTCSYk++/gUOtL9J0me45GXSnYczwYNyicy77nkXVYcSBVDu3Ypw4ghjlMnDw+EEO16ugQcjQpkf4k5EaSRHnOlCbIQMJQT2eCMkDuqANiCAk46YcISpH0Pefk9EGeedBpDA70FkNSIjqhrJSNftOf/TwCEkE0ahosUd6Tw0QMSe09kczo2DHgKBA6iDwOBGTF8RBA0n0HB9MqdbyP7kF/iBgyH4FCvZyHnwl9CPIvWYdORCeTnAcci9xjoaOK/M+7G751MQJG4L4RwAm0p3mEEALSR//z//1d7Zu+oS/2qYMYfle6YeqvL7fYcDCpvb968SyMRFa27JXzx7TwviV5u99jnO7VGECkZ1Gkjg78v/8uPdD8UiJIkD8iQTNTU0EIqJ3VKiGE7H2Xo0xECt+8fK7VaucUUdaCNQw8Lm2PAHLiEe1UbZ2pIM0KfYQOli2ghWWkM9mpwJ6VkEUevHYpHwLoQHLU96cgkmxDbMDTU+1dWnEeYe/lcqjvCfTwCedi72FjxhY3et8NpfTEMAspCVDCw3pXQXwMDBCC62QZClA5Jx+MMTCIAaCTj49FAkUq+A2IAbSCOhWVjrNQHIyMUCCRCZ45z+XuEag2XG06irDDo4fQ+a9nPD8UXvMx1A9ZZWMPLxJOAORVK7KoV5/r4OhMKpQx6oJgpvqos7K4keROHTl9mfqtAQFXKf4gL/RifHw0UoiIJpBaiDFAe3YpOwI4dPqKCS0q80QrDNJP8IA00O7p3xuVaMXa/woNYD9b6vBq042Qat/PIPITWnyEsfvg8EDtPO1lCxnA6buhCCHrB9CvJ4JQxLYE6AZ7HLIa5ZwWJBoVQaSPcOk8BGjnjN9EBUk9ffPqeUSK2bOSLIKwKzrvtrvmjrI9V80CC2Iog1Al2XMXrbWcEUJGGftbZxvxgpHYweh1FjHEkK/pt1EGCoSgWcFRwGEcW/2n96EIA0QO1WHowcRVFChWnhTrCJKh4+hMMBYYMFCmSCPV8fm3m/2uP28NAkHoAu8ki341+JwKAGkLg0/PqABy7gvjjsaeZJblWy8v3sMHemJTVHSgYkzIkJB9IfmfL31MHbU6gB7ozNbcoGu5FwTC6JcBOTk+rjlnT6Otz1aIoY2CexHBnf8IffSUFo949jRFj/jB5MRLpKDRBdAPyNWX2nfFa9zvxUcaQdW2n9HXj4sYMueMLBDSgb8qIsh+dXtaaXJzayeig6SO0daJEE7PTRZPSR/VSrXsbcm2FWmLA/frbSvon7kwiZW2TjAAJ8Cvr19p3vFcrE5MFNFjwM+A+/DnYsOfnSXHPX0+DiGighE5xD7EqKuUbM/lKGFwgS6z6UtPDDH2IQfJGFeoOPYryCK+/jmfj/DpGHhP4TUFJUqkgmihiJ8UKP5JmTgmiKHO5bhuVKAA6YH/ICpJDzZfkWEi8xBD5hXqfxSOgxj2Kn0UIzHJ/FzW9bcR8tWHyJZzT/SHTiPXqY+SDlSIYeiAjsm6U1+f37cvAugDnuHpqQk5E57pQs+KycnxiuyRtEtZEaCds2fdlOTJHoVEgii5X4g3TUTMx0SceMxOa29DpZQ5GyAQK80f+mPad+9QTzgGyAJg7hjRQFJH2buOtFHmmZFiDDEkc4DIUexnKd3hHJOD0oj81heKjiB72vd8JaMABwLzT8kCws5zKTcCiBA7kRVltc14BIJYXDDZc7XEMGWTpEBPyiYLA7Dct3+rq++R8XyOyK1ObZ+DuQXuIp5veVm5ucf8wgaNv1o39DD+V4gGP8jxKJue4x9vG9Rxy0vy4T+IQFX+VX1AZJITpSKvEBnyqpFZOqD531odyK9DGRC+StSl+sQPeRdqwSuX8iAQKeKKAh/LQGSbGvSGCAMGodt0eeTY6EqRLUY/6cGsPHikB6XaNzQ6qfJZ6tf1V40bx8Hw8FDFoZTa/hWn+qs2Q4C+mwgBkUHaOIsPxcJ0ep/mHKUpIpDGRB41t6wSLQpnAIOHS0cigJVA1IisMFYkRj+yA+E8aGD5d4Lws52YbLkae75yc9meS8/dadN3BDF8CGVFqWoZgLuMh5DC9b+JmFJJL1pl5If8o+IkedsMGWc/GwEjYATKgUA2DnEe5D6dyKCJYDnk56s0Aj+LQG73uZ5W2Yi5vjI+mxiWUWq+ZiNgBIyAETACRuCnEciGYX7OEYOfrtgVGAEjYARKiICJYQmF5ks2AkbACBgBI2AEjIARMAJGwAi0EgGWT3QxAkbACBgBI2AEjIARMAJGwAgYgS5GwMSwi4XvWzcCRsAIGAEjYASMgBEwAkbACICAiaH1wAgYASNgBIyAETACRsAIGAEj0OUImBh2uQL49o2AETACRsAIGAEjYASMgBEwAiaG1gEjYASMgBEwAkbACBgBI2AEjECXI2Bi2OUK4Ns3AkbACBgBI2AEjIARMAJGwAiYGFoHjIARMAJGwAgYASNgBIyAETACXY6AiWGXK4Bv3wgYASNgBIyAETACRsAIGAEjYGJoHTACRsAIGAEjYASMgBEwAkbACHQ5AiaGXa4Avn0jYASMgBEwAkbACBgBI2AEjICJoXXACBgBI2AEjIARMAJGwAgYASPQ5QiYGHa5Avj2jYARMAJGwAgYASNgBIyAETACJobWASNgBIyAETACRsAIGAEjYASMQJcjYGLY5Qrg2zcCRsAIGAEjYASMgBEwAkbACJgYWgeMgBEwAkbACBgBI2AEjIARMAJdjoCJYZcrgG/fCBgBI2AEjIARMAJGwAgYASNgYmgdMAJGwAgYASNgBIyAETACRsAIdDkCJoZdrgC+fSNgBIyAETACRsAIGAEjYASMgImhdcAIGAEjYASMgBEwAkbACBgBI9DlCJgYdrkC+PaNgBEwAkbACBgBI2AEjIARMAImhtYBI2AEjIARMAJGwAgYASNgBIxAlyNgYtjlCuDbNwJGwAgYASNgBIyAETACRsAImBhaB4yAETACRsAIGAEjYASMgBEwAl2OgIlhlyuAb98IGAEjYASMgBEwAkbACBgBI2BiaB0wAkbACBgBI2AEjIARMAJGwAh0OQImhl2uAL59I2AEjIARMAJGwAgYASNgBIyAiaF1wAgYASNgBIyAETACRsAIGAEj0OUImBh2uQL49o2AETACRsAIGAEjYASMgBEwAiaG1gEjYASMgBEwAkbACBgBI2AEjECXI2Bi2OUK4Ns3AkbACBgBI2AEjIARMAJGwAiYGFoHjIARMAJGwAgYASNgBIyAETACXY6AiWGXK4Bv3wgYASNgBIyAETACRsAIGAEjYGJoHTACRsAIGAEjYASMgBEwAkbACHQ5AiaGXa4Avn0jYASMgBEwAkbACBgBI2AEjICJoXXACBgBI2AEjIARMAJGwAgYASPQ5QiYGHa5Avj2jYARMAJGwAgYASNgBIyAETACJobWASNgBIyAETACRsAIGAEjYASMQJcjYGLY5Qrg2zcCRsAIGAEjYASMgBEwAkbACJgYWgeMgBEwAkbACBgBI2AEjIARMAJdjoCJYZcrgG/fCBgBI2AEjIARMAJGwAgYASNgYmgdMAJGwAgYASNgBIyAETACRsAIdDkCJoZdrgC+fSNgBIyAETACRsAIGAEjYASMgImhdcAIGAEjYASMgBEwAkbACBgBI9DlCJgYdrkC+PaNgBEwAkbACBgBI2AEjIARMAImhtYBI2AEjIARMAJGwAgYASNgBIxAlyNgYtjlCuDbNwJGwAgYASNgBIyAETACRsAImBhaB4yAETACRsAIGAEjYASMgBEwAl2OgIlhlyuAb98IGAEjYASMgBEwAkbACBgBI2BiaB0wAkbACBgBI2AEjIARMAJGwAh0OQImhl2uAL59I2AEjIARMAJGwAgYASNgBIyAiaF1wAgYASNgBIyAETACRsAIGAEj0OUImBh2uQL49o2AETACRsAIGAEjYASMgBEwAiaG1gEjYASMgBEwAkbACBgBI2AEjECXI2Bi2OUK4Ns3AkbACBgBI2AEjIARMAJGwAiYGFoHjIARMAJGwAgYASNgBIyAETACXY6AiWGXK4Bv3wgYASNgBIyAETACRsAIGAEjYGJoHTACRsAIGAEjYASMgBEwAkbACHQ5AiaGXa4Avn0jYASMgBEwAkbACBgBI2AEjICJoXXACBgBI2AEjIARMAJGwAgYASPQ5QiYGHa5Avj2jYARMAJGwAgYASNgBIyAETACJobWASNgBIyAETACRsAIGAEjYASMQJcjYGLY5Qrg2zcCRsAIGAEjYASMgBEwAkbACJgYWgeMgBEwAkbACBgBI2AEjIARMAJdjoCJYZcrgG/fCBgBI2AEjIARMAJGwAgYASNgYmgdMAJGwAgYASNgBIyAETACRsAIdDkCJoZdrgC+fSNgBIyAETACRsAIGAEjYASMgImhdcAIGAEjYASMgBEwAkbACBgBI9DlCJgYdrkC+PaNgBEwAkbACBgBI2AEjIARMAImhtYBI2AEjIARMAJGwAgYASNgBIxAlyNgYtjlCuDbNwJGwAgYASNgBIyAETACRsAImBhaB4yAETACRsAIGAEjYASMgBEwAl2OgIlhlyuAb98IGAEjYASMgBEwAkbACBgBI9BvCM4RODt/Ga966t77bXkRCNmenRX6r1Iv6ZvdV09PT8HDpTMQOEMfuJWKXvAupIuc9bHl3RlybnQXIfuQe9KB1Kpp30nunOO23gi58nxGXx/S1XOtXK+7A86LMyv6kd6pDv5l/aj0EdfV5e/bA4Hc3nObzs83ubp8LsLP48JNzvMx5UYg9QOVe0gDRMi/3Hd1s6s3MRRONHxK+hsvq+/dEZzjUdZX0bHr4s9OT4sTPc5O6yV9gzuTIvT19hV9fb02GG8AV7sfkgf7k5OsE6fFKf0Acu7pLXol575ePetxGyOi3e/b15cQQO7HJyfFae4PJPdeGX7ImzbOM8WyT3iV8e/ZWaVtq13ntnwTmea+Af040SPbB6EffRoD6Bc8DpRGJZAf4/6p2jzturcXq+5mbZtz6SM4n7P6JP+bnhsH+s+DIhCWXozridTf5GI4PDmGao7mMxSgSxxCXU0M0wCQiCGexTAMK7oQaiRF4Lm3R5EEKUS848mlVAjkgeHw8Kj4fnBQHB0dVwf7m9wIuoFRMDI8XIyMDFeNDBuNN0GvvY5JA/1ZcXR8FHqAThwcHRYnxzICGfwl534N/v39/cXgwEAxONhfDOh1f/8AY0KlH2ive/LV3AyB3A8g6/3v34u9/e9h+B/rPXLH2B+Q7AcGJXfJfmAg6UB8VyGKN/slH/WQCGRDPvf3EIJBZKoH7Zr23KiEfujYw6OjIs49PCgODg5jrMBY7Jd+9NMn6DGsutCT7CxsVJ8/e1gETuUARheOT46L798PNPYfFkOhB4OpT1f7ZlyvL+gBJRwD6hsODg/jgUNgeHhIejRYtQHqz/X79kAAEWK3IUse0YdXZM3rRiWJPfEAgge5jnxsroNnqmhWTz6+zM+Ne8gy39ENrp1mj7LQceARPNZgEB4ldSJJORB6Enyvogd4kOkUGBhSBOEGP+JD2gaBo+M0MHxb2yg+Ly8X6xtbIXdkfm2pdDCQhefPnhYvni0Uo6OPEkFs0sFcW6cPeBAEaPMM9hh739bWi2/rG8XG5pYe2zIGD0UWT8JQGMDwGxosxkZHi4nx0WJ+brZ4rEd/vwij9KCTB4QHEcw9/SgEcHtnp9jc3imWlleKL19XioPvyehDpsh2SHJ/9GhYch8rnszNSe4z8dnw0JDlfk9y+tGfyUYghH93dy/a99LX1TDqZ6Ymi5lpHlPFrB71JQiE9GN3f7/4uvKtWPm2Fn3DuvoHvqPu6BdECiYmxov52elidmY69GR8bNS6UQ/oA77PegDBRw82t9TeV1aLldW10IHpqYnQAXRhSPKsLZybyORpscnYsLVVrGmc+La+qTFhqHi2MF88luxHHyUboPZcv24PBAjwhG0fTgGi/qdhw/fLhs+2fP0YrlNC7tiE8AFsgaxH+a6INGc+EE6isAU6kyB2JTGE/eUO4FAKcKgIUiKIKIPUQA8Up0eKgDJhEOJlhAdADDnGnCA3l/Z/PhYx3Jex8HX1W/H3f/1ZfPy8pIZ/XPB50yIZhypI2AwUeIkPFF0aFylEBzAgcRa4lAeBZPwdF7t7+wUG49sPH+N5Wa/35VE+kiGBbIksjD4aKaYmJ2QEzITTaEzGH4YBEQK3/fLInCuNAV7PRIk3trblHPpa/PP3t8U//3grw3E/oodkhhAhJCMAUojxd/jrUejCxPh4GJD1xkS5UOj8q6V989jd2ytW5fh59/FT8Q/JeU/t/bkcei8Wn0bEsBExxCA8UPvfktPgw+cvxR9v30ffQD9BnegQ/QJZIziK3rx8HsYjhuaYxgSK9aM9dAxZIU+ihBD7L2rv6MGf7z6GHjxfXIgLnRgba0gMIQWQShyHn74sFR8+fSne60G/gJ1IP0Hkmb7CpX0QwF7DaCPaBxk8kqwOD4/D1hsY6CtOJTPcABHcqbtsMYLQmST7Y/UFx9V2nw8lukwqMVklZ8okoh5NNOlIe6DriCHKcyLFgRgcHStSKOWhI0HgNPYcZE5KlsLJdDJn6ihSQTn0UCTRpRwIIFuIHIb+86cLYeDTcZyenjS9ATqIA6WdQiLWNzaDOKAr0RnIYZD1pGkF/qKtEKCNE0lYUpToC9EiGQsYfXiMf/v1dbR/ZMvAgiEIicCZgHEw8P5TyH9x4Umx+PRJnIP30IZgW4m46cVg5G3v7CpKvFH8+f5DGHmHSg+bU8TnmWRKdBhPMIWIMt8xPmAQQhReiwS8efW8GBkaViph4/Szpj/uL+4UAdo1MiMavL6xoejOZjgAcQLSvmnv9PXjivxP7UyEbGsviPMZ63ekHx+XlovPS+oX1D9s7+4qIjgV7T31+b3hSCQdkbnq1A/xoK/AaZinGbhPqEX3fl9n5/729m6xJl1Y/bYeclpWtPDL8mqQRKK7EDwcgdh1uaAj9BN7RIwVWVyRfIkaUwfP6BWy3VMKOmnGHO/SHghkWx27HrlEf5Cf1S8g594TbHbZfHLkRIOvGHC0/3zeIZyAaUa6LchfjwJC2Qmsw+LzIJ2qL0cUCRgNxHGdRRC7ihhmBaIzPzxKkcKsJQh3UF4FGj//Tpm4XlGuwyMpgkgE3yWDsE+GhKOG7dEtXH8VVWKoFKATEcOpiQk18vSv2dkM+qSgMChsaaD5/n0n9AEjoSeMSFPDZti12+d0/hTmlREt/tef72KgJ03or7+8KX775bWMhfGIEmJcEHFA7n+8/VCsiECiCxiCSJxoAxkEPT0pgyAq9p+2RgBDDufOB8k+RQ4+FAvzj4uFJ3Px/FSv6SPIHCG1mCgB8o7I0bsP4QwickyGABEi/Wnr++2mi6NpQwqZO7709VvxVsQfckeaMLLEsUcK6OTWWDgHyPqoL/QP20o5fPfhc/HHu/dBEjEQcQT9219+CUcQdWwq2gzJIOL8SbrE7xA1IjVRHDLmn5kY1qN7f++D3Em+kEKig7RfSD59+Y70gH4cUjg5MabX34PU56vDJuT7jY1t6dDH6CdIO8cxhFMJxwERY5yFEMiTK5zKuU4/3xMCar+kjzJ204dD2nhACJErfUSfDPYI8PAmKF6y34IYys7HEcg4wflEhGNdAfX1pIxSSE09Dt6g7ELVfXik98fUwRQEbEKOSnXyquylu4ghHgUJN+YUSolQCoSKUQAxzPOHEO/pGSQwrUioU6oip/NByfRHR3WOIpRdka+6fuRINJh5ARTSAlPnEG8v/EkUoqgaFejIo0gZmYwBhfmFTGDPK5tdONlv2hIBZIgXkZSy5EVekxOov3j6ZF7k4LGeH0c62JBSRRlISA3DCMDgRHcgFRiCzxUt3D/4HgZgSiM2QWhLgVcuCrnzgBwQJYbwkS48KQcRMv/19cuYc8b8M+SMjpBCHCmDavNEDIk44UAgwkxdLELU63TithB7atfHESlcUWRn6evXiPAjy2dq26QKEvFnzB+Q3JKRmHv4dAsYgziMmEeGM2BLzkCiSpFdovTTJ4/nIiLYJ/tgRAuPkHlC/fvSKdIU0Y23yiiQaui8MelHSlVrC4C66CLQBYgcekBbhQwi22nNK2W8J7UYRwHZARyLoU/Jr5lbCuGH7BMdZEVbHMhkFVDX5y9fgyxA/DnHpX0QSBG/RAax7RFP2PWQQUUK+b7qsKkTXSaUcZ5uibYNDxhUe8/zEbnT017VcSp7X+fjWoIHkKo6oMfpKU7ixAUqT5xS6tJVxBAlQAEw+BgkkHJacIDVxVhg5pzokTuMguVVq47CO0AaqrwQZ2meIednhSi1FnT4xSPDHo3YvY80f2xoIHLQ6/qHGgQwJlM6IQMA8xAxFjEWiBbhccRwtNxrIGvzl+HtU5vfraSGMvCTGsg8oReab8KcIVJKIfvIHnljBGJMkiL2H//1PxEpwLDAq3w8qrlnIpYu7Y0A7Rcv8o7SAj99WY4HhiELSCD7v/76prLKYGrPHJ9IwbiMwvGQdUQbdvbi3Ig86XMcQ3YKtofsiexBBn5XFgBEjSwPorvMJ4Twvf3wKaI+tOdGhRUnWXwKh9E3PfZFEF6/WIxI4ZPHs7FYCcYi/T1zjIP8yXDclU7hSCCa9LvmI+IwXHw6n7axkB55fGiE9t18RrvlQUT3veaVLmvxIJx5tNeXi8/C0YcekDEwKodPj+SZy3kfsReOoD+UIYAViKzJKniqrII/Rfzp9/NqpPlcP7cHAtjyZABGwEevsffSmiA91ehhtuNrrzjrDSSPcYJMQQJEKXtQZE/2QGYE8AHqiIc+39eiZZwDH+DBsZphppLPqP2l8r3uKusmTUpNwkSAGIJ4BVKkEJlWhFphDan/SMpCRx9L2IoMhpLpUHf+5VB45IRkezWgI+urSsw9lbFBugiRBlKU8DxPK6qAFxmjkAizS3kQIGmYwQOSz4qkzCFj4ECerDyK0UhE+UJRHzA+dihHwGj0EcwtQjcYDCCalS7iwil+014IZEcgbRhSj+E4XokCsaIk8k9pweeDOXqB4wcZ0+YhivQFRCGINB4oFf3RiMYA2Zbu/x9O3rS/3AYZwzHakQ8G/ZP5uVhkhAgSZJH2TsSvUaE/QDe2trcjmgyZQO5ElHEC4jDKcg4nsnSD1U2JJDJnGccBv/FKuoWe0I8EkWz0Y/7sThEAd+RHn54yhEZCD0ZHRmI6CHOMSRM8b+1Jh+jNkTFzRcfkFHyk48kSmpdjAKchzgb0KoiCbEaX9kMA+eVpXgR4MjGkHz/R3EJ93bxwrqYHcX6OGKa6Lp6U+EBvih7qK/kiah70RhePb/6D7f9NnTXU/hf8o1eIEFPYmLxjdQSQQkmaR7Wtc1BN4S0Kx8CDwmQPA+d0jgrU3LBfRvoJ8wqIKjFXgcGfBSrwQGN4ZCPBUJUIAbXj2pad2nRaaZi23KhDx1jI7R23Qhh7nltaIqFL5hgFIvLMK8tOHgy82VhufqQi04s9OboBASCySHufm5kpttUfEIWADLAgVXiXe9J89FIB0oEXC7GfmdIEv8pYjQVIKjikDk9+cgRelHEtDDgN1jc3I6oMmRhWhgDRYmSPE7C2v8+v88qkLGBCqirbHzEvmdRFiCRGKdfhcn8I0L+TMspYzdZCyIq039AD9QE4e1K5KBfecewjOQeJ+I6PPYopJymlfDB0ALKJvejSngiEQ0BNrl+ZfBjmBG4Y17H3c5ttduV8n+cIUk8KFmnE1+cNiz7mu4vf11oXDc8q3YddQQwz34u0AQ0WPKM4QfAkaN6jRDzCgkTOKABPFSVIUUI+yZ/FS//pMARIGWG+CQ8GfjoKBhfSSogeXOwQOuzmO/V21Gxpvxh+IyND4Q1mDsmOFpyAMJByhuGQSGLqD74rVYQURFLFIIkYm5AKPM5EjFMMulMB64z7Qm4pUsxiAUcRMYZIMNeYCFOjsT/390ESZFg+UgQBBxEEAIcR9VDn2VnjCFRnIFeeu2C+J/1yWjBCm87TPiVjCOGa0glx6jYrjPtEE4kW4gBEN6iLtFAiRo36ej4jsjQ5OV5M76S5qcxdZqzAATGilPWzwc4zFJth2C6fY5kR6euZTUY7ZA550lezlyGvGxbJk7GB+eU4gXAIUA+LCkWqoEglOkR/T3/i0n4IYKNphK+x17lGfaZ+ulEfX3sHtOeQr+qoRg2vOgkVgCeocFgcynN80jl/uoIYJnFVIgDyImMUSg1CqExMPYv85JRiymChr0PSoTRSGDqXNJk1RQ6v0pvOUY3uuhPkTtmR55cJ6BiCGBejSiticYopGQK1aUXdhU657xZPYE4tmp+bC0JIaiirkzL4I2cMwmGMQd0qKaOklzEn5aNWtoMIkFpGChlGIyQyDUblxqX7rj7NIY0pAZX2fhUGOf04OQn2tPDQYZqfrgFCo8RVp/q7O0YgG2KkjREZog33VjJ7GLd5XFVinJcOsAohpJC5ihC+iBTpmT6jWeE7xgKiytgGrGB+rPNxKh7JkZDHkmbn+/MWI4C8VSXzvnt7RsJ2i+gPGR5Xq0F8zbH53JNT5paLUOoz2v+1FbT4Vlzd7RFAxIzH56Km/V9fD31EtHL1G3105zon+o4mpzJkwBdYnZQ2nvuZCDDp9zupdAkxhAzmyCCLx5wP6jF5VO+ri9LoderYk3Ih9P5+PpPHSWihgFKJGiXsJHXo3nshvZh9DZmXsrSSljrHUGAu0rTmIjlaWF7diGghJF+eYBaUYK8qFqz4pH3LkmeZ+YbjIWNGB+YdESViJVL2QiN1jA2y2dcMb3KkFt1k5CkvZJ1z5Qz+6rP7+xRJUnQJRwDpg5D/SDVSf19LIjJhYGERjjk8Oozj9/a+V9JI2fg4BpPOwaikd5INs0GN0WqU1btAhrVjfPWLmhdxjAw8ZEy0jz3M0vyy4Yg61upEzWnxEn2iDxisEEM+RF/oN5jHfN1v19fn9z+HQJjkauc4/3jkgpWXbLn8yeXnrEOQw9pzOfIqHbhckz95KARChj/445zbd8OxHF1ioZpYwVTKxXk4poKU6nUn6ct5K/pBYMt0WuooiDAnIsj7XBAqaSgUyT86lNyp5FVM+ZzjUIScdpbP93O5EcBYZJ4IcwvX17fCg7ygOUXsZcXchU5q9OWW1I9cPW22CILHggJ5JTHSRNmOYFULSJAmOqw0UwJBpJeRFsYzc0tYspw5pixEgDcZQ6Sz/IM/gmn7n5MdAiwuBPEnCkx6MPuUMX9sVnPThrRKMQZhbt+JOCq9UIuJsOgE2xewdxkE4uQ47W2L4V87drQ/Er7CegSQXyaHjO9EkUlLRRcgCVeWihEYTmM5nIhWUtfRMenKJ9GHXHm+vzQCRqA0CEQ/ofYNIWQcwPmjLiCcQzGthP6gNHdzswvtGmLIUM4/kgMghhgAQfwqQoUUkoceRp8+I40g9ipRR49CnB4HKwxSiHEoezGU42Yw+6h2R4ANb1lEIIih5qaQnkSkkKXtmV/mUl4E6MShcsMiCCwgwjYUGP5flDJM2jD7V1H4nDRzFpEgtWhubkYLEjyJqPG//eVNihbWkIg4yX/aFgGWpWcKAKSfBUVYWIKNqiF6M9p65uWi5hCTRiTDHmLIeIBhz5yxTc0nZE4hD44nVZCoEE6FMz3MDNtW7De7sAq5jwgAUT7JlLlG2AHXEcNsIzAniXMgk+gOaalVu+JmV+GjjIARaHME1LQTZ1BGGcTwSGME9gGLTEUKOxwiGRltfic3v7yuIYYBSXITVihiiv4h2P7+1MFHrnBFwGeVqGAKE5MqwmqmpxFJoK6052HnKcTNVaczjgzngG4FQ5ANrVmIgMgRpJDNcfOS5Z1xt915F8iYB4vNfFb6KCmkX1fXopN/LPI3rweLkeAMoI3HXCEZeTiS+L+8slr85//7uza4XygWnz0JokG/0WmDQadpB/Jhixr2nnv5/BmijG0n2OOMti6lKMa1sBRp4vT9RAKRPdtabOhBWjmLzwwPD8a80nAcxryl8DR0GlzdeT+J5Z3fO0py2yK9oVgrbgucjzcC7YtAshvYzF6LlxEg0oMSnEHjyuAAixtFB9K+N/GDV9Y9xJC+W48sbN5iODDYDw0yaTmliNbiyDG9J5W0kjN5jMNjoFWqRBpPpRSc48GgFrFyvkYnMAZZbIRUM1LPiCiwn9XE+HhEict5Z75qEEC+RAZYne69CAGbYbMaKVEgIsIscU40CRJAVIiIEcRgReSR9MOvIobf1tYDTHQivIQiEjedm2ApPAwC0T9LThA/iCF9PXJfWl5RW/9SLK+uhgNoZnIyVrJER1ihlg3PeWZuKfNSiTjiIU5yp893r/8wEm39r14w67APwn1w09+JEy6eYdW4KXg+zgi0PQLYDgSFyAbgGc4QmQUaS2JaCRygA9t81xDD8O5LgDzzyEQQkpcihem7ek2N70k3UlTx+FDppSKHMccE1si4QJ31J/l9KRDIEYLYy0pRBIx/UomYU8YiJWNa1j6WMu7Ell8KCbXmItliAFK4KvmurH4L0sey5JBCVhvlMTI8EvPNSDNHH2Z0/KSiSSxS81Xn8OB8HvQfUxPyFg5eMxepNZfvWn4CAWQFqYMcMkf09ctF1XYWxI8UUcjgtmQdEWCNBRyPbpB6OlDZwoQNzFnOnr4h0k7juJ+4KJ/68AhIzvzLi47wHAsOVdJBr7pAAoRkFmAocs6pHugNqWUscMRrFyNgBMqJAO2bMSLat6KEpI5iF9CsByJ1nEghuxqk8aKcd3n1VXcNMQSGLEjSQxkI8r4l6fPLQNG9M3jkSeaHPUovk4LgRSANCeUxM7yMW1k+Ya4Q0SE2OP7GojMyAEkrxIBceCyy0GQvq7Lcn68zIZBWGd0Mcsc2JBCCX169KP73X/+iqPCEFiaZiHlC9As06UgZF5nEQTA3uxFE8Y93H2IO6ldFmdiuIm2AfL4SorFuXwQgc7TlNC2gJzZEX15ZiRRhdIOtCogUDfcNxnxi9IHVZ3Eo4CTAOcD81FjBVnXFHDQb/+0r8BtcWYztkiFEDkIXxFDzh9CHPE+wGcHLGQiQQhai4BlHM6tYh4OByl2MgBEoJQKMBREpFCE8CEcR2xMxfUxzkNVXkEJKf9GsfyjlTddddJcQQ3rqtCw5HfiZ5omkgQE0YP11qNS+1XehAJVjgg7CB2uP8evSIZAH903NKfz0ZTkWpUA3MPjZlgDjkL2qXMqPABPGd3b2ii3NGWNpemTPgkIL83Mh70eKDAcprLnVIe1nxT5lrEqKTqAbByIJLFA0rdRDjEeXciCAvGPVSfX7pIbTron+kSJKyijzCvEA8zkrELNvKa9X1zYi9ZQUVDY8hxyy0EjKMLlq0CgHLt18ldkZjB6QQs7+tTgIeGZFYpxDHBNOgDqgyBrCYbCvbW/oB3AwoxdDmotKfZ1sMNZB4bdGoKMQyHYhi4wdRUYAe55rXqGIIONAXo8E3tDJpUuIIeQuPejo09qkInc56neNhPEgZCaY1IG/+XHNyf66bRHA27umCNK7D5/CQJycGCtmK3MLST1jkHcpPwIn8vztH4gAyJijzdPBE/Ub0SJD/WHIXb5HiCDG3rAIAnPNMB45l1UtiTITJaD7oF9xaW8E8txBDH9WISUtlFTxWRHAHPXBAUC0h5Vp0Q2ihexhyX6WGP+jch48kh6QlhppRB1uGLS3RFtxdZC+IpwDpIyz0NA3OQJYrZiMAtLH0pzSy7/FIhQsZMWKtbwmkszCVfQT3uP0Ml7+xAiUAQHGd6YXMSYcHmkFahFDBnnGDGxB5hTmxWY6fdzvCssXIWLEYewxqCdCqNWGlBaa5gsmC6+RjcexeJvxIFKoKz/SB/HXf0qEALIkisRG52uaW8iWBaOKIEEK2dAeUshAb89viYR6xaXi2MntmPTh3P5pyPxrVNQjRKdBv0F7x6HEPAMIQ5BCvXZpfwSQ9ZFkhhG/J4OfAT4ig2rvRAZDuDomRZBqtilSWjkL1UAWqIN9EMe0QBHpgnlOevvfva+wGQK0aQk/+vlJyZbpBMtyBGxLV4gaQg5ThLivWkXuN9jfdHNrK7IHsB/GRkci9Xg4iKEjhlXA/MIIlAQB2nbwAdkHx9qvFvsQ24BxPzkMU7QwLIbGJkNJ7vRml9k1qyfktBCiBUEOZSySEoJXAIWA/NUXlIVHmmSe9q5iTkJOJQqCWH+S37c9Ahj2bG6++m0j9i1kFUJyx59pz7rHs9NhOJoUtr0Yb3yBRP6I+ODRh9zt7n0Pj//29q7Sxg7PiWJNjSwoQdopkQR0hWNP1V/ECpWKKOFFTMZlzUl+2VYI5P57T+miyyvfij81T/Rv//yj+K+//aP48nUlzS2UIVDb1ukbWJmYuair39aKVa1My/fsf0l6eY4I1Z7TVjfti7kVArRnHAQT2tKEBo3zgBWqvylSTKooOpRL2AKKEOIwYMXiFekHejA3OxPbGpF63t9nYpjx8rMRKAMCNHHsAqL/B4dpzjCfpekFzCkkSyQ5kbtlzO+KiGFWTiKGA0oXImKEAUAecTz0mrySHvaoqhSGAwYCSGOQR8LKOp8c41i8pgu8BhmLTnumA9ja2omBfVOkkMghBgKrU85OT0cqWafdczffD6SfeYKj8uxD6Ij6QfYw/mnjEEccRjl6SISRRSjY03JNixJtiRSShooRSD0j0hWcQy7tjQB9OBGdQ80Zw9j/om0qIImQfiJ/c5pLHKuNSv5B9HRCziJgFVr0g/1Nn2r1WlJP2dsUI8GksL3lfpurIzMEwj/BKrSSLZECdIUtamjjpJATNaBv4LusS19FCtEP5iqjR0xDIAU50oy7xXq8DdA+1gi0IQIQwGznkz7O/OJcsPNjXiFOYP3TkTo2f3vxudPGhK4ihswjQcT9p33FcR8pZdq4XmHj/bPDCBf3SwEgf/w7PWND+5RvDJHAwOD7qhHJcR4ALraONn9Hm6YTwOjH2/tR+xbiIJhTlDD2LdSiIhgCrGLo0jkIYLBNatERVhllwRlSCzH+/uO//qeYl7efTe6JJnKc+n4ZgEon0xwiyAGRgW2RA0gBUaMXi08j3Rhi4dLeCDCU4wwkJZBMAMg9G9uvra/HvGIchKSNj42O0u2Hx5iU0yWRAuRO9IiFqOZFChefLgSBwFBw6RwEmDfE3FGihs8lYwpOo//+279iP0v0gbYOaUQf2N/0q1JO0Q/0h/NePV+M5yCQtgk6Rzl8Jx2PAPYghJB9ClmB9FDOHxxCMXVEwSDmpZ9oL/OIA8Wfi5AwvnBsChZ1DifoLmIoISL0sz6RPD2f9ihiKGJwdAzpO43JpZA9HkQSIYQ8Qwr5LIWW0xyTsCQu6ojftTsCkmMQw0OWoBcx/LIUAz7EcHZmMrYuICJkwt/ugrzd9WHYTcij//j7TESFdzWHiNVF3338nPYxFFlktUq8/7R15heta+7px8/Lsbcln7OxPcTw+bOnER0gpdClvRHIfTmkn3Q/IsXMJyZ1HKOe+cVpXvFU3Mh3OYyQ+4dPS4oUboczAGKI3BeVZj4igmmnUXvL/LZXh6MXwy6I4bOF0BGcB2xPAymEJDImsCotekMKMjpCOukj6QP9wptXz8PB4CyC26Lv443AwyJAACgihZBCjQ9kBWjT8lhpOKaYiQNoNZKmF8n8w/7+s0IbWBQ9et2AOzY9t52/6C5iiCRE8BgIckoQxJA5hDB+jMIcK+alDo0oIQZGXpkoeROIKbqUDQHkG9FfRYJjbsm05pZoRToeGI4YCSaFZZPq9deLTOnAxyXnVy8WFRkcjD3s8PqTZkokAM8gaYO0f6LIvJ8YHw2DD3IAgXguwxEjMRmT7gGuR749jiDKxwIhtPG/vHkZfX8YATIEeCZdOHmONb9EhgDyJor8uBJNXlCKOdFkxo0YFNrjtnwVVyBA62RF4ZmpqYJViVl9OFaW1f6U9QW5kinyTCnDRACQNYuRDekZYsiWJrT5WNVWx7JA2eLCk1iQiD4hL1ZWX6/ftwcCOHPIGGGqCP09usCYf52TByuPsYOMAnQDo49xAD1i9WKX9kZAoos+O00ToetOtn8IsubSOa6vsio1H7OOCNmFfJ55QM3hdS+bp5fWHViqt11FDJGMZB1K0KtNKokAHh2L6WvgwIPMI6UbokQpDYlBg3QTlAtSyIPvXMqHAAsMsUUFRiAeYFIL2cx+XhEBVh1k8HfpPARowwwKGHCDA0r70uA+pTlFYxrgN7S6IJGAraOdyA7g7jk+L0oxK+fBwvx8ATlAZ9goPfUB7gTKoik4Bdirsk+eYKYDEB0i8rOkOYcsMLS7t6l5h/T9yWFEn4DxT9oxcwvZ7B6DEr1wKQ8CzB/EkEf+fRq/adM4dmoL/QIliGH/fGQNDCkSiPFPZHBdq9PiPGZaCUSRPgCyCckgxZg9TckoYH2CXFdt/X79cAjkHpo2zxzQZ0/mQw/QB4jhtWnhqgD1YNwgYwD5YjOMx+rEthUeTrI3/GXJi7Ea+52CPhAAqjT5sAPj88pxhUQatgLH5oP0GnLYrFzxVbNTSvF5V2o3Qk+Cl1ilM7wOYigNgDSgCOhFzh+mY8mTymv0pRQC9kWeI4Cc8RKSWhbzyjTIs/AAD1aUY6Nil85EANljEPRC7NSeiSKQDsoCMyxEROSISCGlVx5D0gYhj+gG6WLhOMDArJDMzkSpM+8q2r3kj2E/OaGVReXtxwnE3DKIIXOOmTJAYT4i80mnplK/wKIkoTcmhaVSDmQOEST6CxnE4EtRw4vEMN8U7bpXY8BEMRYOAdLPafszchzFlBI5Dtjm5NEjjRnSCQhCGjecXpwxbNdnVoqdlMzw+pP5hS6MaxVa2vVVBXsgRRvHiueLC8QPg1DiKEKXXNobAYggYz2MkNcU2nltSXaBnDp8d9ZXJYu1x1z1mtVKo+/AMXTVgSX7rkdEqFNJ77Wi4M7xEgcE1decBiTJs4DixD+kHq/53qWMCCTSn1IFWV0OTzCRAAgCg0V4izqpdZdRSHd8zegA3v/Do8NYYZCFaJh4ji5kcoBDiAgDhiCP2NwWHaH96+FSTgSQfVphmsUGJHdtVYLRj0MAnaDfvyR39Q8xBljupRN6Sgmnn09bkiDHaMuSaaOS+obTpBvMOZJ+oCfhNGa6iYgE50Ma6RdIOQ2jsM7YbFS3P3s4BJAfacBpbzpdh/QAx1DKAmjen2d7Ia9Gyx1wDn2E5f5w8rzNLycZnp9BN147hufv4QGV/+cH3+BV1FfDFW5wSikO6Wpi2ExCKAulVoGaHevPjYARKC8CefBn/ulZJZU8E4FwFtDzu3QsAhDCMy1AkLp89fuSN0af+/6OFfmNbyz6hEq/wGt0IjkPk4PIPcONofSBRsAIlAgBE8MSCcuXagSMQOsRCHJItYkdxA9kYpCfW/+rrrEdEMhOwCz67Aew3NtBOg97DVXd4DIqChJ6ISUxKXxY2fjXjYARuDsETAzvDlvXbASMgBEwAkbACBgBI2AEjIARKAUCF2diluKSfZFGwAgYASNgBIyAETACRsAIGAEj0EoETAxbiabrMgJGwAgYASNgBIyAETACRsAIlBABE8MSCs2XbASMgBEwAkbACBgBI2AEjIARaCUCJoatRNN1GQEjYASMgBEwAkbACBgBI2AESoiAiWEJheZLNgJGwAgYASNgBIyAETACRsAItBIBE8NWoum6jIARMAJGwAgYASNgBIyAETACJUTAxLCEQvMlGwEjYASMgBEwAkbACBgBI2AEWomAiWEr0XRdRsAIGAEjYASMgBEwAkbACBiBEiJgYlhCofmSjYARMAJGwAgYASNgBIyAETACrUTAxLCVaLouI2AEjIARMAJGwAgYASNgBIxACREwMSyh0HzJRsAIGAEjYASMgBEwAkbACBiBViJgYthKNF2XETACRsAIGAEjYASMgBEwAkaghAiYGJZQaL5kI2AEjIARMAJGwAgYASNgBIxAKxEwMWwlmq7LCBgBI2AEjIARMAJGwAgYASNQQgRMDEsoNF+yETACRsAIGAEjYASMgBEwAkaglQiYGLYSTddlBIyAETACRsAIGAEjYASMgBEoIQImhiUUmi/ZCBgBI2AEjIARMAJGwAgYASPQSgRMDFuJpusyAkbACBgBI2AEjIARMAJGwAiUEAETwxIKzZdsBIyAETACRsAIGAEjYASMgBFoJQImhq1E03UZASNgBIyAETACRsAIGAEjYARKiICJYQmF5ks2AkbACBgBI2AEjIARMAJGwAi0EgETw1ai6bqMgBEwAkbACBgBI2AEjIARMAIlRMDEsIRC8yUbASNgBIyAETACRsAIGAEjYARaiYCJYSvRdF1GwAgYASNgBIyAETACRsAIGIESImBiWEKh+ZKNgBEwAkbACBgBI2AEjIARMAKtRMDEsJVoui4jYASMgBEwAkbACBgBI2AEjEAJETAxLKHQfMlGwAgYASNgBIyAETACRsAIGIFWImBi2Eo0XZcRMAJGwAgYASNgBIyAETACRqCECJgYllBovmQjYASMgBEwAkbACBgBI2AEjEArETAxbCWarssIGAEjYASMgBEwAkbACBgBI1BCBEwMSyg0X7IRMAJGwAgYYPp7kQAAQABJREFUASNgBIyAETACRqCVCJgYthJN12UEjIARMAJGwAgYASNgBIyAESghAiaGJRSaL9kIGAEjYASMgBEwAkbACBgBI9BKBEwMW4mm6zICRsAIGAEjYASMgBEwAkbACJQQARPDEgrNl2wEjIARMAJGwAgYASNgBIyAEWglAiaGrUTTdRkBI2AEjIARMAJGwAgYASNgBEqIgIlhCYXmSzYCRsAIGAEjYASMgBEwAkbACLQSARPDVqLpuoyAETACRsAIGAEjYASMgBEwAiVEwMSwhELzJRsBI2AEjIARMAJGwAgYASNgBFqJgIlhK9F0XUbACBgBI2AEjIARMAJGwAgYgRIiYGJYQqH5ko2AETACRsAIGAEjYASMgBEwAq1EwMSwlWi6LiNgBIyAETACRsAIGAEjYASMQAkRMDEsodB8yUbACBgBI2AEjIARMAJGwAgYgVYiYGLYSjRdlxEwAkbACBgBI2AEjIARMAJGoIQImBiWUGi+ZCNgBIyAETACRsAIGAEjYASMQCsRMDFsJZquywgYASNgBIyAETACRsAIGAEjUEIETAxLKDRfshEwAkbACBgBI2AEjIARMAJGoJUImBi2Ek3XZQSMgBEwAkbACBgBI2AEjIARKCECJoYlFJov2QgYASNgBIyAETACRsAIGAEj0EoETAxbiabrMgJGwAgYASNgBIyAETACRsAIlBABE8MSCs2XbASMgBEwAkbACBgBI2AEjIARaCUCJoatRNN1GQEjYASMgBEwAkbACBgBI2AESoiAiWEJheZLNgJGwAgYASNgBIyAETACRsAItBIBE8NWoum6jIARMAJGwAgYASNgBIyAETACJUTAxLCEQvMlGwEjYASMgBEwAkbACBgBI2AEWomAiWEr0XRdRsAIGAEjYASMgBEwAkbACBiBEiJgYlhCofmSjYARMAJGwAgYASNgBIyAETACrUTAxLCVaLouI2AEjIARMAJGwAgYASNgBIxACREwMSyh0HzJRsAIGAEjYASMgBEwAkbACBiBViJgYthKNF2XETACRsAIGAEjYASMgBEwAkaghAiYGJZQaL5kI2AEjIARMAJGwAgYASNgBIxAKxEwMWwlmq7LCBgBI2AEjIARMAJGwAgYASNQQgRMDEsoNF+yETACRsAIGAEjYASMgBEwAkaglQiYGLYSTddlBIyAETACRsAIGAEjYASMgBEoIQImhiUUmi/ZCBgBI2AEjIARMAJGwAgYASPQSgRMDFuJpusyAkbACBgBI2AEjIARMAJGwAiUEAETwxIKzZdsBIyAETACRsAIGAEjYASMgBFoJQImhq1E03UZASNgBIyAETACRsAIGAEjYARKiICJYQmF5ks2AkbACBgBI2AEjIARMAJGwAi0EgETw1ai6bqMgBEwAkbACBgBI2AEjIARMAIlRMDEsIRC8yUbASNgBIyAETACRsAIGAEjYARaiYCJYSvRdF1GwAgYASNgBIyAETACRsAIGIESItBfwmt+sEs+O6v56Z6i0H+XNkYgxFUR2hnPPT0hsx49/0ihjlRdVgTVR50/Vt2PXILP+QEEQm6cl1QgZNasmtATDq3oTbPj6j9PemBFqMflId+ft9do+lfKvf4607m099TW+RvSjT4ktfkf7Ufqf8vv7w6BqvwqcqxvpyFdfZe+TrL+kaupr/dH6vA5rUPgOrlf9Uu1bb/a7nVCrYzd9q9CsPzfpX7h4n10k53XNcSwMi5I0qnzv03DzoPGeR3nCnObes7P8qv7QCB38Kenp2HgIau+3t5bGYi113l6elacnp6EEUHdvaqrr69Ph5gc1uLUbq+R1cmJdEAX1tfbE3LjGhu1XY5FX5A1/yrdxZW3RD29fdIF6YN14Uqo7vXLLHd+tPcauddeGHrCuccnJ8XJ8Ulxqte8p71TT19vn9p9SrZppEO1dfn1wyGAzHiE/BgDdCm00dRnp+uK7/mONp8Ef7sLlrdAvX/oQ229t6vER7cSgarMkb3kSqmXe7Pf49wT2j36oAfPyDf3H7R9XlPc9puh2B6fS5SVohfh0Mvvr35GB+LU6vnnx3eLzLuCGIagJeSqwCVnbLjeK1wASakYWIqqYZDsxIq2qG/gfBQlHqqzW5TmvJm056sk77Pi8OgoHkdHx8Xx8XEx0N9fPHo0UgwODNJP3FheSBzD4eDwoPj+/UAGowYMDR6DgwPFo2HVp2cGC8u/vfQhD+6Hh0fFvuR2dnYqWQ1K/v2hC/3Sh9qC3qAn+/sHoTecz2fXFUjC0NBQMaS6++Uo6O/HWeDyUAjgBMCoOzg8LL4fHAS5p40ODgxINv1N5YOsOe9IZPBIfQc6c6Dzw0DUdxiXyJd6GtXn9v9QEr/4u7n/h9gzBuT+n88fjQzrMRJ9NfKiH0fWMVYcHsf7i7U1fkddnM8DZ9OI6hwZHvY40Biue/m0Kne135D78ZH6cxy5Z8Woxn3kk2VWf0HRxtEFHc84f3BwGOeiQ5yDU2hAbX+AsYP2rwev83f19fn9wyEgcYfM4zkonpx6PWHwi+I3L6E/+joCALIVEjuUncgptHWeKnZevNZnnVouWkYddpepoyjU2Z+GMU/jP5XAMeIhCQNhwNG5X7xxzsPLyHnx0Hk840fgu1AVndMnZaPD6JdhyCN5kS/Xd7F2v7tLBJDPkYx7BvuVb+vFqh7bOzvFzu5eMTkxXrx5+bx4PDeTDMSI9l19NUmHEslc/rpafF5eUV27xe7ufjE7PVW8fP6smJ2ZKoaHh2KwuLo2f3sfCGSZ7e3tF7t7e8Xq2kax/HUlBvrpqcliZprHVDGj17nkqMLG1nbx8fNS8U3nQCowMJqX1NYxONCpxzMzoWPoWX2f0rwOf9MqBKpy399TG91X+1+T3Fejz85yp81OTU5c+smcDbArnfm2vhHy/7a+XqxtbEbUEALRL0MQg3D00aNiYmy0oE7kPj056YjRJUQf7gPG6iORgq3tnRgDNjY3o//nc/r/13ow/uPAwdG3vrlVrEnmjBVbO7tYlTHWN70DDE/9w1SkDhxCjAM8wjmkzyAMLveLQJB8jf0bm9vq89fimXEfSSDzV5JPdgxl+aQ+oxAZPCo21fdvSBdW19bV/tfDscTnBACIBg/JuTSsvn5ifLSYn5st5mamg2wy9rs8PAJhmqtdnij0H3Y79rvsfWQ8qPaOQxhlyLKvveJaex9nAI9cHyeFAwA9EHcgOwgHIfY+utWovtq6y/i6w4lh8hwkz2ESNp0HAsWDgAdY/xFtVXYoEQVDITzH8iDhdaIOSCWfZ0U49yDLc1Rk7xFnn9fHO5f7QQDZQf6JEO3t7xdLIgN/vvtQfF1di4H/6cKTYnx0NIz38CDdgBhy5XQyRB+WVlaLv//z92JFg8aaiMOrF4uKFA0GKcRAwGh0eVgEsg4Q7QtSKGPvz/cfi3/+8Tb04vmzheLF4tPw+tYSQ87jnM2tnTj+7ftP4QDY2/+eWnODJo1h2KMOZGJ8rPjl1YsYgNCDyYkxgdDghIeFpqN/vSp3tdXtHZwBa2r7H4t//P5WcjktktyT4d6IGHIM/fyOiMHnL8vFuw+fig9floovS19jHCCSTPumvU+J+M/KKKROHIMQxcFiIIzHjga5BDeHHuAYJNqLc+ed2v5HyROyj3wx8BeezEfr5DXOn3WR//efvhR/vGWs+BbtGH1oVpKuJTuByDHyxyaALGBbhMFoYtgMvpZ/HpLIcld/Damj7X9W20XuyKZfbffJ47limNfqo3PRaWEz4CDgPHTl/cfP0ofP4TRAjwgkQAQggEQeH8/OFIe/HEV/QN30CdkmzPX6+SEQwP5LpJAsAez3ZLfLZh8uQoYps+vitdGez+I8Is3HxaHO45nP9QfmF84BzqXPQBfU4Yde8F0njvQdRwyTLCspQTB/CRnDPtL/KpE/GnEI/aJ+xDsUC2U6PhbB0ACDJwGFGOo7N/rxFvI/ogz6nt+g8J5OB8XRT7jcEwLIHMMNI35bhh2EcGllJQwDOvv1ja3wCo+NjYVMOT5keIPrI2K0tr4pz/O34pMGjSVFIIgq4Y0muoBHEWcDHYvLwyFAe6bdMiCsbWwU65IZRt4yD8kMudHuxyPSMxEksfZqOR9iiKGIxxnHwujoo/AKkzpE2lB9CWKoOklPW3jyuJgcHy+GlVLqcn8IZLnjDCLqg5G/vPJNsk8yRweIEoyr7U9P7TaNANNvLMvx82VpRcahIsaqa0LnzPz7VLVPj3Qz6Qi/hZ5geEIMcRphdD6Znwsdu2qKwv0h0z2/RH9Oj07/v68HMqe902dDDkMv1KbRFQgAz7m3JsJHu12Q/OjDp6cmkm2QKm0I4nelGW5uq49Q/x/2gsYeagyHc3iaPfg3BK7FHyIiZLmvvhrZ09cz9q8qU+Bc7lvhBKS9htFWJ9fv37+HbUCf8e7jpzif9vtCTp/U7w+E4Y98j9TuIYo4HnAkbMsGeCOHIP1LbWppi2/T1V2DQNjhNXY7dgBjeZrykyKGtNOQfx2NS0QSApnsfcgkZSiiixrh1ZRpzVlt+C34BMSRc8k6xObHtuikVn/Z2glYyvwnGXghaM0ZwHAPxdEtRSqphArRo0NpVFCoiBTiOZCCIW5C0Dw4j04jRw4Pj5Jn4VgLknAe9aMgRBJRJ5TK5W4RSGJUpy15QdYw7v7+rz8UKfgzOvBjfY7Rt6nvSB8kxTR1EDe7LuoltYQI0ielGEIydmQQQBx4HB4dRkeBjrk8HAK055gfqIF+Sem+RAmJ9nyRoUCKECSeNCCieejDkeRWWzj/VH1DGH06HqMPz/Czp0+KUc0fgvxdLqmNYxSMj48F6bT3+DJKd/kJ7Y42Slv8svw1IgVfvkru0oGtbaV8S46joyMhd9LKUvu/eEXIHp0gUkA7x0jEIfTbL68UCX5ZjI09KsbkJMiOJxxEv799Fw4nSCG6gnHweHZaaUbyJrvjvwjwnb9T25UM9/a+Bwmk7TMG4NDDiMf4JxMAEr+v18nKS4YiET8i/ozbOHXQI8o5dbx88Ywznz4vF1/P1oKI8hv6+Ugx4zcs/suY3c0nKQCQ07+J+CJ3+ntSiXESIHf6/XAIhFwvXgn6gCPh7YePxb/+eBfp56Qbv3m5GFkBZAbQP9AfQDY/ihBCQD8QVdTnRCLn5VQoHikiVSEIF3/B7+4aARw6Ye+HPa55pRrHYzyXfBjTo6XTQBsUjjvSMRA92jFBnmTvkwGSFhujAvqXcDzre+o/PRLPUPCIEhkCvOight8xxDDELuGFp0DCIxyMMOmoxedCZsfHPcWRPmtW+Co8gAher2MOoZQjvAIVJWEA6T0Tsew9ryc8FDoHheH3GVQSJzQzbIZ1qz4/ESnHk7extaW5YV8iFQSv3oTSvdI80v4wEvf0GaM3UjuXXPOroIPA6CMCgRcSkkF5tjAfqaTHJ8ehW6mGm9SYjvTf1iMQnbs6dgZu5pURLSBKgCf3xbOnkTrMdxQ+o43XdwMxkKjtEv1FtkwyZ67gM6WdsWBRI2KY2zgDA0YlpLBRZLH1d+waQQCZEb0jKyBHiZgTyOJSr54vhoG4Kj1APmRxsIAU59QWzqedEyGETOJAIqrMg5TjRTkGSCEb0YPj+JwxBScgOkZ/vy3CieF5JN0ZYHzQg3HC5e4RCB2Q0Y4cl1dWZOB/jowBoj1zIuqMAZC9k5PP4STgimpJX04RRF6cc5XjEHsCuVO+9K7EaxwGI3IaMe+M33K0OOC58z/04ciKsR7n3zvJfV1zSemDs9zDEXT8Ofr0kHpN20dveOyJGBJhpC2jF/T5Tx7Par7oopx9o5E1wOeJMIgsqO33Sc5/vH0f/U6el0jQgDFAX7vcEwJJhsoWU79LkIaxm4BMJmq0V/G36KPrLwlVQK7035kQckzYjAoCDQxoDqGEmftxfiv6ddXf25OzEDXv/KRPdagy1rbpoGBQxxBDLD0U4eRExoKYPx4ABBudNZE+PQ57WHWs8dyBUJRqHRxDWmgyKKrh4qxd1UEfA0DqoOADHQcKmo1OzI/qYfk8P7ccAZaTx+tHx/5W84JI8ZiaHI/5P8wnxJBjwIcw0Mhvaq7RWbBoDQvYkF72RWRjXgtNYCgyMOzK2MBDGHMVW35XrvC2CODRXZEn93fNKSV1mGjRglL7MO4xENANFg1qlupJxx8ZBRoo8ED29/WHkfBUxHBkBGLQKGLIMKQivYpsAvU3NgxvK7mfO/5QKwiSJUCUKOSuNvv86ULxUnJfkx6QHkb/gMHYqED2iABBLnEokHL2lzevlCL2vED2pIjmLU7QAVJS0aFHeo3DiOgh9aN/RKzpD2IOSqMf82ctR4DxlhUkaeOk9hIxGhzsjwWGiASOj5IhsKPHXpCIbOjlC4lFRbATZAw+ejR85ZSAZIAe67eUQhq2xokWIJuMFGLmrSZb49yYzL/h59YjQNYWbRXZ0gb/prn/yI+FxUgBZ9wnYkzEEGdRvdxzf09UkcXJmD5AWjELyjB3uHahGmw5jqfdM58U5yKLmX1eWtbv70b9OI8glQontP5mXWNDBCSSaIdk+B2o/2UsztuJMB4nR04if5crEC1U3wEfiAxB1ZEihZWVZ8O2O7cWCfWkMV7E86Q3MouOFDGEWBKV1MivHw+r//JPlfCTziGGNeBjnEEKGaBzeB+S1nuSUr/OxV1zkl7GMfrDCqNoWZyv13ggGhl8KEqfooe500FRIZTp0exXOMal1QgwwLMM+bQGaAgB832GZQzSmWMwYOhnOV312zFgSJB4mUkpI1JIChmGA4M/gwYr1334rLkHMgITM7iqRn93lwjk1sZvQNiROfOE8OIT3X2uiCFzDnNaGW25UcHATI4dzRfVP45jCwqMDXQIo4F2TRunn+BPenI7b4TnXX9GO43uVlLAUENGLCZEdJc2itxJ80L2EH4MhkaFSF82ICF3OJFYZZhIMYYeKxHGb+nH+vrwRveF0UlfEmOLxoAdkQ4IY2/NHmeNfsuf3S0CtNEggyIFjAG8pg3TltGPRv0/n/XxkL1wXWFMYCuD/e9MIWBKQsoqWNSiZsxTJI240W9cV6+//zkE6PORNaSQcR+HMPKmT8chJPGqXO6n6ctJB8Q5ROopbR3nD3YE88vjrHRy9TXyzc5m+gWyS9jSBqcQ713uH4Fow2q/PBPEyenckD5s9MuSh+gnUkm0LwVz0loiOHf6VVfUUXMr1BHSrdgP1Mv7bDfw23QhNepSc3b5XnYQMUwKkKOEeRNiBoVsRCC8ZoWvzkTyghSqg+DIXhkCeIAbkcJcTyhLpdoL1Tf/qXyqn1uAAA0YYw4j7pfXL8IgYBl5yAGpJqQYoRMXZHPF7+aGvq2I04dPS7F1AfrzRCvOJcL5WJ8th4F4RTX+6p4RYCsBtiKgrbJSKG2dNC8MBgbuPuZ/6JoaDxN08EoFV5YBkX+OQq/QG56R/6lSltENvJD8Bp8zOFCu6lfiAP+5MwQSkZsOJ16WO4Ybct9SNAEid1XB6cMcYlawhejFIjXafiIiQNKp5Cw4nz8eeqExJRuHGJD0MRyPYcn31oerEG/td/Tr2THAfGCIIHNKZ9T/I3tkwxYEua3+zK+jKyta4ZpVrokSoy/I/RmrXUvnrrITfuZ3fe5lBGhjGPGQOBxBEc2HHEruOGwZ+5FPM5lADILISX+iP9c51Jl69Mu/xyf5O6YZYFfGmKJzsAGpz+WeEZBAeoQ7ZBDZIUfkwuscLWx2RbgVOSa4AcJDDypyjb0KG5wYv6HPT1V//j3OZ4yg31ciub7NWtKgghJ91DHEULKKgnD7ezSfRLJOKUDaxDa8AjmFtLngqCMrFq8RfpT8nN5VOoHkacCgRDk4lqNrN8CsHO6nO0QAeRPNw0vIIiDIg6gBy0qzatjW6e6tjDUWk8mT2Uk/ZfU5SCHzDua0GEmsPKm0kWYDzh3eqqu+AgGi+5ABNrBHH3hgGPL5gAz26yIC6A1RAOYpRDtWe47FbGQM7qp9Mz+NAQDiSF0YHXn7AiIVGKd85nJPCNAnSy7gPim5j4gQIHOihMicfhzSyIDdrNBvk44GcWCuEvJkoSEWJNFXkX5IhAiZs8BNMhwqclcfwO8RpSRSlOahO2LUDOu7+pxxl3YXc8sU6YWgES2i/6f9kuqXHIOVsfwHLgQ9wYhkXCBtmWkLKAi/NTUxISfkZJAUGQE/ULtP+REEktyVKTB8pvTPmUgfJUsEudOP49i9ykmDqKgjkUvNE2WqgNo8hJ/IMKnJ6BX9C1LVVyllWQ6kXX1HCuFAv7avUd+PvtEXUJ/L/SEQFrcgT+2bAE4id8iqwNwPcTSRiQ6iXfPIBfnRx18nR8SM/cdxnE9k8rRPP3heVa6ytM8dQwyTBBBW8ugjJAR4+4Jy1JxFJShQzUfoUlYI8pOZ10gnBBFFSU0aasC645fgHnM75PEjaoRceJ/K7RUgz1VhhUOiCNTFJtYsS010AOLv0j4IZGnQ7jAOGczRiWwUXNfJ5zuBEGJQMLeUcyCKGJXoAc/MWYREMJ8J0gGJmNAKp6xcSqSSiPWYnBM/1ufkq/DzTRGoyl2yyIbZbeROP4GxTxoZbR65Y+QxP415R2x3Q3SIaCLppjwyMRwTIYAMIHfmJDGnmcySm+raTe/Rx90EAaIEiZDzjGMoOwYI/jNuM17/TKFvYJxnLirzUFlwhGwEVqyk3acVyyX/n/kRn3srBMC6Vu61fT+MIER+hdxpq/TjRJcX5mcjwvhV25vEmgJahAonI9kDkP8YDzSnEfl/1fSSmFesPoLf5DjWHkAf6H9c7g+BNNZi80viknU86w99+7WFc2ixKBKFU/Tg1FRvfHrtH5iBTIX4zRv97rU1tscB2YJuj6v5yatIAg1xnwv8lnXmOvJpCBtlwYiIouccgs4RBI6BFMaApM7BBkJG7+6fUwdPhKBJtKbS2CvSa3pBEAHkiqeRSeWscojHmVQVVjlj0RnkHHpwm56j6S/6i1YhgA7wGGRgFmHLpSqv/MEVz3iAY66JIkPJEDyOaDERgm9axIAoAYSBdDIMAAgo5GBXC1GQrsbvx3wmfYfB4XL3CETbF+59g+B9O7mnfj2tbEiEgJWNh4fTAjWkoKILnzS/mK1PkDmy10+F7FmtEFK4qzmsyJp5qHEtZxCUu79v/8I5AuDN6uE4huQXrCvnwlDX/cMFpwE6ACFkBUu2tCGD5Kn2LsU5RFTJ5X4RiPYWc34ldyXx3bZwPg/G93nJEqcf85FxErG2AFkDM9PTscUVjn5WP2eFcrYpYX9MbANIIWsasA0WzikTw9tK4eePp/0HxTtv6jevVOdU2ILOSdHDNC7EF5fqqXYh2aasfBDkUB0MbzkfvSp7uX2LKvsd3/L6IQKkEhEuzimpfMYjKRGh7DTpFWLozuGWALfJ4Qz2GIh5uwMMQYy/eaWRzk5NxUCBHpxqQHDpPAQiYihyQLoYWxaw2h3e4kgn0sJFrFCJ/NNiA4eRcgQhZNVLlkk/FJGgcA4Gg0t7IxCDuJwB9OuRMqwUsgOlkdMP7Krtsz0FRgPGfzYikTHfQxpZ6ZDXp4omEUVm9VL6ipukIrU3Mr66egRYXAhHIc4hVjtnLilkAJmTeuxSXgTIEpjWnGLaMCuY0rbZ+mp1bS1WIGUVUuy8ND7Q76fMAeRPtkha5E6ppHIUlp8OlFeOt71y+nYIP/11EP8g/2mF0n6tLtqr6Wj1BA89IIDAtnTHBBL0gANynL5K4cbbXkibHm9ieIVggvhpfiIGYWyAiULIEIhFKKQUeIshg6x4yXNKKXH3cAWkbfsVqWIbWt5+VdtTLH9dDULw5uWL4vWL52EEkDqIPsgucOlABCAIGP5sVk7KEN5hvMkYDiwuAUHA6cMgwJw00gyJJrJlQYpWsNz9SByT0486EKaOuaUY5DH42AdVzh7mFqEDWHeQPuYqse0Fcsc4JFWMlGL04uOXpYgkklZ2JDKJg4CUc9JKFVPUuOAxoGMURTfCNjfscclelyxqMibdwGkIMWRccCkvAkQGWUAIRz/9PtkC//z9bfGPP95GJBi7LjuPIH+MCfQJv7x6Wfz26xuRw2lFC1n51G2+TFqAuIIUihjGuiBKOyfww1zynh7Z82cp6yfLNfM+joEDoBNkGSVyqTuX/nAMRS9VR3pd1r8mhldIDqXgQZoi3X+vJpj2aw+TiBhKQSjIH6IIccTYSBOW8R5xbhziP22MALI70/wB0khiLzRFf5jEztyRx3PTsbopHb9LZyNAux3WAgTMG/pFe9h91+D/8vmzYlEr3pEyOiOvMo2d/mBKuoFhyNwyDIsteZrXRRb/8fufMdiwIAn1ZSLZ2ciV++6CIFb6b5xDsc3Jk9mCFS4XZPgzvzjmHooAQA7pF3AAsFhFnn/IHpnTyirAgUBfwZ5m2aAoNzrde/UYd0SJMAJp258115gsElIHY0sEZQbE3HY5i1zKiwApwkSCIf4fPn+J18wh/r///leRwOFo50SGcB5BGo61rQWpwzgJ2Dvx4OB5OAeij1Dbhyi4lAGBZJ/j1CWgg9Ro84cKAmHZYxfmaCLv+Q67nz4hHIg6CqdBKvqyVuy1rytHlO3JxPAaiaEcbHSPV6FPynLaLyKhjiLIYcVrwOtDdRx4EIaDSGqwkHJADl3aFwEaO6SQhs5eZn9oc3Q8wgwIGISsQsreSE4Pbl8ZturK6ORJH5ybnVI7fhkt99WLxZhbCgkIYz9+TPNNKgYjJIHNbd+dfVK0Oc1DhEQSaS56tJCJjcZWiaf19UTbZ7DnkVakZbEp5goRCfo3RQMg/8gzOwhTlPE0IgykC9Nf/Nf//ENzEZelJwsxP4ljWZTCxLD1IrvfGokMaI86RYPJEGDeOYSA/S0X5h/HwiSsRClB3+9l+ddahgDtmakDkH6cOx8/L0VGANMGFuQYxAEYfXw4jo4ioogzCH2ATEIOiRjTT9AfhD5UyULLLtMV3QECNFvsc7L+hirE8EDEH/LPeEC6aFpMMqWJYivyeWQL8kaFc9Gh9DYqvIMrfZgqTQyvxZ0cZBG9XvKOkxKcVRSCJWpZkRSvYqxOKmKY0g4UWdQxmhV/be0+4OEQoKGnFSd3lBqY5pBACkktIepDpx8pA+okJPmYh0DaGHOSUqRBnkR1JBgPeUVLPFAmkg8n0x/9ZTy+E2xSrbY+OpJWn2UOSQz4MghrF5ggGjio0QCjgYULSDVjYQoMBlJRST0fGDjfxuZHr8nn3R0CEDfaaZoCkJadPxQpJBoY7V/GHhFCIsL1hc8xBteVes6WGPQBRJOYl8qqpmdnaXPs+vP8vjwIYAAyNpBWvLG5HX0/aYSkDrIKJZFlk//yyLP+SsO5p36afptVRkkLD+IvB8/LxafFCz1IJ2cOKY5/bDxIJPsjM40gRRc3g0i++/i5WNRCVDgPnSVSj3R7vyfCm6eCJIJ3fr3YeDL9qoX2zjQB4oRh/+FcJEik95loJrpZPaW0L0wMrxEdAkfYieNdXAY5PAiKIPZo3Qk6DgYTnnMI2s6ja8B94K+J9mzkgUHEkNcYhpBCIgV08kw2j6JOgonpPNgIPToNyZr3sY2BnkknzkuXP/Ct+edviQBRHjYsxuhnFVraPItMsAdifXpQMgh7KhHG6ZiXgnGA4cAiBkQaTk+dfnxLEdzr4UEM1bmTDshqsjiEaNMTWnGUlSaZJ9ps/hiRAdLNYv9EGYN4jnEMMUcJ/aEel3IjwNjOYiREkViMhLE9iKEWGCKThH0zXcqLAHZa2sNUc4a10igRwFcvnqXpA0ojX1RaOFOIaNvkFtKmj9SvsxptLFaj8X5bixJBLH9/+z4cSGQZ5T7DToNy6EYie2ntgPw6ggEifMicB5FFMgaDREofeD6S/hwfixTyeUxN76wgkIlhjf4ynhMZqioD0WEpQSaHHFrhiXFWjyaoqtsoThQ5JNKgeGEMICjWqVY2cmlfBJA1gz8rka5rfiGkEA8xUR/SRZD7qjyDLCxEQS+IDJBqSuoY88qo45MMBzoO0tDmZvYj9ZQUlB4ih0lx2hcEX1kVAdo8c0mi7UebT5FfZIgu1Bc+SvMTBsIY4BgihaST536k/hy/bx8EkB+OHyKCY1pcZluRAchdzCcXWWShCRx8jQrnQSghiH29+I9Zzj6loxKJQP4u5UQg9wM4/NL2BEuxh+XY2KOIFpElQCQpjwvlvEtf9Yn6alYV3pEzD3LH/OJHyhQhTXhW21SQKVJfhhkjRsgKO4lskVE5k+gzWLGWharo/3EgePGpeuTa/z3jN04Annt7Fdw5ySmkafsJ7ADGg3AU6HZYlTTxhMQRmtkJ7X/nja/QxLCCSxrM1fBF6o7VuLEJUAKIXyPDkNPic52Ylab3NBkSpB6gNC7tjIBkLRmRGrq39z2iPZC7T1+UGqoBA+8wBmA2DhEnxAEySeoJGx1DJhkY2BSX9KJnT+eLv/7yumI4yLCU8ehSDgQwBNnEPiJ+ShXG6CelcGBgLA0AMIm6gv7k+Ya8pj9ID6jC5ePrTvfbB0Qg9elnsVgMUcLN7S05e+TkY664DD/k2Uujb1T4WN/Rx/OP15Sos4GexJf+UwoEkGlODWYOGRFDosN5O5IgherXGfNdyovAsVYjZhXqg++sKqxtZyR35phDCMkeaVRo3+EUUvo4KxWP61jSyXfkUGZVY4ghaxacKWBg9WiEYPt9RntH9jwzZjOvsLeXXQZSn85fWnq0dgkVuUL+OZ4VrdEHHMSxsinHdUi3YMu1qqsImyVrmTeW0kHjq2vIYUVlUi3SilCnpFPVmv2i/RBIIkqpZHlAYN4Q8qeDhyTWFnSDTp9OBCIJocQ42FfEkWN39oZjfhlEkU7DKlCLXvu/Rp5pvum25gzuRySJTp+5RHT8RJJyQReIITPXNG9+jsCZpxhRJB2bHQr5HD+3HwIYeswLmlLaONEh3pMOTooZhh6LDtXOLc13QBraPsfoQV+BNZDnKqIneutSUgTo/3fJIlHmyIZWqOZ5UqsPk0JIijk6QX/gUnIE1F/j6EXekeGlZ/r0iPw0ubUY18MQULaBGjnjAyN9ihSKEEYNTU72x22JQBA8MvyI9AYpTMGAWFekRp506Yg+kch0fDqHAFIilJ3U75sYVtQ1GrUkz2pEGPc0+moROexrIHWUCkVhbxM6GDoaDASMwgaHV6vzi4dHAO8Qq83Oa8DHmH+s59/evAp5hgeogQBZshoy8Ld//hEkcWJsrPj1zctYuXJ2ZirmnrDJtZcxf3j53vYKGNwhAyvf1hQR/irdSPuSEk1iDtpFYpjaOqSQtONvaxvR3tm+Ak8y6YmJIJgh3FYO9318XlBkTXIkLfRAZI/FRtbWNpUWnsh+RAJ1YckwLKp6wiIU6Az9PYSBCDNOpnz8fd+Lf+/nESBaGCmkygphDhl2wLj6eVIMZ7QlSZ5D9vO/5BoeEgHkOihHHn01fT3OIOYI05/zvtFetLT/PE5s6limnZBdwLoEjBGcl2yHh7wz//ZNEMDeh+lhu+MMxO5nwUjsd557JUtK7QiOEyACBzo22/vsechYH3yhgc0YlZTwj4lhjdAQPOSOiaW9emaAzw9WJK0vmRAmJdHZUjR0IxHDWpWqP9PvHxoB5NSnlCAWmmHeyHPtV4dRgAwbFT4n3ZC0E44jlZQI42+/vi5ev3gecwsjDUWDTaMoQ6M6/Vn7IEC7h/STTkqqMN5jNiznkY0EnAn8xzhgrilzUyAHRBYwCogojGsuEsajowrtI9urrgRCRzuenJiIFDKI3qaI4fLKqgb83rTSoOaPkyoUEQYZBch9We0fJ8KR9jUj6sgcNPoRtrswMbwK8fb9jj4epzAppGxPwfxziAMOQFYoZu44TkSX8iOAMY9saa84c8j82dbq0rR7PqMtEzXKKYJYBSw6B4Hc3E4rUNMP0H9wLItXZYew238J9ENtHZnGuK8+Haf/2VmfAgPp2iF69TyPCCFzU9mBgPMoyBoiGQ6BdGpH/HUvVxEjNI6OIDoMEYaIBIogHkiBQnkkfJSAFAJ9pJKii6QV4W2gcC4GYlq4oCbiGN/6T7shgMxZJIZoMP9o3Em2l6+UbgT5R0cg44COA8MxrWqYlrtnFcs8OflyDf6knRHAuIcgMNh/XZ2I+aMsMoShyOczeqAfeBRZfRTjAGLweelreBxZkW5hXhuiy4CkH0Cv0BWX9kaA/jrIoSL+L54/DaK/LqL//R8HETlCxsw5Ik2YxSogCyxK9UlyZ5uSKRHKl4uLsb8dK5JCHCz39pZ5o6vDuYvDj/liOHuWlldjVeIXchjOSTcgD6xabNk2Qq98n9GPQwDp21+/fJ7a9/5B8a8/3saUEPp3ZE7fQMFpQL/P9iWrWlMAAoldyPYVLDzDGgPYAi7lQCDasWSKHQexC1IYmX9MBVJGEN+FvZfuJ/EBCGTa4J6RHccCtj42Hw4EdQ7luPkbXKU1uQoSRn8RSsKWAwwSbFp/hiKoA4gUUR2AItFJ8IAUcgyuh3OikMghSuXS/giEnCSrFOFp3hyQd4SLdCzGH1HhXg0u7GNGSgrGI88u5UQAA6B3pldbT+zGViWkkRE5/PhpKdLInoj0QfyJBmIcEDHGeGD/OggB+5uxKTrbnIT30O2/FIqAMQeRn5mejL3LSA179/5T8VaPb+syALXiIBHjsdFRpRbuBFkkdRjCiGH577/9oqyBN8Uz7WOGHriUEwEWnSMbZGd3Lwz/pa8rxRsRhhfPnhazyhrAcYQN4NIZCOAQwmaDGCJnyp/vPhTvP32Wc3AnosZEAmOFcfXl2IAsNIOzcH19M2w/7ES2rvjLL6/0PFH02ylUKuWAHGLHoQvYdwfajgRHMJFBHmHjVez9WJRSfUTMJxVxxA4YkryDGOqYTnMYNbeESyXiqy82KJqUAINtcCB5/TDqkzATgcOOw/ZPx+D1TWFi0kXTdwoj6/tTrUQUQWh4gspApZ6IFup1RAs4weXBEeiVJ4e0Trx6r18sxr5jdPY0agaF2xZIJOeRdvby+bMYDGJekQxE5O7SfgjQErNnmKuDCGDos6hMbcHrh14wV/S3X14X4yICpJQx74T0UeYd0TegU0daqAYvI2mmeJVJR36x+CzmmA2LYHbaIFGLU1leI3dkQ7QHgx5nDm0/RwD+P3tvwt04kmxpQqKoXYp9zczKWvpNz+n//0fmnD4zPf1eVeW+xB6hXaSkvp8ZXKQYpERFkJJIXI+ACIKAA7hmbm6bu5+/B21aX1iyItYu0zjD5fayjIN30dZJMYIHGE/KBEV4jOEf6mJDroRRqFRSl7uFAO0QucwYMGjEjNI4cIj+DvbTRAlw9FKgK0MLYtNC56H0W77fLeJe8jT007T5DTlqmCmcyA5yALr3jHv68ip444V4g34d+X9fhp4uPx8qgOOPgs5HsIA6nj97EjOP39vairUP4Y9wLHKhy60jUKgAH2C4nZ3lOFLkwSCJklfECGdLxHd6qcOh64vqoe9jG2TGWDvsBwzCnlEYCsKtv/VkH6ARhiGKHUMEe0ZfGomDChxMg4AoYwRJLSVNtDeGMNcuKSQo3oZQPCSISkgZZnO5fQSg5ZIaMlGcv/7lm/Do0+mjJMIL1y3wC7TFi/i9FEIURAxDe5Ovi+TNns9i1CgGKAisP4ZRyKQj/SUUg+X0IK/LuCNK8POvv8dYI8Ydkl5I58CGcoAigLcZxYOp7DEOt8UXbvv9qN7uPnR88vBhtb66FmmALDUwaBiGpFabJtrHBBJMHgRvMJEQi14THUY5xEAMeSI5jzx5oQhyWcLggaKNPYXzdt/Zd+8hkEqfDAQMQ7XT1dVlGYaPzg3DfoUuUsVk9NN135cjEZ0BZw8Rw1Vlg7Tq9Wx7tXvvriJAWh9pv7Tpb5TmiQGHE4+MHvr9nt63ELyxsqK1THUuG22ZVGIcQweHu2EgRgxAjIGDcUvnIOtfPH9WPZfcZ14BJihLvfH6OsVdxXDWn4t2jP6OYYiMRz4n3fnWKxwLnmjnMCH2maUWvZ+oIf09JXQ/+EpyAKcw9fHJfdjmrTTCMIRudBI5/iujgUxNSxkkan5PZqmETgiZUy1er1SCohjGhfqDMKBOmImtGJTld3/eLgI0XpQ9jALoikJPJCgEwSDhr3zUjBYSgSTtDH6go7injoEOh0iSy91DAIGO4f5YY/9YjywMQHmGmSygv2SnoXED+o3ZKfl+VtOYcUdMTHBGiokiC8UwxHig3uIxtnHQj+jt7kM/HACM/dxWiiB0D7oN0L08JREkztkWj9C2SRtGoWRsaUQKFS1A1tP+721vSqYk3XEOwTOFf0p9/rx9BKKti44o79+8eBbtlIyApPXF6AF9AjRnBtIXenQcfk/VtpETGV28/ffxE4yHALSkTeIEZowok8aVMeLoaP2FNr24KLpLLzh9nCmCZA/g/CWtkGuj0I/IQcB51ItTEAdROBslE1zuEgLZtsUGYcBBc+iMjNb/zwrH9avOKQbgqXjior4f5+i80PeDZ0bX99kNZvDAgoydNIln8OGv88i8JekAsu50WTLIZZ157/wMI3NVQsVeFtVSh56vrq9c48+bQwAFD68PMwfGuoOSFBhz5JRfRvtRT1gcA9R1pE6jdEA9RWOI1BlVmY/fGAIxi6h4AE9gCHh1FKSCDJs9Nmms9UyVVhaz0IrOpI4ypXUZlB7eQl2P8hFjSzEm687ixl7KN7oSAWaZJf0LOYBGgKGQdB+d9g2PIC+4jighs88yEx1phvAOdGZcMXIE+iNLaP8udw8B2jK0j7kA1IZp09CNNjso/+knWLCac+Ab+CDGjstY5NzB8+/e2/qJCgLndFe7zTFjcvSI5jiGRtERPsn2nm2e6+g32NAcdWG0fdp8bKqLT4wO5IrL3UIgtHS1/6LHQ/ersnlK34+dwHX86Wn7YTVI34cVQvOHJea2NMYwnBQFYZ5SRgmZ8rs/jYARmH0EioMhO4wcaxBTmdNBxDb77+g3GI5AUTIxHFAEkt6F7nOsGQyHw0eNQCMQ6G/3YRjqrWn7GIFFBjQCiIa/ZE/fT1lPH9CEYsOwCVT2OxoBI/DFCNA5pD9o0CmEgfDF1frCGUEg6Z+0RymklM8ZeQU/phEwAtdEoL/dx6Vq+7R+t/1rAunTZw4BG4YzRzI/sBEwAkbACBgBI2AEjIARMAJGYLIIODl6sni6NiNgBIyAETACRsAIGAEjYASMwMwhYMNw5kjmBzYCRsAIGAEjYASMgBEwAkbACEwWARuGk8XTtRkBI2AEjIARMAJGwAgYASNgBGYOARuGM0cyP7ARMAJGwAgYASNgBIyAETACRmCyCHhlzsni6dqMgBGYIQS6WrD+RFOOHmn9ssNTrV+mZQn419KCRWutpWpVa9S1NBsd313mB4Eyv+yx6H6k9euO642Fq5ZY73CxFbRfFQ9QPPns/NDeb2IEjIARMAKjEbBhOBob/2IEjMCcI9CVIXgkg/BT57j60DkKA/FUxuKyDINHy6vVgrblMA7nHIgGvt6pHAI4A6D9jrY9LWzPsbWlpWpzabm6v6xF7MUHVy2M3EDo/MpGwAgYASMwpwjYMJxTwvq1jIARGI0AESPWqdrpHlXvjg6rt0cHsR2edMM4IFK0v9qpDvT94cpqtbS8VhEz9BpWozGdlV+gPXQmSvz6aL/682BPxuFRtdfpRLR4tdWutpeXq+7pVrWkSPGKjEOcA44azgqF/ZxGwAgYASPwpQjYMPxS5HydETACM4sA6aIn2t4fH1Y/7H2sXsk4eCsj4UgGg+zFalVRI4yFne5xvON2ewWrUMZhLnI8sy/uBw+HwEG3GxHiX/Z2qh9231cfj4kWdwOdZTkF7ilaCK2JHm63l5Vaqm/14vaG0AgYASNgBIzAvCJgw3BeKev3MgJGYCgCRIxIGeyenkYK4avDver14X71QVFD0kopKydLcQ7GwOOVtRiHiEm46LBR4DPLfyJiKDp/lOH/TjSH9jgBuhpnSFlShLCj/Yei+6POWqSTbrqnnGWS+9mNgBEwAkZgTAQ8o8KYQPk0I2AE5gWBszQMNZaQVNEdRYsOTjoy/k6VX5oppicyGvltVwYDKYdMUHPKj7HNCw7NfA+ixR3Rd19jCkkpPdZ2IkOQ1GI29jnG74w9zEgitHcxAkbACBgBIzDfCNgPOt/09dsZASMwgAAqvkzAMPaIGh5rwxAkisg/Cp8YihgQ/LNZELDMzR9ozQy00DiMfhG40FiHz3nj6CR/L7/NDQB+ESNgBIyAETACQxBwxHAIKD5kBIzA/CJANiiCj2UomGRmU2PI+GwpT5TUUbbWQkvLVbSrLY0tZDKStn7jfC9cMPt8QUrwiiaT2dIEM+tLbe0vxRIVzD7KxnIVTDYDT6xrjGGML9Q1LkbACBgBI2AE5h0BRwznncJ+PyNgBAYQyElkmGcS5Z+JZUgpJJ2UaBEmAIYBBuO2JiFhPUNmp/TEMwMwzuhX6IsxyKQy0JgJZhhb2skhhlVbtMcpgNG4oY0lK1yMgBEwAkbACDQBARuGTaCy39EIGIELCBAZIhL0SEtR/G3zntat0xIFMhJY8JyIIYbBo9U1TTyzXj3QWoZhFDpodAHDWf0i8larMvbuySHwfG0zJpphVlKcA0QTiRLiEHi5thUT0GAgOrVmVqnt5zYCRsAIGIHrIGDD8Dpo+VwjYARmHgHsu0wZZRH7tTACiRqyMd5wUWmj64ooPdRvLHKOoeBFzmee7OcvgPFHpJhI4MnaWUSDmWSGyWag81YdKcYhcF88wTH4xcUIGAEjYASMwLwjYMNw3ins9zMCRmAoAqj6bRkH69o5O1uNfSYjwXBYbi1WG4oarila1FYaqct8IRDGnl6JVNEzRYZJKc1osaKJMhpJH2ZjXKmNwvmivd/GCBgBI2AERiOwoOm5PeHaaHz8ixEwAnOMQMxDWs9CiVFYhCGpoxgPaRgw7tARo3lkA2Ykhe45I22+YaF9of88vrffyQgYASNgBIzAMARsGA5DxceMgBEwAkbACBgBI2AEjIARMAINQsA5Ug0itl/VCBgBI2AEjIARMAJGwAgYASMwDAEbhsNQ8TEjYASMgBEwAkbACBgBI2AEjECDELBh2CBi+1WNgBEwAkbACBgBI2AEjIARMALDELBhOAwVHzMCRsAIGAEjYASMgBEwAkbACDQIARuGDSK2X9UIGAEjYASMgBEwAkbACBgBIzAMARuGw1DxMSNgBIyAETACRsAIGAEjYASMQIMQsGHYIGL7VY2AETACRsAIGAEjYASMgBEwAsMQsGE4DBUfMwJGwAgYASNgBIyAETACRsAINAgBG4YNIrZf1QgYASNgBIyAETACRsAIGAEjMAwBG4bDUPExI2AEjIARMAJGwAgYASNgBIxAgxCwYdggYvtVjYARMAJGwAgYASNgBIyAETACwxCwYTgMFR8zAkbACBgBI2AEjIARMAJGwAg0CAEbhg0itl/VCBgBI2AEjIARMAJGwAgYASMwDAEbhsNQ8TEjYASMgBEwAkbACBgBI2AEjECDELBh2CBi+1WNgBEwAkbACBgBI2AEjIARMALDELBhOAwVHzMCRsAIGAEjYASMgBEwAkbACDQIARuGDSK2X9UIGAEjYASMgBEwAkbACBgBIzAMARuGw1DxMSNgBIyAETACRsAIGAEjYASMQIMQsGHYIGL7VY2AETACRsAIGAEjYASMgBEwAsMQsGE4DBUfMwJGwAgYASNgBIyAETACRsAINAgBG4YNIrZf1QgYASNgBIyAETACRsAIGAEjMAwBG4bDUPExI2AEjIARMAJGwAgYASNgBIxAgxCwYdggYvtVjYARMAJGwAgYASNgBIyAETACwxCwYTgMFR8zAkbACBgBI2AEjIARMAJGwAg0CAEbhg0itl/VCBgBI2AEjIARMAJGwAgYASMwDAEbhsNQ8TEjYASMgBEwAkbACBgBI2AEjECDELBh2CBi+1WNgBEwAkbACBgBI2AEjIARMALDELBhOAwVHzMCRsAIGAEjYASMgBEwAkbACDQIARuGDSK2X9UIGAEjYASMgBEwAkbACBgBIzAMARuGw1DxMSNgBIyAETACRsAIGAEjYASMQIMQWGrQu/pVG4bAGe97dlbxmVscCRR02GUAgYWFgQP+agSMgBEwAnOPQHSH7hM/p7P6xP5ukf2F+shC3WH2//55BT5iBGYPARuGs0czP/GYCJzVRuGpPk9lGpbvmIo2DAdBVHc30AkOnuHvRsAIGAEjMF8IRH/IK9kw/JywdZ+IMViMwoWFs2pRneWi8CrG4ecX+ogRmF0EbBjOLu385EIg+zIZftoJA1AWX/fsNLbO6WnVOT2puvrs6viJjmMgcl4YiXVHWH80Gs/o6OjstGUH2Gg4/PJGwAgYgblHgL7vhP7wvF+c+1ce+wVxlFIw/hbVK9I3tuptaWGxWlrUps9W7C+c73MO19SXZyX+awRmCAEbhjNELD/qMAQw+HI7PjmpjmQI7nc71d6Jto427R+edON45+ykOsFI1FaMyGE1NvFYa1Ed22IrOj46O3tCm8gFfmcjYASahMCpnKU4UHGansi7Sr/o0oeArDsMvcXaEGzrs61+cqWlbXGpWmstVava31ha1taO/VUdx2hUJ2rjsA9K784OAjYMZ4dWflIhkN1WGoJ0YnRqGINHMv4O2Lrd6lPnqNrpHlc7ndwwDA9Pu73o4QXDkOihoW2rc2urM6PTo1OjM3QxAkbACBiB+UWA7Jrjk15mDY5Tl0Qgu8A6Ukh0sO4fl/WJ8bcqo3Btaalab7Wr7fZytdVeqTZlIG7KQFzRb/SnpS8lqkhxr5rY+u/dRsCG4d2mj59uAAGMQSKEGHsHigp+kvH3/viw+nR8FNHBfRmEYQjq9yNFEI9JJVXnF1HCOl2GOsp4w2JqDtymeV8H9IFTRRBdjIARMAJGYH4RyAyaeriF+koihy41AuEwzqjf4ulCdSxL8Tx6qH2MPrJrcKYSOVyTQYhhuFUbiflJJHG5WpcB2ZJZ6Ewcc9csIGDDcBao5GeMMRBE9jD0juXV3FFU8KO214f71R8He9Xbo4NqV98PlDqKIUiHh/HHmEKX8RDQmPrwaNJ5tdQRuhgBI2AEjMD8IoDDlL4yDUR92jC8FrGjl1R/GdHBBaWU1kbhg5W16rG2R7HlZDWRkaPRivhcnWR6LZh98g0jYMPwhgH37a6HAGYdET6if0dKB32n6OC7o0MZhdrqSCGpo4wlZIwhk81wPpujgdfD2mcbASNgBIyAETAC4yGAlrEgXYPxmWcLzG9wHEY2Q1twVL872q/eyDh8uLxa3dN2X+mmpKCyebjGeBj7rJtHwIbhzWPuO46JQJh2CF15MUkP3ekeVb/t71Q/7n+qPihC+FEGIgI4vJ61Icg1LkbACBgBI2AEjIARmDYC6BwxeY92unJM7y90wmlNqikGINHDh9perm9VZ+tVdV/nLyv9tMwAPu3nc/1G4LoI2DC8LmI+f+oIFIOQtNFdRQKZRIZU0bd439iUPlpmGy0zjDLdtosRMAJGwAgYASNgBG4DgdBC5KRmpCYT48lUDCMxndenMWM66aWPV9ZjwhpmMsVI9PIWt0Et33MUAjYMRyHj47eGAGMDT2ToMcsoBuGfh3vV74oU/n6wG4KV5ShiDCEjD3WuTcJbI5VvbASMgBEwAkbACPQhEFqJdJOOUkx3OmkQ7inN9I30meerm9JjutXztY2IGhJZXJQS44lp+gD07q0iYMPwVuH3zfsRwMDD0MMgJFL4TkL0t4Od6k9NLkOk8IPGFHY0jpB0DRuD/ch53wgYASNgBIyAEbgrCBR9hvkONPMBbuyYPI8Ja4gmlvkQ2CdyyMymjhzeFeo1+zlsGDab/nfq7WPSGOxDZtgAAEAASURBVAlPjMLfZQz+IaOQMYWvFTFkjOGRvGwIVxuFd4psfhgjYASMgBEwAkZgBALoLGXYy/vDg2q/04n5ETqaP4FZ1okeLmstYSKHnpRmBIg+fGMI2DC8Mah9o1EIpKFX1ibsxhIUGISkjjKe8KPWKDyVAM2ZRkfV4uNGwAgYASNgBIyAEbh7CITjW9HD07NOOLpzqQuypNIYxCDM9RAVOfSCFnePgA16IhuGDSL2XX3Vst4gi9W/kiGIUfirZh59q30Wscco5BwXI2AEjIARMAJGwAjMKgIxL4KsQibQO1NmFAYjRuKJPp+urkfksKXvHnM4qxSe/ee2YTj7NJzpN8DcI8eeGUjfHR/IIFSkUNsrCUzWAYrMfBuFM01jP7wRMAJGwAgYASNQr64snYZ1mTvHJ2EQsnQFZWlxIcYbMlPpSmvRcUMzzK0gYMPwVmD3TQsCeMs+abaumGhmf1fRwk+xz/qEGIWRZ1FO9qcRMAJGwAgYASNgBGYdAek+p7IH0XXeadwhpa0ZStkeLK/KSFyN8YZpMs76y/r5ZwkBG4azRK05e1ZW+SF94pMig0w2Q6TwDxmHTOuMwehpZuaM4H4dI2AEjIARMAJGICfRk55D5LB7TNZUN9Y0ZBKa1sJitb20Ui1oNhqiiTYOzTA3iYANw5tE2/c6RwCDkJlG9zSG8LXGEv6uGUhZjoKU0jQIPabwHCzvGAEjYASMgBEwAvOHgHQhTa0Xus97LdHFuoYrSiXdbq9UG1rCYrVexmL+XtxvdFcRsGF4Vykz589FRJD1Cj9oxlHWKGTCmT1NPlPW9pnz1/frGQEjYASMgBEwAg1HABc4E9Ica43m95pnAef4dnu5eqKJaJYULWS8YRmD2HCo/Po3hIANwxsC2rdJBIoQPJLwe68IIZFCxhfuK32UVIoYV2iwjIARMAJGwAgYASPQEATQfTAOF6pO9VY60S9yluNAb8swXJOB6JTShjDCHXhNG4Z3gAhNegTSREkWxTBkFtLfNKaQ9IkDTd1MeqmXpWgSN/hdjYARMAJGwAgYAXSfcI1reA2G4aLGGWIU3tNENEQNGWfoJSzMJzeBgA3Dm0DZ9zhH4OQ0U0g/asKZ90eHEoD7MdkMx3Ns4fmp3jECRsAIGAEjYASMQCMQwDg8UVoVw2qYgObhymq109mIMYdrGmvolNJGsMGtv+TirT+BH6BRCHS0WH1ZnoIU0g8yDg+6XWHgyWYaxQh+WSNgBIyAETACRmAAAWVUaf6FTxpq80lzMHzsHMYkfV3pTi5G4CYQmPuIYZgbfTZHvY7oF2M76fq++EFm8EKwY3IZlqd4J4OQz/MU0im9T07zrOmeB+Z77tHxy+KUOYH0l107pVd1tQMIBI1E90L6SdC8n4++tr6Bx/XXCSEA3SdJpyJDeDzqNd0nRKgpVTPpdj/sMXs8Edxgt+YwkG74WNBEDTRpc/HmCsSNnZHUo+3FOi7/NjldAI7qnmqe0rNOGIboSuuttjZmKG3p1+HvePnzNedXaH2hiKDDeOLCOVd8GayS07+2zitueas/z61hWMaqBUGHUPVLcrWpc3h9FxWRW6XoHb05uIEfg6vxguWEM4wr1JDrIfSZxGsgPlHkFuOz0EgHdD8oyWDv8lzXuR+8Q51niIZ4+Ml1Ctd5Dp87HAHozn9otKjPfhF+tiC61/xWZMTwWnpHL9YXFZ7/WHgIPpgSG5/fyzuXI3CRTpzbo9WX0ClZJ2pVTfqnA/kt5Qft3+utXk6Tm/w1aCMaTardj3p2+II+IHmBfiBb/rjyZFS9Pv51CES/XNOl8AI1QhfaP3K/0OqyO/Voe9lZF3+DAyZJ/yJXdjUp36vDvTAK7y9r+YqldvRpyXsXn8Hfkgaj9Enoet1SaDqybw9+u26td//8uTMMIWRuVa/T7qNqNHoRE4Ux+GQMwvbqw4sT0iUoG2zG9ef1RZeR9d592t/oE4IhRiBrF36UYciMpOwHnhN+kmz+C7EeEGsCtZWrv1RP+cxvsAPPwrjGztnJ+RIZVz1Lzgq2oAHhOSicTgbPHpPmUN9V10/4NV3dAAL9dGd8BlN9Q//SiUL3U+guup2IbuGV1f4oukVrVh3UFfWpLur8rD7V2YUH8PJeUt/A4/rrhBAIukPrK+mk9hrt/nI69eietKfdQ38+0yGUCiZtPtt/yoBRfDSh13Q1lyBAm2xF+xzR7tUyoQ/0uqrdX3KbaPstKQ9LC1qEPL1OaKPqQ041l6Rav/ZdbhaBaJdqm0zUwiQtpa3yFCnzoftJ0p72ry10uoHHpN1TV3txqWKReUrIltgb/ieorT9kQrHMBPJ/EjyAbgEr7WtSvreHB9W99mos74WuEf3PVQ82/HHn8mjSIPE6reequEADYVV4BOU8/o2BH/Ii+KR89qFXaEC96UhIZ1HfKTO9O1eGIUSEMbqKSrGdnEgISGAH44hMwRAS5tGBtNSBqPEv1t9HUZH6Qomkrrpe3UYlG2gYhdShukq91Mlxlx4CKGQYgrsSdDtKId3TRvRw0gXUmc2LzmFbHjZm9MLLtqkN45DfIV8R5BipTIRDSitCGMNhsHAN9FxRKgfbvbpeFAwGiePV45P3c7kdBHp0X6g2tTDwltaBYrA+6TfwAgW6w4d04Ls13aAZY1zpiPsLsgKhj2G5pfo2l3r1cZwCp0R9wdfig04neOBAs8q53AwChe7QCRpBK+jO1uqjE8rgkeRNaausoXooOl2keiqCyI9SH7KDNr8q2cGxwksoDfDRXi039pAB0F0VDvLSzSDR3LsUQ2BTbR760+ahP44CSmn3yHzaKDxAG72uY5J2z73Wl5a0ztyqPtvRn8ALH+ToxNmJacB3l5tBADnNAvCrosU90f6++nu+hyNYjxAyWv009KZ/j/5edMJQjFnQawlAPciLZV37WOsHPtIG91ylx0HrQn+yoBgbCJ9Nigeoi6W8kC/0U7GchWzWlhwTLonAqeh7rvd3a50/2iDtEF1cOiGyWxs6/5J0/4VaR8+e/CKSaQyqb69tiHAk1fcoZ4bejzxQXdRbPtH956HMjWEYRqGYASPuuCPvjTqAYiAWOQ0xF4I5FqsVCfezdlW1lzDohpMyDU15GLvUp8gSDRMlsmY6hAl1whRt1UddCwuaOUpKBOdcJVSG33U+j9K4UMYQcBiGKOYIvYkX0QMFDu8hncSzta2Y2euBjDkUPArkQ6mjs/jzcL9qKVXjvbxyCPWzs15qEOfSzIPGUgjofFA+nq5tVi/Xt+L8mFZadfAuNgxB7LZK3bHL27stBYHFgVkkeEvGAhFe2iouIjz78CGdeOuIhn8YBgNKQn8RG4USuKL6UDhQFrbD8FiO4/AF1zCZEgpH1FcdhFEAH9g46EdzevulbRIpwAkE3aE5G3Kgn04oVsyCjHJ/JuXwSOumpizvPV/WJyeQ6oOPHi6vqc235VxaVjQCuaJra9pD55L9wDH4ilTlAVbqVe69iSNAu8ZgQ9732r0cQzW9+tv9oRS9XrtXH6DvPbfx1Y+W91kMXoDPHojf6CHSwKiqHfVtZ0QsxAxu/1fj+bVnFNqvavwdbf+Z+uXn2nAC035x8GCg0TfvSN9gToPWwk7009DnVMdLWw15r7aNUflkdaP669b94Kvo/0c8aJEDOJ1+2ftUOxoyIjk5w1DOZ/UvOJ6RLyzzhQxy6SEQRiE6uuT70XE3AjiJPxQSl4i4xShcbqOXp7MY2upLr6J6D57g+q6CQdgRHdXNPgZolpJxKLlT6/0KOwS/oD8OqfKze9z1A3NjGEZaoBgDIw4iwhJLEK1dXlEMIGJDdIQCRiPEL4oBjNNv7cME1MN5GIV84mVYXZY1qaoQShSuZ4vIZKcO8+t4ehE+Z7q4qIF/UKAzWpiRta5SOCclPAucCAAUhIcra9rWw4hbFQ/sywDc2T+qaYUsSOMRBXFFHqTv1rerZToR8cW+BDAGIs9WFAGMwQ1tdD7b2h7IW4yRsC+f4n6rq04IoWBhXehw05+0RTrL+1LiieamEt+KjhQHROGzVPqJ+mT094WUCIwHfkfJj1Qg7VMfhgaOBSIDGzIMqB/+JbocbV4vCX8QleBzTcrIc11Dehn10YFTX5EvN41JE+6XdE86kWpFdA86oUihBBbs++kedCK7QzRDoYNGPbpXQfdo5zIKUTCZ7AGFDMWSosvCsOR65Af3eyS+o9Dn4CQ4OOnxXPzgP1NBAPrTfmmn0Az6025pyyjSw9o9KYIv1jeqpcNspzgHC/0ve0h6cowG+OyBlhDA8CQqiSaAYZhOCPf3l2E4yd+QuRiEtGeMdIw5aEC7/0jkVvob7ZHzSjuFfo9W1+I8HATv5CRKZ3DKfK6HP9gwLIks038wTCD+UeGFktFC6E/EGL6L6JK+T6qEbik5hROrZLnA46sOGAaNMQqPO+q7tdHeS/QutDHRvvTVfPI7evyZRDlBnAwKSYrUzTaopnM6OqdT6/wnWjsE3W6lLSdjOVHELX2LTo97cy3VSN0MOwK+m+VSrKZZfocgEoZcMoiiUFBLhIHwyzIMoRFEPQ1DT2MBZECyncmI5DfCzBQifaX0vBAYhmI61b+yrNxz1VfC0pyDAKKuI53D+jPBPNxvSQKpV12ptrGfeO0QbHhViwCFTJMqKAn8S8Nwvfp+837SXTd4e3xQvTrYC4UR4cCYw5Jm+kQGJB0Lgv+gjiBgtOL5RcnHsHwgQ/OxOh4MTrzEqzIEMSi5316XVLNUNCf1Lq5nfAQQv7ThEiHG2Cvt/b06fyK68FvQXe080kyl1LE+1H0p/xznd1iRTp1Prl8WjR9I4X+6tiEqZ7v+dLwf9RVFEgWC9MWMLCm1bKUdxgaGRIVCIZ6fQkxcT+NS6I6SBJ2e9dFpp3NQvVEU/5xOOqekGT5U+92SMlnojkwiikyeAISnLdPOH2tDoSTmuCMFkvpwbmFMwmtrRCnEP8iO+3IcwDfFnww/5TeOukwDgUJ/ZDmG4UtlhpR2j5LOuCyMPuiMwl/SjKE/bR/FjtRi5D405bxRpbR/5D5GIY4AUtVJWRXTRDo5z8F5LjeDAG0To5C+mQyeb0T/D1rW4Y3ozvIOadCdhqOAlF/kw1P19UuL6+FEwLFDiiZtn7gxvINREUahZAByBf54rXaPkw8e+YxDdICj8BKZUBiZDC24hJWuDU7wpZ6Rune6yrTSfXBKNL2AOUPFMqpHpLATevmy9LUl6f2ki2KcYbSn8UjkD70/I4Fcj37Hdh7l41zRlODS4bGi/9rnPOpD748U1Gjlqfdzf/T+yCIUQbgffLRAmi87M1xm3jCEcGGg1UyCAZeMkR6BpSUENv/UiINwSbASEcQjAMMsKrx8dtaL+kQEUoIhIoW6BCOTegkd5xhCIozyJpxmfTARjFIM1PBUlXvnKTPMJl/+6IIlCgJ4X8INj3oo4AKs/PbltfeuBO+2BDqdABEeOm46CryHeAf5jFQv3ZdOBQHOMzF2iChTKpir8WyMPUIlRJnEgCRKSCeEwvfHwW4qGRLOh+ow6BiSvxpM5B4Zbnwv6F4r6oz9YSO6gwMCmrOPgVA6gjJJDAZARJjUgTDbGx1/KPTIj6hvKX5HGaQzplP+IG809YXjQMxLvcVDTGSJOlEsiFzSocNvJ3IyuEweAby4ROuI2kBzPvvpDs1o39D9aFF0En1REqAT59LeMSiSTowJZawIKaQ5LpVPZBXZBqSLUh91cH5L9eHoQoJBc3oYngWj41DXfJQsQsGYpHybPIKzXSMOWAx00vsx0pH70U7V5onq017D8BO9kBG0b+i3IjrRN9DGkfsc4zxcQ6N6pIwgLUV/sNHKVHLSkjvq73EckjVg6X9z/ATW9OH0z/dlqNP2DuXU3VE7JVWcoSrMGUBbxSlwLDmMIYgsCIewor6fdC0RxHAKSgekD4eO8AXtFicQmQf0IZyD7BjGH9HG9Vt/XzDZlq+76ibHkmU8D2Nkj5dT9uCUaCrfgTt6P7o7dEYnx3BrtzEKM3MHGbGo306lpyuWF7ZaV2MQ0elPdP7JqVJKVYdYJDBG5yfQU9JGCQCh76feT509+yDq1ndoQxABGRMT252qH+HgjJeZNwxhiiCmCIphBk1gkFVF98qA0EIjmlGJDp6ctIKhIKbaWgiQs3QABpdkJFAMpDpL2Ll4I7Ix6q/+E2WMKKFu0lkgBE2OczeYc1kMI62hwc03kUcgo6TRmTLOg8540k2HhskYQhQENpS/Pw/TkGN5DFKLUOIpOjU6iyMJWtLFUBDpOIgU4Jn7cCThonPu6ztjjDA0USTfyntIBIrziDRSUakz39R/bxoBDASie2thHNSpZFIS8PTmgP16SRToLicOHThKPcYEnlcUDNLQ4EsMANorCgOOAD5ROjAQ/lDEGaUfYw+ZAf92VB8pPiidGJnwXEasqU98pPq6C2mc3DQu834/2ivtHaOAjYhNjBkWnUjlRNYUOiXd05u/IbqzJhgKI9Ef6Pehow5eshpaM/kE9aIk4shiqngUMgxE5Bh0X5AcOV5IZbFEipA5pJh/XDpU3Rgimao4aTk373Qd9/1C3ksmJ/1zfbe3R2r3MgyIFuX6uNlO6fdp8xiARPmI8MM/GAlEg0g/jHDvCGIhX5jUJiY2Ev/Q3+OEoN0/qnIM6rjP7fMmgIDwR0lnyADZArRLZPc7ZQa9VXstayNzp2N1+RiG0GpfcuEfiw8VXcwxwzgV2mrb9OHQlL6ADZ0SviCiCG8c9smSYU8fJqN4h+swCkew0bBLrzxWaoyMKz0rzg/6sDCGpKNIGl1Zx7ydAL1R9EPvV3SPwuSPGHHLCt6wL3LWBeMQVQ3dH+eADOvQ0TOIc6pg0IJkNTCi6zOekEkmMTqXWhpSokgh+j92gy4/L5FdGM+Rh6AHXwkMnZ3N/hwjM28YFkpFwyZ8LMUuZx4Sc4iSHC+FPRoaQiUJjcUvj8J5Y66JyzERmI3C+TAdhiYdUq+kx+ZM98GrQF3iOTFWfb2+h7PiwjW9q5uwV/DFGERZLt636bx70hKlkHQiNjx+KPYI1hTcurOYgFgfJWYjldKHIojxh2KP0lDSxmKCCo0dRTks4xJQIDEqincxKvKfW0UA2sJbETWS0obXGNpBx+hI4unUmagfwb+PIcj5yIGke922ERAq1IcR2FI9kcKjOuEh0kPrU0JukCt6JIcQdaF4IiuoL5a16BcVWa3/ThgBZDd0IkIM7XcVKWKMCMpeT0VLui/JmIPuOH96dBLdQ7mCTzD2M+Ud7zGy41NNd5SQQncECMMGmLwEJY1tTTOZYWxm/2DCT5jMI6uDxhEtijafPEBbpL85l/c1vSAz9I92Xcv7iPbV/TNU69GYqJSUSZ2H0wfnIY4i+OrwjNm1STVTBEqRJ+UTXbhu5MP6h69GABqV1pXRXuRutmscwNCe9nheRNBTTQi1oP4b2tK+GQRCWy3tFfJTJ/SGHyg4stlo41wDn53zRuz0fY8rpvsn+E56CrzLc4X2oueQ7dLYwqunwZdyl+zAxbABLoICfYkJS4PX+XVugNou7ReZDznFIqHvxxhE7WNEou9n9FE9RN7sXECEkaiDrZYciqo5DUKySepzZ5wqM28YYprBHDRyWW9BjrTwg5KfkQcCs9GBs9HAYIxSwpAJwy6ZhuMoj58bheWKZE4Y4iSYgtEqMlBUKcoFzwbzcc8mFrClg0aY0YEjtPHeTbqAeQhPGYVv5DXmPowLwvDLxt5P5aQ5tI7nkvBfUVr4It6j+sHoDD5JMaSjoYThobpSMPeMg/p0f9wSAtCwOB3wGEMvHAIoCxzn98HCEXjlSBtqHR7GUkp9RIioDwUQb/SxeBce+Lw28UbNe6T7LIuDkBUu00WgYE57xGGDdx9DDronnT6nFMehO3RioYHlPq2K38IoROE/VFciBRHak1Y+iu68IXdB1vM8yDU+y7/pItDs2mnWpIWX9o4cZ7mIaPco8pwwUPKaVPaXQ95jIlA+P5fj6BQ4ChmfiGFInTgf4DmcThgRpBi63DwCOGp25bR7LcUKhxz0oL2O0i1ow1wTY85qehfdUdpZ8AHRQhx6/IycSNomfeNcvSZ8QYCpGGbDeGcaaPAsvCf8nk5rdEvuFH+mccs7Xyf9LJNLhi6vthpjAEco2knr1MOT2qJckFZ/tMNupJIqakgpwaUcNhaHzmVK8ECyRRiC3J9haNTH7XEm9Qek8urZ+jv7hmEQQn/EJEEMdsv+CFrUNA0q6vS+AoF70T5+oM7wHgxEH/suiqbJOclEKUJgtfAihGuBO168U//187wfOAhTlHRSOjDYENKTLtQZhiGK3JFmF5URR/poTEk+5H5QA9rSkNnnFJ6ROqIu7VMHSkAofNL+UPqyg0nVb9Lv4Pquj0BRyGO8pxQFaJYR4lTRB2vsb4Xso9R39YeON9q+aExUULZB0Bqhj9EBXwwr1JF15l/uGjykz1BOh/DesHp87HoIgG1xCNAm97rQKdPChtWUdEoa8Tst+Jzu8S154FBOQeiHFGcsaaF7USYgdqkrDAeUSZyCeoZ0GqX8QMJNXsoNe7NmHgv6SUaXjA6wz8lEhvcvSbO6rapN0+6R69nuE8N+etE3MM6U2ahJE2YsKfxFZJpP7k/qeLTxZpLgVt+aNHGyeKAfDh30CjIFkAXDCnIcww8+iD5c50W/HudjZJFGSoABZ0GmgfOdNGKOZfSYX6ihGI4ZVewwWZ3qGXXvuOAr/+ByKu+JTOJ+Z3q+ppbUy8nk6wV5IkNwJCDCC1rrf8CmPwlfYhg/CVfSSMua5NxDF8lg5COvD+6q6+DneI6oK53B5djIx5iRH2beMETUq1+OPGEmg6EgBEaVQuDwHokRQmDIkDz3DKiKaOBihGS+jCxyn5EFxtD51JWbztT3TEfVw/UCEiOrmNsfhCdUibGcEuYo3dMQoII7lDjo210kbTXHlYQwGAAXSmZHkOsWMYidjoXoIh45BG+kjpGCon9hYnADlzuHQKF7dPYa80ebjY4zuO7i4ybdM10IRY9xhkSPiArhQCAOTD3FIwuvQn86/mGlv74yqcmxziXaSH0oj+aaYch9/bE06GsnDnQKul9BJ3UU0J3xqESY+pcqKHICemFwqrpzOYVM51/9PxRMokUYDMgOUg1R2j5qHEGZCRP57zI9BKBXyGh90t5bShGDpoWO/Xcu7RTDgGUIGGea7T4jfzEWtY9e0DpSSEVbZp3FQKR/yMk/clZthhM0ul/vB/gG96NVQXP1yoz5DmNQUrY4b4fRn/ZLGvCWxpRi5BUnNdFl2i0yn0hhRgwzLRGe4RpmPcXxQ1tniAATVCHU4QfGHjIDKmPJqYdt2P0nAU+Rd/B6jp3WQwAGD9qwgqwH50zbVGsVBiGh+eTLQKFpEw2MSWX4ohJ6egRz9CXqy74EXkBdxx7gHvAXnzkhzUXjEkM0Uk1lP/AsbPNCkJk3DJMPkjmuIgoEZlBpzGJKA6NDUSdBCJp0Ua4PZU7nRJsTj4VSoJtwn2FMp4uibZY2ityI83SA+3DPJhfeHgzw7KFoj1LavxYjKMY9GPujdUkurQ760LEzyQQD0BH6x0fZ8Z9HCFUXQqK/hMhJhus/7P1bRKCf7swteVmB7ij0dPB0+tD/6DSjjEQe6HCT5slHV9WHbEDRKFOcY3QcyjiIqcvFg4P8c9mz+bfrIXBdurc1hfg53UUzlEIUfT4jalRujwxB+tdNnzYPz0Dn6Av0nfRC6sIoXFeaIftEkUhl7Z/0plTpz8kjAHky4nd13eftXu0zZL7a/THtXrQnPQ/6l4KCCZ2haZncBIWffoFURdo2RuXigtYzdrkVBKAWOgVt96oC7TH4aKdMMoaRV8aXc31xVNPOOQ+9gHOK4+eeJqiCZ3JN05yMDB7B8YcTqHXI+sdVvW4mEWhER4+frnq+cX/nffszmoJlGRjX0AJd9b8eH34VCKnzswwFONK+M8MvswxDr4Nu+g2bIIV/GoZdLW+BA4rhSCx3B+7QN++vScZaOTmlJhnJ4FJYA1c9z93/feYNw3EhhqDhNRBzxBS3MtpCaGicCWMS8QTBaJRobvGHA/XB88845ZI/Or+uiHs2vQABG0py5HDr8zZxgZoodnQSeAPp/DlGpJAFb5m0BOPVZf4QgO5MGgTtSQMrdGdZk0hLkky4TqE+ZjikPgxNroaPGOtE9NmG4XXQnN65KPnMKMm6ldCdAp0+aAwpBt0oOoUCIVkOjRljhgMAAxPlkTpJL6N/gHeYvfC9+Ahl8XpcFI/jP1NEACUf+rPuJE5AqIZBiCGPoYeBWQo0j0iw5ASz1zLWdO/0uGJNVPoGopLZo5nKBbO7+gktkdGkAzMD8TOtRQzV3oiWRPnCKRDO+1TZ0AFp12WmcgwA6E3GCOPMdxaOwkEET3AeMxg/VkSZ5U+YvfjVAXIl09lHyZQvxYrnps50XpoDx8ERzJhtGmMPnZ/ZSEGut/wEOr+kgU6E1vFP+8xO2tWSRP2FyKByTHvnck3QQw6KY5zKebbsw9qWQMrMbmmMYQiJCoMwJS2NDJ6ItU9kGAaD6ByMFghe07nYeONRGF7QxgfXRz2lovFqmMOzEkvwzpz+4ek+N/HiQZ7oLHKJgifqKEgDg2IodHT+KAp45lzmCwHaNwp9WYye5SgoeI1REDEU+iMHV7099WEoUN+D2tCk1cNHH8RHpKNOWjm46pn8++cIJN1rOskRhAFPScPwMNK/ULYGS4ryjDawjumL9a1qQ4YC1y+Lj1A4SSdj+ZpPR7m+JZMeFWVhsD5/vx0EoD/RXpR3lhkKh5COkSEQEV61eyaxKQVjH8OQNQ5JNUdmEB2CtqVvILLkcvcRwDBERhMtxAn8VEbcKzl/WcoIZ2BmC2TbJwoYYwqVPcZkQ6xJSqQYxxGKP2tjohfgZCAVnWUy7utzs02qsQwGCYwy+U30I308NQmkilzJ7IYev06i7rmtQzQIvVOGIRG/jtalW6JNa2Ain2QJIh/SJERfLwEMDSWQjRBFvzNnCXZCSV2FFhiPbCxujz0BReA36ivjVWcZ10YYhjGeUETsdIgW1jnlhdgSHEHMUVQcuw2mKpFm4ajKfPw2EcDDl53+aigJdAAoiLEGkhS8fg/ibT6n7z1ZBPDuYgiW6B5rnxW60+HjFU4jbrzGTmoRCiaRQjbGIO2pg8BbzKyFKBDUN15tk31X19ZDoKQNEiliWxWdSPV8f8oyFJkZMMp4h3ZQkN+Z1AQDcHfxOCIFJWKIIoCihkxhoW36EYyHjELpav3mcnsIYLzT1llS4r7WmIROrE+3c7AbMh/FP5wCohO0ZFzhqs6PrAKdD/mgO236Qt9AV+9yZxGAlpE+KroT0cMhQJSPpWc+HB3GesRMTNcfKWYegdIn0OZpwxiQrIvJufxGW6fuvU4rMkJ2Oqp/ZSPGocJnj7S2MQbmia4hCDHJ1m/t8nrsFsYbkcKi8yuktyhdn2ghax2ez2Cagh5hH/Ka62j3HOacMoaQT9JPS8FIPFUaqdihLmdhJHLlgtLM4RN+PP+5nDYjn40wDDNSmCmkeA7owJfkNWDxSogfRCwEg5JBzeAUfYFFKHzOKpnjBW79DwiW7aYfhiaKgYAijwBn4XrGCH3cP6x+3d+pduQRziUJJivQb/o9fb9BBKA7i9lnZA8DAYPh0+FR9SeLl6vTJ/IzykAYrA0ZgCG4LcWRSCH1IT/wQL9WfXiNme2Sfy63iUDd3kUfvPu0e7z90OmVFL4S/bmM7lAQZZBU0araD2UT44GIITzAhENkHBBBWFjI9ORXms4WJfK0nrDIXHBbPJBphEQKC/1Z3B4j78/D3brdMyYsKcR8lfAHEeFIO1XE8L2MiPdKNyaFFBmBIWF63hY9x78v8pgoMY7fp8oKwjgk6gsdify+U/snYszQFgr6IHKAsYcfxR97cvC9Xjio3us8lsLhWhwIhfbU//GYyCGpxq3qkerHMHwsvYIgxJ7uw9q2TEhYrhn/6X3m1yKAcRdzidQRvWNFfKExxhwGXgwdk97Psbr565Y1pXoH4vyVZdYvr8eX96n/WsNe1+oPV+qajEj2UlWXytJnuscslrk2DDEIYRCihDGuUASEOTI0nF4DOvr+AhlhGDZK8kkyDX8vJTMn6IKaxVQHdVGLC4YZApUtMCkg3QA0ZTwAXn2Mwm11+owbYL1DPIisV0haCZ3DDT7WDbx5s29BxADal3RPxgwRHTw4geZHWgcrjUIE+zgl+CiMwl76KBEIeCfqk1GIEmEuGgfN6Z0Dndo1nRgbiOEGXXY1VoxIIUZhae+XPUXwheQ3RoGmQZQEy36BGQyJGmIcskwKxiETD+EoYGzpTusoeCAm2hqTty57Dv92PQRo92w4baBJmTX2vYwB6E+7p932OwWYcARHIbICxxGFiCJOAWQG3XjRFTAgiUixha6g30hDZIxaSwrhqYwCkx0Eb7akbkEqcI4jJ30UQx/jH7qXvj6M/H7nnX4nywO5gAGYNCUyeCRjUUti9J+rV8KeTN5ZCEcgdVOISGMsBl/o+3i9Slx69R/xV+pPPZ67Qhu9us45OyPwFi3LXCIxYQzEUuMtOn97qaxAcFExR7bHicIZ+gfWkgmxhnnMPzJ4vuhb6lUEEh47JRsRXtE+z3LxitkCe24NQ4gDg2AUHiuczMBTiIy3oE2esT4xEtNK6RGtMAVEhbz5Lxv55YQu5+pT9xZvVUxnO9Pc0YPli/fALDb9ofMM4X3DoJBCSsTgoYxCvIeMO3gjbyBpQowHK2kl/YrCF7+wL7wzCGAgxKQjoj2TD8B/TAzDxAOfmChESh9+4HE7cBRG6kPZZAwK175XXXihqY/py3t+5TsDQ+MehPaeEeK1yAxAegedRCPSxgvdxwEGWY6BQCSgiC2UCCJMGIcsTXIog+LF2makK35qH1Wrx+2IGufIk3G5a5yn8TnjIHCh3audQqfSTkkdjwmHot33aMM5kXIqpyERYRQ9DAjGDGM0YBQu1LNAxqyVOqe/P6NfI3rUXVAUUudKTQw9YJzn9TmTQQAaYLQTJX6+vllnc6iNamzZu8OD6o+DnUwJjuhfj/bs0b735TBgCQwKOgt0HzQK+Y3zMSCZ0RReIrKMU4FJa3AWpWGoaBSViI8mUagKHgye09Pxnc2lDwFhjR0YY/+k76P7U8ANfX+lrRTPIUZenCQwQ/dXuy4zlsaneIrjwwpHOYf01FjWQt/TMNQOZB9+mX64+2XuDEPoETMRqeGmUShlDY+fiIvXoN8oHEbwIDaMoI02HVEkdqiYP0OYpPwcngJ94ZNC/cPuET825g8Y0DiFfwi29HjdxOvTgeM5JkJIugdKPQVhzsQDzEJKp4Hi5zI/CJTpxjONLCMGNF2mnCeVLCedSIXvqrdGHlAfvFvS0ohAYQBSHwZhGJnaR5FwuR0EoFOkCkEnJo+QI6DQKSK6MgjCKKwV/cGnRNVCRrFRF39DMRRN6QPC4E+xfn5pV9EhjD+uwZDAuMAoYTKKQ+3LRqj7jfNLvDNFBDAKaKukEBIpZsZpSrZ7OXBq581gO4XWXMu44Yz+aoiJvsdslidrQfskff5dkgFIGjH3KcsYEJ3E6Ug0MiYsUZ8C3/WPY5viqze6auinJhjpnNDsviKFyADkwZ76dzKCkPk4gGnHoxzA1EFb5nfas/7r7IFGXyPNUeoiKwD9AZ0v9ZueDJkkUXiu6Nf0ThiHoVtO8gYzXhf4Y8RjFKL3s+5g0EQ6f/QLaq/o/6mT914WmlM4DsbFcCx9gFjrilJooROHs8oV19/Nn+fOMKQ14/0pOb9ECmEIxhNmtDAjhYUhBskSDEKnXp+AkRmb6i3HBq8J8aHfQ4HgfO3r5GDI0dd8XstcHlF7WZDrDKFZBBuB1JsoTCRAR0H6KGMNuC9pH3QSMZmEogeDSsJNPJfvMT0EUBLw2saEIFIOH0lJQF7vdIkSavIBFASlDNHxj1Nov0QKy5pmj2VwkFpG5IH0UYwNFEErgOOgOb1zoBNpY9Cd6DB0hya092jzMgqYRGYU3VEKMgVRckqyChGFQXFY5PmQR0dppK8hTRUFkbrhP+rJOm5I0A15tiYeIhOEdppDBtaChrtqmzG2DPrLSBiU99ArlG7RHLrR1kk5JzUYBXxbY5MHjYPgFZ3PuUQZmb306dlGXE82AjImFj4XP5zEwrrjyZom0mwS7ww9oBWO32eK3POJ8U4GxxuN+36r7KCQ0fQEQ+V+6iekoEJTIoHI+Eg3v6T907qRO9xf/4NP4JX8N4k369URPCq9FB4Nw5CfLF4CIPRtWhhG4ZH0/ROGcyCLRZScbIZxgp8bhXFx/SdoKQURI5Lrss5x2q3uzf2Dr8Y5v/+ud3d/rgxDiBP5xWIMZiMqYzxCkEt4wyQwCN9HFv3G7+UcSJ0GH+5feR+07uFggSdisGufEMEIIXU16/n8msE65vU7b05DQ5jl2B9hMkWJxv0i5UIEIL2D9FEihrH4uBQ9jELSSHelMDJJhMt8IJB0zw4erz+pw3j04TnS/fqNwhgzdsVrFz4iCkQ91IfRQceMwYBBiPK3f5LjFK+ozj9PCYFCJ5xOYRREpAg6aSFrKQkYhekM6ORYwRHPgZyGtkSNmEgCeVWJvgxDKH3AiEvjMM+RW1EUMTlcpo0AGGd/nfRnmQmieKSDMpkIDiHSx3EKMOHIZ6UmEtEfjAH6hOyfUsmj3xgs/A6/cQ/Gm8IrOAKQNWXDEWr6DyI32e/gi26BMYdTCBnNuEJogYzHcce4Qtp/TBwUyvvwZ4BeGIZby8vBB0QBd3T9SScdPskNvWu5b6QoigfgEVo7+iaOh/OI5OBFvcuvvQePn/OW7sl381fCWAIyBINYxJ40X/Bh0pg2m/R+6KX/I0voqBiGsg8Q+KXOYvTx+2CBvKn7Iz3SEM376NzPTx+8/E5/nxvDEELiMSCETJSQcHI0pnr20RxTeHVjgv6ZY6yGL0bB4Mvw9KkYjGMIox5NYQ7uHUxJ+FrfGVsYg1ZrI7T//N6VzdgDcab3Kd5YojkI1GkVGuaqnAAMAid9FA8ijTu8uBL0zDKGUej00WlR4Hbqhe4oCCj1pJHFDHFqjaSPlfTRmIlSnfc4BR49j0CpPqLO8Mw7zVJ4bhQqGsEMpC63hwAynrQ+6M7YTyKFKGgYAxnRxSiATpfTnXqWJLcx/h9pFlOiT3T2GAqZKpYGYv+bovrDc1yD0oaBwDUYGEQS2XeZLgKl3dNWs91nhgAOgWz3RPSPgyZDn0R9w6n6c5YxYZFyZhVmaQMMP/00lIYYHtAdA5SlELbPlmOG4z+Y5Vi8Br+VsYmhZQ69sQ9+DQKoYNCe2UcxCJH3OIKhDY7At/XEcmVtQWg5qlAX9GbWWpY1oV6O/VHtRvsPES9jo1QR99V9aPO0fWaoxhgJuouPkDXZ+ssVo+48/vHQZXU/+I6xrMieq7XZ8eufxTOTptLPu7meYEkfDYO9nUbhkiabgV5B0BEvGfTW+OEwJJeky8t2YMzgkvr7k5M0KtFYo566DiibgSjZHLq/yJ/GaBjtF88dcds7fXhuDEPSPdOAU0dOtFCELemjsSSFOv1CWAg6rASD8IMYKaJ90TnkAGQMTQw+Zh3jagRHqSVSV8UchLAphKPDMOSecaS5f2iT+Fzx4OONR7DhZZ1GAe3i+ct0svXqiToMjIN3tecQ4Y3iBgUxVgcLRn78i8/BX/39LiIAN6EQkAJGdBgDge0D0aIuhqEmHJGCH2lkOplzz0vdiKF52njZukNRUKfP2CEUTupjFtud42NFIXJdK+qDlS+rz8bBOdIT36G9gz1OIBQ6NpahIU0cwxA6FbpfRSd4CGULZQ8egpeQFdRxdLJQaen6mj/yNTg/Fs/WeUSUkSV0K+eppeIN+wwmTvILFUIDjHGcAswmCv1ZmiJSRxUpDPoj79HarminRBOPj3Ihe/iq6AoXblh/IVJIdJroJP0NzwDPsewRs52SikiEalTa8rA6fex6CEAfjEIcAvT1L9a3pHfBEQsR5ccpxNhvjDRoBP37y8U+Xvqe6qMN0+5xLKOn4BQiK4RLu/IeFFlOfcgJhqnAB2So4IggbRmZwT1H6Zj9z3Cdfe6JU533pW/ieS/j0evUPavngjEbRhzBoJj4RS8DPrEGYUQKeTsJ5vz/+auCo46CJdHCtpagCKcekWLREZsicCbI03d16InI+whG1WNMdd/ISNRnqbPvkpnanXnDEMaASDDHkcYQwCBB2Po4zIJRR4rpgGzoEUo/lIUsk6AYd1ISFG3saOrpUxGf5S4o3I9GGdFE7WOQcm/uwSQ3GIS5MGbtqejdpZF70ewEKoK0zNz1XvvZHIuo/XpooAkdBR68p2sb1TfqKEoqYRlzdnKWa43RcQ8WtfFQ7PD0ElFkQeNiJA6e6+93B4GguzrNiPTIe89YUhRFOgcUOJwRZ1IY6eiRC4MFulOgO95+aE6ddPh4oZ+ozjIFOTxMfZQ1ddLDxhWW+lAQIkIpBTE6sLjKfyaFQI/uhU5aS0xtn+MoeOxTWNT+KjoRYYBuKPXQjCgDyj4K3zdrWxGByGiznI+iZ7k3vIBBglyjsBg2zgjORX5MTrpF9f7Th0ChAePIido9i3afk8YE/Wn3lYYQiBeGRYtLO0X5h17pLMzsH7TIegLSvjv2drvqz3AKIU+IDFH45FgxCpEj0aH0LvPeBBHAUCJSCO2fr25K7mutQrXffdETmnOc9jmqD6etQ3vGETJGmKwAjED6jccL69H2cQaebdwTf2QEOPoPyYVl3XtT7Z7JyBjPCN3RGRjPyEQ3LIU16ZIOMDJiFDHUM9ooJEuPaF0ahej9FPRv+luO84lHAJ1+sERWn2iZ2YEYcgQVdKYMQPT3LhkjUhewKbhPBpfAHemg9q5j8EM8g/aph4ktlxWpZH/W6TMHhqGIJOMMRjg67sTgU4hCxxFpoCKe6KYyurFy/pn0iLhOROVaLP/lWMAyFz4Nw0+MBjPAJPzOfvEYwCC6rGYODXal8Q5yYwO/gwGNLgxDKVooW3TcQZ/oU+PPVyNDfTH5gIQ1xsHfNh+oUxB9RDPujSeQSOWouxXlnVRTFIlcpBzh8tWP5gqmiACtLDy9MuRI93wphwDKAHRPBREjUZHhMyaR+Lxk51EpwpR0J7rAxAXw6RMpGy/kZGD+COoMw1DHl2VsVJIXo+rjODPeoiCgI7CIhRnpc+y/5gjtHfoWA/6lpqc/pxOppaeZcnUVnYLuR5q0QIrhsZTEfcltDEPSU3E2EC0mJZExqsdElZD/6iMwOOERokY4nkhVfyPZUcYzoiwO55CveWtfWxCgTymOQFJ/cQReaPdS0uiDWbZkVDulLugVRt5ZTiBFHVeVRUWPMAC5rsgPPkMfoM+RPmKnwFUofs3vSXvaJpHCZ2EYbgQtGVeKExDD8ES/jyoYcp+YkEyRRfr7MAy1D/U3tazB0uJGjFfEAMz2n8NP0GeI2pGyjlOI/gKDlHMwDNOBFArnqFtf+zh6KTIHo5B0V1KdrVuqXxWtD6XzYxSyYRQuo+OJJp1uGo6jwEY2tJRmqoFNPb1fGCstsA7sKHKo+o+ONSRt8STGKpJqWkpvPGMGplakX5YMRZ5j1svMG4aFADSeyBGu5ToNB+UBOa+PSws/c05s9ZlZH6FleZ2kBPYTmw6ADiSMCX32UkfFmIoyEn3Ea+DSQ6BM4oF3HcEd6R1SmCedbgP5SR97LyUtVDPRB88gHTXKxCiqKFtMNE268kzFE9x7g94eaUekjiwt5HTk6XEe7XjoXem9aSFAezys6QIP8J0Om33ENGtKDaM9PBJtmU+4RNcRLuAYUUQMgsJHGAUUmjb1XlYfdVEHW5wcV/rPJBEAf3CmfUMnaALe0J0yFp1qGtH2IRURBGQHyiKG33prWTIqjcHWotLMdBL9Ct5lZArjTU/PmIUyZz+NqHM8CU/jMk0Egv6ix9B2L/jHa/fZRqHluBSD5+gjcCbAd/ADaYRpKPLG49Y0TXTmt270NDCmjdL2aXu0R/p92n7IXEnny9Rz9Lvev5QbGIcsafHqYE91VKGn4AzkfsiCM5kRFMwy+oJ3cipwPv0/jsBYngSnwATJn7KG8e6Zso7+hC7V9ALG0BA9m0ANtAmaBjYwSDDJSJiCRIN0Cp7I7MEVJYF0pRQyfhBe41T0/lK4PzYBmYXQiDlMMqo4Wscs187C51wZhqQBxIC2GnkYhXJZQ4WonFaERGGoOK76FjThDDzW6iq8LA8CEUIETzImygfMiZdBjIEHQp+R617fu36Uxn9kxFCpF4rs4I0Ho1NG/Q82zq9ECtow2cBbRYCiyCIoSnrhh6G30HV0BuXcQuPPztU5dABMS44Xj/NYMJtOyuX2EAg61EpCeQpYC5EeHUY52PcZrBd0h/bZrgsVUfz2lT7+cfHo/Ar4gzKyPv3O/TAueR7qKP/ySv+dNAIYbaSCohyWItiF+yV00m/FqZd06sl0FE3aMoo+40u32xmBYOZB0rnSoZV0Jl10V1EH1q7jEwUxokV6JpebQYD2hUFwgf66NXJ8VDvlyaB7yPv4zPZ6qaLQ9zrwF3xHCiIOQvaD9vrkvvCey3QQkMYQKj+fGOJMGvRBI4Ax6kr/Hc49zrtEB0v1nVqywA9Zx6kMw7Mw+MlAIfLImMMNFkcPLVH31Y2QORiFZBzgSEInYKOeSdIf/RK9liglqatMeESmRJNL0hdHP5mfqfOf01p4FarSTq9TuI56YvUC1ds5YSwnw9DUrrXxWeqELmQNcm7o/nUW4WUy5zrPctvnzrxhKPqEcYa1LltfxLoeN5TrYbAgauGqmkngO9Uav+GdOFlM0Q+DcC1sCINEaFqf85BfPA2mxKNX0rOYFppxYGdK31HMbSK3Q1iEB1EKHYK6k/nDY9eNEq+uJZQ8OohQHAdEPJwFe6AQ7sSg9IwaMD5lGuMKxn74Bp9Ia0RBQKEnLQyPcV8TvhIZFHk6cyI98A/1deSwIFr44biKaMR164OXuD6jUNeTR1c+sE8IBATxBboTvfkSOrHcSBjwqhBKUS/pYUomD0WQ33BqYRhiFJaJs+ATeI2xpGzwX0SU63pMpukiALVKuydqy/616C86MdQEg45rU96P98xxb8kKJaHGBRgE8EAYBTCQy9QRgGbQDprvdnKZEPbHRZ/2inEH7WjjFHiAdHToWviJT/QW2n+ZfiScUaI3RikTHRWH0KSNQp6pDJNgvgS2Mn6e35paihGI3k3hM9YavwYg6OkZ7Uu9v/9SjD7NMSm9H1cAkcLFMAyhb2EwniHqQPePvkGWgI5dRwb13/Ou7c+BYQiBMNLUccMg40qGmhKFkAxGFV0/KxAb/ltU/XhuztrqFuIe/MkLgklgCr4Oq+SzWpt3gMYWY7RkEEaKlrxfGFSHEs6TKDTaDkJedSLsPywcXqtaOnvoSkfA+BG+Dyscp/6uBo8hBjgrOxRHCYbhNe1jYI8hHx58UkllHJZ2Oc69C925HtrDA6eRIqzxBaJz6wvrCz5SZcO5aJwn8zmXIYDRfSzFHrp9DZ24nq2fTlANObJf5dp3yC5UhPis5TvnIHNwJqBY2glwGbUm/1t/u6f946i7drvXFdA52v01HpF7M26Yxeu59554ImVHPxddo0KfOjYCgXDd7nblECBbp7TNsSvRibTZ0vZD4a8vpl1Dy1PR9qNSxDH6MlMA/S71veS9lBu0/6T9uc1wnce48tzItJKuxCQ3RAsZZ8jzNL2EXi7FHOMM4X3dlpeq+midPfV+IoZyBopXCt/lfephSeIHzku20OccEWXmDUNo0U+cadBmWP0Ih/6OqJYZ07j9XNSJ8C4pEbEQrQaGM9nDnqZ4A8vrNuxBULg+hX3OMDb4+yS/R4cymUDnJB+rkXVBd/gnlHQpa5MoNO1wNEyovkk8k+u4iEA/3RWrufjjBL6FgijDMyYOquuj6++X8+UZJnA7V3FNBAr2k2z34z5CuTfqKBEml5tFoOB/zMxeMswnXehPcA0zbEgrmKR+qZv0K/5InNQBJ333rC/uJWHDfAzoSyyhsxpppBnFms5dZ6tWHHUXBPKEH3+03p88MeHb3anq5sIwvA1EYRqX8REAr0VJdDxeD7Xu0H53I3P0Fw4ihXOaQnb8p/SZRsAIGIHhCIT7qs8Q6NsdfoGPGgEjMPMIFN3krOh8E3BkXwVK6EuKVjEzMuMcGe/MMhxondY9r0Jver83BXsbhtPjIdfch0ARaOTqM800Ewa8Odqrlg9bSsfRuB6N27Oi1QeYd42AEbhzCFhG3TmS+IGMwNQRiHZPKskNFbKr2loGhxRSDEMihl6/8IbA922Unu1iBG4QASahYYzhfQm8TJHIxccvJmrc4AP5VkbACBgBI2AEjIARuAMIkLLO8hQ40B8ou+qRPpmR1MtU3AHiNOQRbBg2hNB35TUZOE06KR4wDMP7WpyYmbYYQ+zk3LtCJT+HETACRsAIGAEjcJMIoAMxdm5dS2RgFBIt5JOJZ4giuhiBm0DAqaQ3gbLvcY4AafpMA7yqNIknEnrHGxrdrVnAdjX7F+mkzPL19VPRnN/OO0bACBgBI2AEjIARuNMIMH4Nx/myhts8kG70cn2reijnOWMLmXKGfy5G4CYQsGF4Eyj7HucIINxakm9EDZ9oAVlE3q7WAvrzcC9m+Yqp428ulf/8ubxjBIyAETACRsAIGIHbQACzry2jcE3RwQfKpErDcC0MQ4bguBiBm0LAhuFNIe37XECAdInVSCldrh6vrlcvO1vV28P9WJyehaOZCcz24QXI/MUIGIEJI8AC0ozdwVPPPuoX65KRuYAcYnMxAkbACEwLgTD5pA8hf+61NaZQ+tATbQ+0T0ppS7LJxQjcJAI2DG8Sbd/rHAEMQ2Yo1d/qsSKHh5qllDWp9rRgLYpZqGM3OAvY+YN5xwgYgUYgQOoWyhhTwq9rnDNKGBkNyCJmTY70dsmiMl19I0DxSxoBI3DDCGgpL8kdFrNnwpkXa1uhE93XPAwci/X6bviJfLtmI2DDsNn0v7W3x0uGJ2xZzjAE4MnZprzzp6GUvT9a1DqHx9VxLGHhuOGtEck3NgJziACyJyOFjOXRBA9K29rUrH8Yh5SjMAo71eujfcmljB52yWKIX/3HCBgBIzAZBHBEMaYQ5xQT8T1b26heasNAxCh0CulkcHYt10PAhuH18PLZE0QABQ1vGFMxL0kIYhh2tCEsUcjYRxtzUukEQXdVRqDpCES2wpKWzVmunq5uVN9qkoct7a8otZ1C+ugnjXtG7hA93CeLAVmEMHIxAkbACEwAAfQcshaQOw+VNfV8bTPGFb5Y34xhNszU7mIEbgMBG4a3gbrveY5ApJRqhtL2QkvpE2s5K6lSSDEMKXjviRzaPAw4/McIGIGvRAB9C28866ne03qqjyR3NmUYtuuxPB3JHsYcfjg+0jmHIZMOFzpKKf3KG/tyI2AEGo9A2HsyCJFBaRSuhVH4jRxUzNS+LVmEXsQ/FyNwGwjYMLwN1H3PCwjkGoYLoaQtSiErOfWkmr5TOhfe+jATrZldwM1fjIARuD4CqFusCcbkV2woaBiCeO8pLKfDFPHr+g3j8UARQxcjYASMwCQQQM6g46zLAGSdQiKF321sa2zhZqxXGEahbcJJQO06vhABG4ZfCJwvmxwCmVJRRZ49HjRkIhPRUPgsMwR26nE+ngwioPEfI2AEvhABZAzjd1DCmPghnVNZGfscx3gkkwEHlfW0LwTalxkBIxAIFD0HR9Sy9BzGN79QlPClDEKMQzIXikwyZEbgNhGwYXib6PveFxDInPoFTQTRDu8Z08iz4dX/cHxYfewcVh2llXbPPBHEBeD8xQgYgbERwOVhZsdAAAA+9UlEQVTE+GVmQD7oKlVdDqflUwzArOJEziiOHUrWMDspqaXOIh0bXp9oBIzAAAKIFhxNbEwswwL2z2QMYhQ+0vjCLek8aRQOXOivRuAWELBheAug+5bDEcCjhnK2odkB11aXtNDrUr2+mNbykUDtyCA81DlEETOi6GlphiPpo0bACIxCACMPww/DcP9ExqGMP2YpXZaMofAbx9iYfIYZSV2MgBEwAtdFIH1NmZnA7KMr0m1Yp5DxhKSOEilk4itHCq+LrM+fJgI2DKeJruv+IgSUxRXpXUQKH0uI4mVbX2pV25q99P3xQfX+6DBmCjyUUkeaKaml9uh/EdS+yAg0D4E6IlhpSZw3GsPMpDMsV8G4QuQIxuCOfnt9uB+zkxI5dPp689jEb2wEvhQBDELGEqK7MDxmDYNQUUKig49X12KdwntapmtVxqLHFH4pyr5uWgjYMJwWsq73ixEoufhrEqgoaxiE2xKiDNT+bX9H3rWWjMMDzVxK5LBbnTA1jfZdjIARMAJXIVAihqSTvjk8iLRSshRWlaGAGCGSyOL2sXWOZSza8XQVpv7dCBiBHgIYhYxNJhNhUzMf35fu8pf17di2l5eVOsri9ZpoL8Y3Z1yxd7X3jMDtImDD8Hbx990vQQBxSYoFg7W3NDtgS0KUY2vaf3+0qhlLD6tdKW77UuLw8pMChrJ3qjFBZfKaS6r3T0bACDQUgYgASpggNxaO9bmodNLOYkQMjyRHjnWczzAK7XRqKJf4tY3A5QikSZepoiVCiDGIU5ssBNZovqcxhYwrfKxoIRPO8BtGoSe1uhxb/3p7CNgwvD3sfecxESDVglQMDETGHZJe+kFG4VtNSPNOkUM21hzb1aLUGIldAoiKIjr9a0yAfZoRaCACyIfj0xxDGFPI1xiwNA6OJRuFDWQKv7IRuBYCaRRi5DEPAkbfuozBhzIEn65tRPoohiFZT2tar5nhMTETsnSaNCqvdTOfbARuBAEbhjcCs2/yNQggQIkckkKKAEa48knuPuuMbSst45OMwh2Mwzp6mJNGnGoG01OlnGYEkdRTlEHmGNSHDcc+ooDnYngxwTnTYPp+9q4RmFsESC1NuXDxFXMyLKtvF1Hxt3lC4EzsfbqYfeKpEhtzweB5esOvfxd1h5GrFM4j7Wf6JxG/zGbCYY0uwrYufWRDk8ncr4e+8MkxDEbWSuUaFyNw1xFYUIdIv+hiBGYCgVDiZNgx6Uyub3iaswjGuKDe2KAdpZjmzIKd6kiTR5AWxjqIpJqesJV0U3N/0B1vZy4P0qrarUxzmQmG8EMaASNgBIzAFyGA45R+lGWg6B9PTt0hXgASQ1DGHBvOUyaToZ9cJvqnjaW1MARJGd3U57oymshuwhDEgb2iyWWKQYhhabPwArr+ckcRsGF4RwnjxxoPgTAU5dvA4CuG4G49eQRrlB1o5lJmFTxUythxdH4ZRTwN47A2M90XRhrMkhaSXJL3s3Rk41HAZxkBI2AEjMAsIkAWTTEOMRBxmrokAhncS6MQwxCjMA3DloxCbTIANxUNZCxhfMowZJZRIoicFwalTUGz0wwiYMNwBonmR76IQEkDKx0cRiJrHoYnNPbTK5pppcxkmqml0QWGUWjLkE4sU2XkGSVxJnvFi0D7mxEwAkbACMwNAtl30if2trl5ua9+kYzvyV8aqaRh6GEglsihPmNtQhmCJduGVNFiEDpC+NUEcAW3hIANw1sC3redPgIRDywdHtPRaL8ci8/pP8LM3YGuMLvD/DtzL+AHNgJGwAgYgWshEBMtXeuKZp0c/aL+kAzKP4y/liAoztRmoeG3nXcEPPnMvFO44e8XglsYINgR5liGDLjHMCx/Y9d/AgE6PRcjYASMgBFoFgLuE0fTO3tF/c3/+sie0pk1ozHzL7OLgCOGs0s7P7kRMAJGwAgYASNgBIyAETACRmAiCGh+YhcjYASMgBEwAkbACBgBI2AEjIARaDICNgybTH2/uxEwAkbACBgBI2AEjIARMAJGQAjYMDQbGAEjYASMgBEwAkbACBgBI2AEGo6ADcOGM4Bf3wgYASNgBIyAETACRsAIGAEjYMPQPGAEjIARMAJGwAgYASNgBIyAEWg4AjYMG84Afn0jYASMgBEwAkbACBgBI2AEjIANQ/OAETACRsAIGAEjYASMgBEwAkag4QjYMGw4A/j1jYARMAJGwAgYASNgBIyAETACNgzNA0bACBgBI2AEjIARMAJGwAgYgYYjYMOw4Qzg1zcCRsAIGAEjYASMgBEwAkbACNgwNA8YASNgBIyAETACRsAIGAEjYAQajoANw4YzgF/fCBgBI2AEjIARMAJGwAgYASNgw9A8YASMgBEwAkbACBgBI2AEjIARaDgCNgwbzgB+fSNgBIyAETACRsAIGAEjYASMgA1D84ARMAJGwAgYASNgBIyAETACRqDhCNgwbDgD+PWNgBEwAkbACBgBI2AEjIARMAI2DM0DRsAIGAEjYASMgBEwAkbACBiBhiNgw7DhDODXNwJGwAgYASNgBIyAETACRsAI2DA0DxgBI2AEjIARMAJGwAgYASNgBBqOgA3DhjOAX98IGAEjYASMgBEwAkbACBgBI2DD0DxgBIyAETACRsAIGAEjYASMgBFoOAI2DBvOAH59I2AEjIARMAJGwAgYASNgBIyADUPzgBEwAkbACBgBI2AEjIARMAJGoOEI2DBsOAP49Y2AETACRsAIGAEjYASMgBEwAjYMzQNGwAgYASNgBIyAETACRsAIGIGGI2DDsOEM4Nc3AkbACBgBI2AEjIARMAJGwAjYMDQPGAEjYASMgBEwAkbACBgBI2AEGo6ADcOGM4Bf3wgYASNgBIyAETACRsAIGAEjYMPQPGAEjIARMAJGwAgYASNgBIyAEWg4AjYMG84Afn0jYASMgBEwAkbACBgBI2AEjIANQ/OAETACRsAIGAEjYASMgBEwAkag4QjYMGw4A/j1jYARMAJGwAgYASNgBIyAETACNgzNA0bACBgBI2AEjIARMAJGwAgYgYYjYMOw4Qzg1zcCRsAIGAEjYASMgBEwAkbACNgwNA8YASNgBIyAETACRsAIGAEjYAQajoANw4YzgF/fCBgBI2AEjIARMAJGwAgYASNgw9A8YASMgBEwAkbACBgBI2AEjIARaDgCNgwbzgB+fSNgBIyAETACRsAIGAEjYASMgA1D84ARMAJGwAgYASNgBIyAETACRqDhCNgwbDgD+PWNgBEwAkbACBgBI2AEjIARMAI2DM0DRsAIGAEjYASMgBEwAkbACBiBhiNgw7DhDODXNwJGwAgYASNgBIyAETACRsAI2DA0DxgBI2AEjIARMAJGwAgYASNgBBqOgA3DhjOAX98IGAEjYASMgBEwAkbACBgBI2DD0DxgBIyAETACRsAIGAEjYASMgBFoOAI2DBvOAH59I2AEjIARMAJGwAgYASNgBIyADUPzgBEwAkbACBgBI2AEjIARMAJGoOEI2DBsOAP49Y2AETACRsAIGAEjYASMgBEwAktNgODsbOAtF6pK/13mFIFTEfzsFKLrk4+a3gsLC1XZrvPqZ9THxkVRYX019WmXOvXHPFXDctsf0AoegFZBrpr+0GgROkGva5RR9fXz0nXrvMbtfeo1EBhsq9FmdX1pp/00G7farDOkSciBch0tfmEx273pX1C5O5/R9qMPSDlQS/B4QOiFLKBcl3bwFDyBcPkSfoqb+o8RMAK3jkDKiL7HKLpC36Em7s61YdjrGIaQFgVxyOH+QyH8+w9cZ3+M+q9Tnc8dDwFodtI9qbonJ9Xp6em5IkcH3motVkutpfiktnEUAuqjnhNt8Xlymnyj+lAsFlXn4uJi1dKmCsd7SJ81VQRORPuueOD0DJqlaRD0F42WllqifyvuPy79o77gp+QFriu0h+7QnzJOfXGi/0wFgdJWe+1VpgD0V7M8p5doD82uQyt4KOs8qU7U/jEw6D2g+xL1SQZQrlPnVABwpRcQKPxwcipZILqFLKhFNDIA2i3KsKdch3bRx0ge8Hku+69ZR9zUf+4EAqknlkdBXlytG5az/Tm7CNB+L9K+9y7XkQe9q+Znby4NQ4hN541SkJGD/F7IBtFRFPjU/886BVTJ6FSCcfh2vUJX03+P613ts78EAeicBkG32j84rA60YRxyDDGPZ3+53a5WVparleXl2G+3l2oeqLWFvhsH/WUMdmRgHB0dVUfHx1Wn09XWqTuO2tBcWqqWl1Wvtrbqby32FMW+6rw7ZQSgF0p796SP/t1u8AC3RoFri1bQf1X0b4te8EPKgOH0Lwbm/mHNT+KF4CcJjXAyQHvxEPRvt+Gp5KdiKE75lV19jUBpq8dqm53jTnWkz2N94hzAKKD9F3qtrqwED9D24QcxgH79vEQfUDuDDg+PqsOQAapXdXM/+AbjImRJ3f7hJ2hv+n+O500eKQ48aHV0dJyyW7IAh2H25mdqs+oH+voDHEbQDbqOKsXhAI8diB/gL+R+tH/x0hLyZNTFPn4nEaAt63+06cIbiwvig9phcCcf2g/1xQgEjWuaR2ZZ7Cflo1I14J5tEJojXUTjytwZhqEg1h5elHqMg2z8hfh4ejEMFeWJCBKeQzqENOY4F4bpomSGYnGKVRmG5rjcQefSVkeD4oF8KV7Jca/3eddDAMpisH3c2a0+fPhU/fHqtbY3Ug5RCjrRWUPrtdXVantrs3r44F717OmT6vGjh9WyaISSOFg6UiT29w+izlev31av370LYxODM0rQOA2N7c3N6smjB6r3ftS/ubF+qYIxeC9//zoEgv5qq59E/4+fdmr6v65Q6DHoab8ofaurK0GfB/e2Rf/H1bMnj4P2tNNBhRAnwKdd8RP1/Sl+0kZd8BMdB4okRsb6+mp1b3sr6nr88EEc4z4uN4NAyGq1VWjz5s276vXbd8EDyAKMgmPREQaAxrR/2j7t9Ina/mO1WaJGYo7PFPozGYXwD06BkCd/vql2xA+7ewfnzgHkxvr6WvAUvPTsyaO4x9raavDIzSDgu/QjQP99ILrt7u5V7z58rF6JHz58/FQdSm4fikdwFp8pk2B9bS1o9+TRo+rFs8fV/e3tCrph5A2Woj8ciBeg/7sPH6o/1b/sqX94eP9e9UA89Ug8xbYgXnK5+wiITVSKM7FkBHFQskLtGr2g6IR3/238hOMiQPsn+6tfv6d9h5JAL6D/ZJTEVtsH6O/oB/qpMeVzjXjGXx0aQ3iMQpQCPMfFM1BeDSVxiU3KXbWchhuqAYKA64theHScEYfSMZTrL/uExVAczxSZCM+x7pN+h8uu8m9figC0gV6HUgLfvf9Y/fr7n9V//fvH6l/aUBDYaNB49zHYUAy/efFM4n8hlANpcuKD7ATKM1AnfINyiUHwzx9+rn785ddQNnb29nVaRgyIEGAEPHn4sPr+u2/CCYFA2ZCySBk0NuKg/0wUgdI2cQygAP72x6ug/z9F/13RCuWec2iL0AX6P5dTABmxubEhHhD9xRuFVqU+DI33qi/46V8/VP/5rx+jLviJjgJDg2txNDyVQYAhScSYQlSy1DfRl3VlnyGAAUdkCFr/LofQv374KYzD12/eV3sHB2Eckj3SVgo57f+l2v632ijb25shG5ZSA7xQN9HnfV0PD/z482/V//7Xv6t37z4Gj9G34PBbFp23xEOPHt6v/uMff42IcXXvLOi/iMHpcqMIlLYL3d68+1D9/Nvv1Q8//VL98VpGnPiDTJJTskjEM9Btc3Oj+vv33+kZ65RQnLlE/QY0wBKBxBB8++599fOvv4sffggn5LffPK++04YMwUh0mQ0EkAlhJKid057ZyAbhOPpaO9pv6oSz8UZ+ynEQSKMQ20CZYOo3kPO071Lot9MoVDaIHAR8XyCCzAmDgqFcNIefc2MY0imc4A1Q48YgpKFjpGU0oKekR+eh48VzwLmMPSDCt9yuxx6JDVqh/JUxCBIXVDaiFCGDgRKMps8QMHDTQCczogof/kIEMAjx5L9StAAl4HcZciiL3337UvTMNB++d7sokMeREoayhwJJRPC7b16cd+wYDyj4KP+vpExgEBItQPG8hwHw+JEiQj2lH2OE+yNYOG93by8MSoxQIgkYDjYQvpCwY14GbT7t7FVv378X/X8NpQ0Z8PLF0zD44QEEQcoF6HUkg3+n+uHnX4PO371EsXsRKYFElYky7YiOr8VP//rp5zAMcRIQDSJCyFZoSlQ5ooi6BscBEcu/ff9t3pf00nA4WACMScprnZZGQBXKPgYABvwbKe0fPu7IASBj7T8eRjoY55H5QfYAvEL7/rfkBG2dfv6xnDoYdvAJdKUtcz488G/x0w8//xJ0hYeeP3sShgR8QnfQFf1LyvofiigiT/7x178E/YlIlfTEa72YT/5iBDD+cBD8/NsfIQuI+COLcQSUNH9SzaEbDiPkPH3H//9f/9bnXtDu+bPFMPC5DplBxtF7RR5xOr5++7b6U9kjf6pvgN60/a2tjcgYYP8yHeGLX8oXThSBGC8celoxBjN6hMEAvSnocS7zhQD0hfYRLFL7Z79EBnHyoaijs/Mf+tNvpA2hwAMOI/Xl2ARNsQ3nxjBMo6x4AjAM5cEXMUkJIFWUzpzCeWkkaMyBBMGxGAThv7CwXEcOMuIH01TSKVunVyt21AmjldRTjM4s+J5cpokAiv6bt++rn375rfovRXXotFH0/yLDkPRO0vugCwocRuM/f/xJnfyHUCBQJFHeUPqJHC+L5nTwO1LwiTz9f//7n2HwERHinG9lRLDhQUKCvFfaKvf7/c9X1S9SRuC5ZY01u7e1Fa+8pmhiMSKmiUGT68ZoI7Xrl1//qIgSYvBBfzz5T5UmRrogwh76k2b4TzkEiCCQFoYxH8aBzkERJBJIutlbRRt+IioghRG6vpBBkNvTMA5o1XQw8BG/ozC++/ljRJaSnx4HSfojkU2m0bTenZRAjLGffvldbfW/wvCDHzDO/tvfv1dUaDOUfNo0aYXQ/b8U6fn1tz+jXYaU1p9tKffhQNCDpvKAs2E3jML/53/+r0gxJM3whSLN1E36MAYkacs/Su4gK+Clf//4c/Q5Tx4/DLnSaq1O69Vd7wACKHK74oU/37wNB+H/K34gc+cbyWvaLk69+/fuxZADHARE/WjjH8QX0O+TnEVbiiDeu7cl3lgLeYBegOMPpyO0xflAVBpDkeghzgUyBjAucSiFYjnwXP56txBIPREnMU496YBMTCQZUAIF9Afwksv8IAA5kesYekF3tX+GkmEftJeYQEzjwvU9eEMn4zzkPNo/BiXXt/Q78gQDMj7mB56hbzI3hiENm7zh8PpASAlt0gGYEAKFj+8090VRuZhrHdH5PNd4SR4FKRqZUprjEHV2XDsUub6DGY5Ob1MMXG6lN6KJucl9sEx1F+FNgy0KP0o6HTMd+3ONGfnbX76JTpvxf9CHiEFLRiDnEPVh3CDjRDDuUC5p8ggKJpp5K0MDRfLo+CgUPIwLIkGMS4pxJJIM8FJMYFCPSSFSwTWfdnekPLzS5CZL1f372zHmhLpdJotAoT+OAQy5V1IIEeJEdjHi/6rUXsYSQn8KBgP0Qvgzjgj64/V//42UPI0bgvYIfsYm/fqHFEAZ+/DNA6WHffPiefX3v35XPZRiyXeYBWcDhj91YSjgmID+pLOiQKKIYmy02xmZmuzbuzbkfEZ39wNz0r5J5fvmuVJFZQww5m9DUTvaPBGiMn5sXxElokXQ71cZ9YwPJb0UmYBzgKwCZAmGHoYfWQHPNR71u29fRN0YfaSP098wZhHHD3TGIYHB8EHXwFvwEinq1OkyXQToB5AHe/v74SQkZZT2vCVZwLAB+AE6b66vp7In3qFAN6LH0IysA9ruJ+0zgRgZRPQNOJMwHN+KJ6D1y2dPYzwiTkV4hfaPk8DGxHRp/LW1l/6Cdo8DF9kOPWmfKMH0C2cddAp6dpf5QiAz+aA99A3ZLGOQDEGctxkJlM7Pb5C/5gEMQ67pik9OJA9aZ6Uvn3+Nbi4MQ4hdPEEohzR4xpTEIGLSQ/W9R0omntH3Oix8cnocQqKEmhda/I7uJ6NQBt44YiL46Aymy2gjA9AjTK37cG+XySMA1nTIKAF03ihldPQPZIx9+/KFDANS+tTwpSBAGDxGK1L+1qXMMZMgxgQbyh/eX3hl7Ww10otQDD9++hSGBuPQUAb+29++P59YolCU2S0Zq0JBGSSNiXQmjIr7MkqKwgA/ukweASJGKPmM+0FRo80xqQyKIPRfE73hAVozTh+Mg9XV5eCBj592M/UQ+otmpAhzLimEGAyMLcUA+ObhMzkZvq3++z/+Lv6STKkdAcgcxqxhfBJpQCklRRkF8xelNpK6hhEJX3F/l8kiQKe9L9pjyJMGeLB/WN0Xnf7v//hHTiyjTIEySyx9A+0YQ35f5zGBUBmPynjTMBSZMEr8w2/w0m9/kBq+H1GhJzLyqRd60t6DpyR/qA/jcEPXftIzELnc3d0Po5JxptvKHEDWuP1Plvaf15byHQffG00ShsFGm8SgJ3PkWzl2aIcogfQbtN32UjuMRRxLmVZ+GFFi+gPSgNckJ5ArDDkgjRTHH33LX755KX3hpPpBqeMYi5zrcrcREMmD7uh4yA0ihWkUpuMffTD1vxxycrffxk93HQRo62EfiPY4BCg4A3JyyDQMe+oZWj8qe6aNHhwp9fSMqDKTE6WNsXDmiGGAOCt/UL0gMOkdNHTWl4sQsb4PFg4pcaw61TmYjOEtqhkoJAhHQ5fj19ElmE4/4z3G8OB7GISql08rBKOx+/pfQtxHRBflC+8wk4tgkD3WmKFhM4Ni5kPr++rkUe5IKYqxR4om0mHopzAgECB8p3AeBsWWIk+ZetDzpSziWZYBEEqnzkH5QIhgrFIH9V3GP1+PQXNrANvAVykeRAJR2Dc21kIhZLZZFEPo1V9ozXiKMQ5wIjDtPJFEFEnoRaoJEWgiBRgbRBmI/DGLJfvIhP42Tf3w3nG3IwPxXvAcUeZff38V34+lkPI78qb/uv5n8v6XIRCKnYAl0kfKOHTEAHiptEEmFckIYJ/s17CAbnc9aIRsIFUUI5BoInIbDyByHHmAgR8ZCDq+LbpjEJCSznXQnD6GwvAEIpLIFKKVyB5S0169fhdG4YunT6uzdVWsYvoHDFP9A81jdlEZ69CUtvvofvYFgzRYlxMQHYGx4CiKTEoTMkApZMhwJDeyn/Z7X1koq2srwQM4nYhUwyM4FB0RnipJJ1457bBkkEHfMta4UnfvNjpxuO9Oheq7I5tPUZ+MGBIp/DwjEH3tjMgQFsKCDMnQM1K3p5toSrmoOc3wW9Ooy5ieMA5hgLoDH/ZaoeRJ+PcrexD+OrTnfKJC6VGow9S6J8oD4WmX6SIArfDYEyVKw2A9DAI89cOEfOaVy5hTmie8QgdBgX4ohVCfc+js2UodnBVnDpA0eAc+k4JBZLKnNGKCwFvnV3Ibl4kigJlPFLgdESKwD8NQBuIDTT0/rO2TJYAyEPQPpQD6MGlVTjiCkcB4NKJ/fOIQeCSDAOWxX06U1wiZo3pQSO/png+lhGJwvHv/KlLYMDJOTkk3vDjrbbnen1+OAO0X+pDm/d+rv1cvlUIa48iI0obxNtBY61vR5rO94tSRnA5ZjeWeTiHoDg0Zc4ZRQGryfRmHRAdz9uJevdCfe/Ebs92+fP70PLX9kZ6LunBEYEAWWfLlb+wrL0MAuj6UQ5B2T0QPaY6jkGjuMOyLfEbew0u4AUNmREMXO6g+DH0ijjR+6oilSeR0IIII78AJPW647On8220iAI0U6Dk3CBZW0jjIdkm7Fx3VTk3N26TSNO+dQ8nayh6kHdPOg/Zq48NKygaavX6/cErqHAMHh1Ux88fmxzAUkSE2REeoR9QQwo4q9Bx1KWd9xgflhBGfpKfluMac8YjTWkpFXdKAVq9nNAK0CR6m4aIcMvavs92NWUD5TrrosAK9IhooA4BrUeowFMIIDCEB7ViGgFSi1TiOksFEJcxwxzFZAUiMkBdEFRmkzPTojEWiMPkMCgljT+BBlykhAA20kR5MhBjMmQW20H8Y9hj/0KwrmlEivQwewAkg+hNlYEwBkWTOC16AliiBQ2jJscJHpKhiIJB+RopyzFArPot0YqWkN6EzCVBv6A9ynqjvIpFhfZZxhPAAdDzf9DyZ0aG0Y6UNMhMl44hp80wcwvlh8KlFZ8Qwl74gGkSEkGhxRgrb4WHuf71Cf56Duhh/SBoy6YikuMJH0D8Mjv4LvT9RBErbxDmIMQ/tKegD8AbZPDiAKMkXGpsuHiCFHOOd65HXpI6zLWkYCjQjE6TFkBT1ESxej5yAb0gxZhyiy+wgED22uuOSRSbyhhM4VP2wDN1Xzw41r/ekdN20Z3X1oZPR3nEkXUbxIkM4K+V83vOya673VHf77LkwDIPQ4KyOAPnPd6g+ioj0GxElkJeI/WScmllqA2EcspWZjqgrmS1TSDONdJwafM6XIlBojjK+KOUNBQwFj86bz2GFdDPGFpEGhOLPOCCMQFLPMDAwDlAMmGCGqAETUPAZs9L99Ev1+MGDmNoeIcP9WScNJfA3TTbCzJhEiDaVzkjkgElPqA/ecpk8AsAKHRgbGGO/ZNBh5AcP6DNkwMBtcQpAL8YGYcjHmFMZBpl6WK87GtdQO4YiRkXKiIGqLnzVacF/1I/CyVqXh4eKFul7RKJrRfXCRf7ylQggr+tU74UV4S/FXXSnRBaHZDuOIKDHaDyfpEhjgWnPOHmYZRTeiXUn1VZPxEPMSHcoRxCzUWIgYPCFbLikIYfcWFmN2Yj/aL2Oe2FwcN9wDNRGyVe+sC+/BAHaO0bbij5R9ktBwWOJimjL+lN4AwcOE1aVScvW1xgvfC9SgqNPEXNhZIazWVFFoszcY5hcKffy591FIJtv9scLYg++s8EXLvOLAO0VGkfaaBCdnr3mA74PKUVGoN9zCiZBZJrQ4Yy4Zkg1M31ouAY9g68UHcMYREMOMCaEFB82Cgpm2VL4x+FL/9DhwDgYGHzCOGVZDPZdpotA0kkRI3XebJeVpNVppHlhFKAMIC0YN4hRQEQArz91MqEMyiIGxIZmsYvUQE1ss/DjQlyP8o8CAo2ZCfGNJr5hbSu8yESJUSSZ0IIxbsOiVpc9p38bH4Ggv06HbmyXldJWMQ6YpIjlTYgEQyOiAtAZ5Z/zkAMYl3QkKPZEmDAWSifBfUvhfDYMwJjiWsYAE5kQbWLZC+QLxonL5BFIMqQxQHukFHowBmxfxh3RX+jM95ixUpFcJpYhmsdYNBw4jB8kWgRd6Rdo3xiFOHmoF/5AvvSR/bOXoZ3joNiSHMGQwCjkeu4f9Fe9LtNHAOzZSgH/oAUZANqnPUNf2iozjf6m2YeR88gP0oWZSIqxxCXbY1GZAmQVlFL4q3z352whUGTGZW15tt7ITzsOAtA7++1e3z3quujPpc8z3wCym2vTNrg6yjiqzlk83pN6s/j013xmiJ5GYS5uiicRwpMqlmuZ4Eu4uqAkwjQYhcW4zEgVA1bHqeHqe/iMySFApJB0UGYvZf0qZhAlMvhA44JY3DpmpFR0AMotiRc2FEXi+F+0Hh4F4/A/tUYeigQRxjBKRGeUDiYrocQ4o+f3Yp07riWdtd+IiJP851YQQBGE/hiErDsIHTH+mG2U9D/ST5EBRP5JLWSyCaJGjDP7UcsQMLsp6aqD0UiUTYxNHAQfdS4zU8IPGIoYJNSHrLBdMH2yZ4eeyxX9rkj/z5ohlPTvSB89OIp0b9orEVzGgpYZK5mchMggQaboH0Qz5DobCkFGjXJm25FvIVmAIyHHneUER/QL1AftbRaORG6qP0SUuHYE4hD8oEmliOgTzT88UlRYThza+3eaUIYxqjgEMRKdJjpVsrhyI3AnEejX63EgIb/pG8hEiYlr9NRN0ekaZhiSZkSUrx5rps6fcWZpGGb62Th2HcZljC2slYj0VObUtygTLncLAWadRGkvhiHppH/59pvqe22kh2ZEIA16+IGNsUUskn4sAcF1//z3T6nsi2coKHzwCoLi6ZNH1f/4v/4RC6ujcJKKSmmKEImXvcN/Opo1lIgu0SIMQ5YTCfp/902MT8WIJwKMMYCBT+RgR8YeDgEiP8xI+ZfDl3Im5LglXhX6Uy9rILL0xSdtO1qqgggjBuNJNzMSkBX8c5k+AhjjjOv7XUuN/M//9Z+RKohxyDIGGAksUfD9dy/DIfBc6xx+J8fPiqKFdPxFEaB/IKUUww6eIHpE5PCyfgHJQR+A3KDNnzsFIpXVtJ8+5YffAUcABiHOnR9++qX6WW2fcYW7arMYhKQT/8ffv491Sr/XJDO0e+jtYgSMQLMQCKeg+mrkPv03c0cQ7GHCGtZDz+FhqSM2AZlGGIbFc4viR4iYjVIWsmVwOQbdZZ1/PzMQCYhQs5QIrqOeMA6lSIxbR3993p8OAowjo4H/8eqN1qr6LcYM4vlhsppY+FiG3/a2xgL2ES1SATV2kMXP//V/2rsXNimqJA3AzV0BxVvTioI6zjP//6/sM8/O7LjqqgjCCKLMjspF2HjjVLYlVGPBdjZU8x0tqjor82TWF+cSX0ScOF9d7s3KDRC8S0gDT2OX0vcooYgABVL44Fd1D8kKWJmEoHU4aX2X8nwQmMLGrCmjHAofs37AdhbCCCmDMg+SX+89Wo9pe4KPStYmAgQDsfiq9izT54UKkqn2gvDxDgpFs0E2+VM2eZ9HUpuRClsMQlrAwcjfWKyvyhD68aX3O0xU/5QcCjnUHhiB7El3ufaaLJ9eZzI9X15j1+4S+BLY72W2+82eP4ShQJtQtI/d/35f0Z7X54v9R4D3D9mTbEq7ECZqKyGvJu+lD9he5OtvrlZ46b1uHzsP3m7CaN1pShAIAocfAfzAPoUii+j15nrzfxPD4gYMh8s64uFHpCLnXoYfab4mfMTQ3lUaAUELHyV0xHBdwavrAY9jNSKfKZVdTzWkXqD+MgC6Ib9xyhiKGH762f/05uWni9hNxPDihfd+t4bEz+JZsAbxSiWU+fzLy72GkPcQMZQa/5233qq2MtqTve6sWbtZiWdGJsqrbXFmdX5v53yvXWslMcrhc2kx1hRRAhHD//7iq/YYIvfbJUOhY5fKe3SyvEjDKFSqfPXhc7XVyUflSTQp2Oz+eiWo+KoURyTRXnXCzfR5kweygWQYU5BC6ewZDn7zMlWdLfs0gLkbgH62SwwrPPThpSLu7b2tNlDv1hUK99W3f7h9u0jgg/YIIw2MONqF8RwjHKRu8cR98MlP77LJ4uy9r1dPC99fKc8DAUaA9gJWmPhrZ09v7ZSX2PjuJWrEyxjO8COiQAZThh3tKMTweUgs9wwCB4tAj9vFB1qnL1JoLt+dS2p3gc5IbN3ymMgP9uGe490ONTEcc/pwD98rUni/wrscsw5w1xpQCuBQ3v94+h4xyKwLI0xskMIRQtoZKJ+jIHPrgYCO3uEAJW9Z566VQi+7qLCiM7U+kKeIt1C4p8mfEqC4zkvI6TdXr/e1DysUjEfJGhQbG9sf8Vx5GFt7LNXSujXrCc/drIQFRTAonMIKhZ3yGvY9jvxGPPpG+Wd2BBiAeASsKUToZI0lK/sNIuzvVxuwKbq/jQVDgR+KPC+DBELCgz++dLHDCHkGJTPhXbANhQgBfV+IIe+U6ymV1q8xFGhX/u4QRO3rj4eW2TF5GW7Q67sLb1uXgJyHkId48ux3OHF5jYQUIwTCil8rWe9UsijnM+ypQ/TH0ZKt8Z5xyXhS3X3vUuPGvVqvLsmNMYSx0fyijUxta++L881cCJAjQ40xXn9kAOgogmoXxmZtQFi5dnDn7p1KInajzhtbVdj/cHlsmOsZU28QCAIHj0AP5zVWcxJ1Yio6Q80VinHD+G0ctx/5yziGH25iKDioJ+1hCTDRaxDHa6I4KXa41oSsO3mrR6gQhdP6wvvViE6WgtgNaKFQdKvKP88VgRJRT/5CQoUO/v3TzzuUrPS9JnHCBJE8mUiFC1Sv7+clW0rk7QoLlKCGZ6EtzpW18E8fXtz6uF6UBm1mUvRZmZAQ5NFx11E6EVHHeJ7c48SJ9cOUnyt4h+Dm+ilP4S937m1dK0Xvvz77YuvH8uoZ9GWgFD6qDezK/5HfbDJ49ai9Md9sAmiD++vfMS7c6HAzROHE8Ydbp46f3Hq9FE0eRAQT+UA8vrt5tv/WVppgVPvyX8r8CJjAkYBOJlRee23BeMDAg9wxDkkiZM3wX//26danZTQgX54jXt6x1pRSMLa9kWDMNfr4k5ihe/A88kS5ZoQSD4LRSsVijJkfgdxhGQFtgaHHHK2PGt+N860TCB2tFw/hTz/90ka9f9Z4YX4XNbBTa8XLOlB9OH13GdN8DgKHAoEaB4oOtF4gj8S9e2N5WRuRarzoqJ+XlBSS76EkhiVv2kArA03ixA2XYmCSFvZpManJYgz66w386lTHWFtYddXfGlFnM606M/cD/fmVJu5t4b/Xm4zfqNT0tpGg9LEaUwDfL0K4U54gpI38ly1B9qujFAg95PWR3v7s2e3OYCh7qWvIePma6ddSNlifJSuREZHi6W/JSX59cGqrVNQ6db12NtWZ96dDYJCAYf27VdkHyd86UbIkMwlkeAspfAjio/Kf7jbakcQj1iSd7QmCoi/UUDZDWQ2FlzAaWG+IGPIgMgiQP2Ipcy1FlLGAYSBjw4Tu/r1T8nctvdVvye1kyUQyGZ5a8n20vHr/1EIetc1NEQLbUujvvMC8xGRMZr5TF7JHpkKI9fHHaxx3QAbV9a9aj2qOIHt1IJjmiBgGHpXE/v9N/jy2tokZxrhB7nl+ZRN+tDyocdk139f4YJ258d464SO1Bv2nX37u0DLr0VOCQBA4XAiMOb50hZpDek1hjdnGd7q8sWNEfJi3eQsP129f99c8PmKue+WLfF4JmaAJnYWfp1BhwZ8ykE4b1q7zM1xd1bV1QZ0+Uz7U16+yLLy0LWgdAA/gHJ2915TVBC806LMvv+4MdDo3UvjJR5c6Rb0EBKvWlGovIxvV2AONnCl39jmkJBogVpFCP40SKkxVqBIlkLIpmyWiyVuhvaTMiwCIhYkNT/H1rc8qnFdiGATCutA/lfyFkFpzRFHssMMVj8Q7JHRUW9C3kQWZZnmaOlqgjlP2fSc8jUei5V0habd+/LHvhzDyWu2Gk76ss8sKfPfrEPl0UpmS1Z0i6+Rmg/LjRfqbjK3AnNKvLyPuiD0FQHiwengGFTKzVpTceYFFDtjSpKNNqpGtqLa/E6rMCKWNkL2Mly3/Ngy8pNrFfgn7D+ox9ntJFMVAg5hPfdC+tEdXEMOh9Mk6Oww8t0petzur8C+dP8B8oM6UIBAEDg8CPVbUz0EK79693/OGsZ0+QI/DD8ztxvlVY/3hQeLJv+TQEUOCFzdswqcsUPB73QhLQAl81xqwpgfH1KBOVmHWYArJ5Ck8Xp6CdUNRnyyGfPusCEwdnRLHui8JjFBO68ooeDw6FPsPal2h9WBS1pPfY2WhCBgkKHcPqv1YM9asbqEguNej5LDvv/i+Th5t5dfx3m3nsRvlwH4iMPVP3h1eWsq5sE/yRwBfO2sN2TtFCnfaW9whnqvkXw9Flgg9QiksUFtp40CFHVuT5F7aw6RUtteq2gpPgzT4t2792D9Nmzt7+nR7n4wPKfuPgD6KjP1Y63q/tz9dEUR9V5/n9TtSpO/RvrrbP0uG3ZfrsfRx47q/jQunTo01ptYeMjTw/ktUpF2wJg+lYcjUNUKUfWerEiRSm+B9tEZtWcnYfwRS44TAJAf9VtIwpFxUACPQ0Xr1Wt8VWp7rlKk/V6vodjA6+lR73oNAEDgsCDD4mCfo8fKOGK8nfsBhMDkNVgwXhwWCtX7HoSKGxnlCRwZN6iZ8pa37JXSksBeT8uusq68tGlKTwmpIFIGpvlYS1iSYa0kjJz01AiZ3BgCk4OsrV7euVOIYe1eZ7GUftVeZbHQ8f+0p2ktRr/MH4a8wwfIU3q3sVLIYflcJTGxvQBH1/bKy6d5evA23ipB8X8TAs8hQ2aFkpaAmlPCpRfpUF3QIcPXJf//8UymF1yr1/LcdSsyQwxBw8f0LW+/uvLP1RoWLIQx7hYeRo0nj37XeCLGk5Dt2okITrRXlBTKBLBsVjDEIoXMRiJslf22Oh0kYKhI6KZ1P9aNy8h8iYByWQc5WIfaok2jImC4iQPKZM8cqAY0DS8U1k7ysB50y0CESws3NDz5vV4SBLKbawbWbNyr51A89vqjP99O6M3MCD7WEU8Yc2W/fqoyowpbfEJlQbSfyXxLADB+735ZcRYsYg63z1s+//+G1rQsVOs5ry4OoLLcHbcGYzlss9FwoKQJ5pgw6PXbX5+W+PsOjp8ogEAQOCIGayqsMI+DdWk9IT2MUpA9MhHDX6Pf7aeOAnvDFus2hIYYmCMI34NtKQgjpsAdaC1hZA5FCLuImcuPcVaJYnjx8P9UpoynrAuXROdzOoyGtqiXHDgoBHZxyZq2I/ajsPUjwZMRyz1PIa4SgUR7uP/JgBgbtQ/txjdAiIaHqtHn5jVL4f7i93V4hxFI7qhO7lk4+U0aI4am81c/g3kiBcDXEoJWLxfmP3Dp/7gMC+jtZIQiUwn98/kXLX78lxwvv1jrR8vaR3f3KHLk11pjv3nmSvwPGCySf5wEpoDRqE8IOhSNTOJvs1RhSI0iTDB5qhIBRANnQ3i7sbDcxQDRcn7L/COiv7TUsT6Hsw/o+T+3O9vauEWcX/xKs83kYjRP/rLXHYz3Z6O8jdLRCP0u+2gNZ+955bfCpa9rYVD+DOHmSTSPWtDUprPBFa1ltXbJrGDhXmYoXhoH9//WpcRkBczKSLokM7zFjkT5M8TtXcwAyb762fKRLtQdrEcnPuEHGtjbRz43dwoiRxHj7l1HO5yCwuQgMfsBTKEv1yFZtvj9eut/x2pbCa8zVJouhCzz2a2vwf1lm80NDDE0O7SksawDByzSEDFDMeRH9ffRXgl0h2jo0eQNMBpSDSZ9TL7ezVzekmjB6kWpNMq7ZPfGxVpQDcyNAHpRxYYNfXv5m64vad1AokTAwpJCy9nkRRetMeqKfhLp4MG1DdkqvV4vI8fTxMslCKokFL4Q1K5/VHnjWkTnPJueu8xK+xlPpPPelZFjbYjuMne23+74UkhUtbm5oXor6yZ9crl673sTAvpOXr1zber1koA3w+H759ZUmbq0YPiJ/fXeSf3uZylugDfD4IYiXr1Qiolo3yCOFVCKa5G+SMR6QNwJJ/hRNW5d02GolOTonhK1CzVPmQQBBZ/BB4njobpfXTljpf/zn3/tvskAIZJdj0OvkMJJDVSZS2xL8WvPBR5fe7wzF5K3fdkTBkQdNDmSlfavqOFekn5z/+rd/7JI+HijbE/1chgMJrhBIbU0dnkf/l7CmCeQ8Pz+1LiGgn5WYSz5vbv251hLz3t+qvWWtNVe+qzFc/36l2kNbeusYMuh1vfqv8HNGhPfKoGNvW17nQQozcjeA+ScIbDACNV234Qg/uFNLjvAD1I8OZy533Dtr36oeb6wf/GBEDLXev8F4rPPoh4cYCiEtUig86E4JnidJzlXkkDVxCH41JPRFxOH4scpMtFVKf6eo5kWq5lP1ul7YGIuC+sa5k4VhdZ05Oi8CujGZdghpeQtsYM9bKPTzg5LTRAxZgvfqyBTB86UUnn/n7d63Dkmg0H1SxNAAwQvEG4Ek2OhcAhJKqOsQDVZpiiGvERJqoLGe8S9//rjDV1mgtZWU/Udgkj+v3pVSAFv+TQy/7eyzQodtPSIkWJ9dVfTnln3L/60mEoihY7wJFEthZkggAwHZIxwT0XDsmyKivEvWNAlZbmJYxEAb2eu+q54lx54OAd49BoC7d99owqavInCXr37b8iOH14s48tzzLN4u4uacq5UkSOivLWs+LmJ48cJOX4/waw8Pqq0YO8jculIepOFB/m7r3ZKvzMZIhmiRaexBRGx7cLY2UX+nyIn1rMaSY/WMKfMi0HNyzdeInJB/c4LIEGHlxmSZYr+9fq4NfgjfpAfYysiLF5mskUIvYeNvvC4D9SoVcd7fktqDQBCYA4EaE2oOQArvVMKZu5UtnvPnRPXxMV6MXQv2uvPQ+Ze8ii/B2HCoZq7B6kfMsM8EaoAnRyRvL3n6rt2BSy3DoemgOtrjUJMPhSAK3xJQz+mjDj0tHLYm5PWa9N87f76Ve1tLyBaJqDnn4R5z/JEHpQj6vuqaFIZT5Q14o5T8D+692woG5RAxZBhAMhFB9WpfjrnujQoboxBSBj/84P0KXzzfHitZEFPmQWCSPxvflFlw5/zbLRvy0CaEjvUaxEc79+KR9GtrEZczxyJ05Hh+++2tv3zyUXsQJTbqV5FMRgBthjLpGZznGl6nnSKUyOHknYxyOY/s1apv8fKQ1aXam5IHkVFI6LfPkhEhdMgbeTEQGNPJx7Yl+uh7FWbsb9EBY54oglHnkB/yd6nWJ+vnN4pI3iwjADkjGlOIMcJp7SmSKSOqUFakcLS9RAqQ00EV8jtTsnhYxhvkTmEMaANxff6pjDfagLbQ0UXVPhgAhP6SNWOQJEOvvSYLdbkfn1C0F4agX37Z3jpebe3VmjOsTUx/fwJoL/BX1AP9vBOP1Gf9f4wHL/BD59GeCgHyRAZF+3H/0BvocbyE47V3dZaNdFm87X3m4fnmUBBDClqLd0Hcqg3skrflwbpOW1mc/1ipk/v0I1zOgxBSRKa9TpbrfezaHJgdAZ5ckzw3v9Cusc/gkQ4DOiZmvD11LEIU/9WPgzSQ8m7Hr9N4+SiWiOXkPbpSoYpCjn6ufeysI9LeGA2cI2mFNWyszUgCIklBZDwY4Uir752j/08ESgZCxHX8sTaovAFVJQWN7Hlq9euWrvNWFMpAt4++cpzDE3XszLjeZ/IUfvhteZoYCP5Ve965rzZAoXz3/HYbBXiKkcPTr/AmDcVixS1zaJ8Q0LeOHEEMz2x9ePFCy0A499kzrzYZtDfh/1ZCkSaEJSvhhkJLkUL9FIn3jsTpx9N47p38mhgW4eQhltAIGbCWGNEUeqQ4Zg88UQbq9UJUT5081UrHqmlln35+qlmBgLWipzqJUHmTSy7fVRjwtJetkHP9V/QPsshDPG1kz0ignyOKxvyhMK64weKQ9kLmirHmRM0Z5D61ocVpedsABPRR84TxpMf+mrdH7oj03g0Q3x8+onm6/t+V8e66c1eW4CcpO2fP8qTv9rxos784FMSQCBAEpI2gHzw8tlDe1xOOa4SPtjI/eXmMFtVa2jJd0YCTou/dvVKeLwI9mJeshIptLxQ8Hj2KYJc1RESWwou8hkIwQpJqaiglchA+kwWrsPVD6rdWaZDNQQwpmxQKHkPk1H6GFIeUuRFgAawskWUUgL0Bf7vkIwS0yxryd8qu/EupnBSCY1XvRDbbGFRt4PTpV1r26m9CWmTSulQp8cmdl1LoYkjh3HL/rf5B4o722jG4CyEkL0mjZJkkK+FDlAMKvL6KADDk6LPIX3v/axxYLhM57L0oS/b3dka9SKE1ze0tLvnr5+oRbqrOsUfmYguj5Qrz+UAQmGSJpLWiX/Ih89u1bty4Pe0tK2GV7WSc92bJTYj4IPQnuv/u9bAT8WNMIG8GSfc8Vm3O9iTT93tdn+MvIgIMTAtHQmnDDx8Or5IndTxlsxEYfXKsJyw1butYyffh8UEW1/1lxhK7Gejrv1HJda/ezPOO1KR5KPjwZBngIVj8/1QSMQhoRMaC5QF+uV7f9mCxOO+pbpCT9xWB0WotHL6/da/IoHcTfnsR17wTOQsP4yHs9/o8yV640YOyLPMOIJt37wknlYRohI8yGhxlLW6Lce13V1ZjiiIFFcFImReBHrRKBqz/5EP+5KUNrD+fl/xL9sh/GwDq3SSg6Pe8C8IFpzBSCWimEFLnICEt9/IcSTTi7x5DepBwRspBIDDG6EowJuS32gKZkZO20f21HoJcjx873h5CMhM2ps9P/X3Vc6q3E5eVpwnBvNevRUa77v9Hu88LPdT3vRgSpza0qs4cmx8Bc4A20HNDhYzKUq7v6s8dSloefzIz7vP6njxxsvtuK35r9N2uu+r0XgLvNjQZENcfe+bHIXdYD4FpLqkuXapjzesLma53dc7aBAR6LB8C7sdtma/54BMn6KFB21jzuk0+7dAQw00WQp79xUfAQDKUiik0dWxvMTLYDuWgB44X/6fkCZ8RgRFC+oj8WREj+GdEdL7LJkVAn2UoHIS93kteFL9nKcvyp0CqZSITaQPPgujBXDMZDpbfyc1LiewORg65SxAIApuBQIjhZsgpT/kCIDAUCw/ym71pKBULT/IL8Ix5hPkQIH9lkn7Ti5fEgjgfqvPV/Lv+Oslpen+G2w7xT2FIzTabHIZYPAOYB3zJbt9d9GEyi9wOWAi5XRAIAhuBQIjhRogpDxkEgkAQCAJBIAgEgSAQBIJAEJgPgSyGmg/b1BwEgkAQCAJBIAgEgSAQBIJAENgIBEIMN0JMecggEASCQBAIAkEgCASBIBAEgsB8CIQYzodtag4CQSAIBIEgEASCQBAIAkEgCGwEAiGGGyGmPGQQCAJBIAgEgSAQBIJAEAgCQWA+BEIM58M2NQeBIBAEgkAQCAJBIAgEgSAQBDYCgRDDjRBTHjIIBIEgEASCQBAIAkEgCASBIDAfAiGG82GbmoNAEAgCQSAIBIEgEASCQBAIAhuBQIjhRogpDxkEgkAQCAJBIAgEgSAQBIJAEJgPgRDD+bBNzUEgCASBIBAEgkAQCAJBIAgEgY1AIMRwI8SUhwwCQSAIBIEgEASCQBAIAkEgCMyHQIjhfNim5iAQBIJAEAgCQSAIBIEgEASCwEYgEGK4EWLKQwaBIBAEgkAQCAJBIAgEgSAQBOZDIMRwPmxTcxAIAkEgCASBIBAEgkAQCAJBYCMQCDHcCDHlIYNAEAgCQSAIBIEgEASCQBAIAvMhEGI4H7apOQgEgSAQBIJAEAgCQSAIBIEgsBEIhBhuhJjykEEgCASBIBAEgkAQCAJBIAgEgfkQCDGcD9vUHASCQBAIAkEgCASBIBAEgkAQ2AgEQgw3Qkx5yCAQBIJAEAgCQSAIBIEgEASCwHwIhBjOh21qDgJBIAgEgSAQBIJAEAgCQSAIbAQCIYYbIaY8ZBAIAkEgCASBIBAEgkAQCAJBYD4EQgznwzY1B4EgEASCQBAIAkEgCASBIBAENgKBEMONEFMeMggEgSAQBIJAEAgCQSAIBIEgMB8CIYbzYZuag0AQCAJBIAgEgSAQBIJAEAgCG4FAiOFGiCkPGQSCQBAIAkEgCASBIBAEgkAQmA+BEMP5sE3NQSAIBIEgEASCQBAIAkEgCASBjUAgxHAjxJSHDAJBIAgEgSAQBIJAEAgCQSAIzIdAiOF82KbmIBAEgkAQCAJBIAgEgSAQBILARiAQYrgRYspDBoEgEASCQBAIAkEgCASBIBAE5kPg/wBBwlL7CK4MzwAAAABJRU5ErkJggg==;" vertex="1" parent="1">
                    <mxGeometry x="720.69" y="190" width="368.61" height="280" as="geometry"/>
                </mxCell>
                <mxCell id="20" value="" style="ellipse;whiteSpace=wrap;html=1;aspect=fixed;fillColor=none;strokeWidth=4;strokeColor=#FF3333;" vertex="1" parent="1">
                    <mxGeometry x="884.99" y="350" width="40" height="40" as="geometry"/>
                </mxCell>
                <mxCell id="21" value="実施した回数：30回" style="text;html=1;align=left;verticalAlign=middle;whiteSpace=wrap;rounded=0;fontSize=25;" vertex="1" parent="1">
                    <mxGeometry x="192.5" y="210" width="250" height="30" as="geometry"/>
                </mxCell>
                <mxCell id="22" value="登った高さ：2020m" style="text;html=1;align=left;verticalAlign=middle;whiteSpace=wrap;rounded=0;fontSize=25;" vertex="1" parent="1">
                    <mxGeometry x="192.5" y="260" width="250" height="30" as="geometry"/>
                </mxCell>
                <mxCell id="24" value="消費カロリー：6025kcal" style="text;html=1;align=left;verticalAlign=middle;whiteSpace=wrap;rounded=0;fontSize=25;" vertex="1" parent="1">
                    <mxGeometry x="173.75" y="315" width="287.5" height="30" as="geometry"/>
                </mxCell>
                <mxCell id="25" value="20xx/5/16" style="text;html=1;align=left;verticalAlign=middle;whiteSpace=wrap;rounded=0;fontSize=25;" vertex="1" parent="1">
                    <mxGeometry x="730" y="520" width="250" height="30" as="geometry"/>
                </mxCell>
                <mxCell id="26" value="往復回数：57回" style="text;html=1;align=left;verticalAlign=middle;whiteSpace=wrap;rounded=0;fontSize=25;" vertex="1" parent="1">
                    <mxGeometry x="730" y="620" width="250" height="30" as="geometry"/>
                </mxCell>
                <mxCell id="27" value="登った高さ：250m" style="text;html=1;align=left;verticalAlign=middle;whiteSpace=wrap;rounded=0;fontSize=25;" vertex="1" parent="1">
                    <mxGeometry x="730" y="671" width="250" height="30" as="geometry"/>
                </mxCell>
                <mxCell id="28" value="消費カロリー:127kcal" style="text;html=1;align=left;verticalAlign=middle;whiteSpace=wrap;rounded=0;fontSize=25;" vertex="1" parent="1">
                    <mxGeometry x="730" y="726" width="250" height="30" as="geometry"/>
                </mxCell>
                <mxCell id="29" value="" style="rounded=0;whiteSpace=wrap;html=1;" vertex="1" parent="1">
                    <mxGeometry x="90" y="1060" width="450" height="820" as="geometry"/>
                </mxCell>
                <mxCell id="30" value="session" style="text;html=1;align=center;verticalAlign=middle;whiteSpace=wrap;rounded=0;fontSize=30;" vertex="1" parent="1">
                    <mxGeometry x="192.5" y="1020" width="245" height="30" as="geometry"/>
                </mxCell>
                <mxCell id="32" value="" style="edgeStyle=elbowEdgeStyle;elbow=horizontal;endArrow=classic;html=1;curved=0;rounded=0;endSize=8;startSize=8;exitX=0;exitY=0.5;exitDx=0;exitDy=0;entryX=0;entryY=0.5;entryDx=0;entryDy=0;" edge="1" parent="1" source="16" target="29">
                    <mxGeometry width="50" height="50" relative="1" as="geometry">
                        <mxPoint x="-180" y="968" as="sourcePoint"/>
                        <mxPoint x="-41" y="520" as="targetPoint"/>
                        <Array as="points">
                            <mxPoint x="-60" y="1040"/>
                        </Array>
                    </mxGeometry>
                </mxCell>
                <mxCell id="33" value="&lt;span style=&quot;font-size: 30px;&quot;&gt;カウントアップ&lt;/span&gt;" style="ellipse;whiteSpace=wrap;html=1;fillColor=#d5e8d4;strokeColor=#82b366;" vertex="1" parent="1">
                    <mxGeometry x="197.5" y="1380" width="235" height="100" as="geometry"/>
                </mxCell>
                <mxCell id="34" value="&lt;span style=&quot;font-size: 30px;&quot;&gt;終了&lt;/span&gt;" style="ellipse;whiteSpace=wrap;html=1;fillColor=#dae8fc;strokeColor=#6c8ebf;" vertex="1" parent="1">
                    <mxGeometry x="197.5" y="1720" width="235" height="100" as="geometry"/>
                </mxCell>
                <mxCell id="37" value="往復回数：3回" style="text;html=1;align=left;verticalAlign=middle;whiteSpace=wrap;rounded=0;fontSize=25;" vertex="1" parent="1">
                    <mxGeometry x="190" y="1190" width="250" height="30" as="geometry"/>
                </mxCell>
                <mxCell id="38" value="登った高さ：33m" style="text;html=1;align=left;verticalAlign=middle;whiteSpace=wrap;rounded=0;fontSize=25;" vertex="1" parent="1">
                    <mxGeometry x="190" y="1260" width="250" height="30" as="geometry"/>
                </mxCell>
                <mxCell id="40" value="時間：02:17.002" style="text;html=1;align=left;verticalAlign=middle;whiteSpace=wrap;rounded=0;fontSize=25;" vertex="1" parent="1">
                    <mxGeometry x="185" y="1130" width="250" height="30" as="geometry"/>
                </mxCell>
                <mxCell id="41" value="時間：27:35.192" style="text;html=1;align=left;verticalAlign=middle;whiteSpace=wrap;rounded=0;fontSize=25;" vertex="1" parent="1">
                    <mxGeometry x="730" y="569.5" width="250" height="30" as="geometry"/>
                </mxCell>
                <mxCell id="42" value="" style="rounded=0;whiteSpace=wrap;html=1;" vertex="1" parent="1">
                    <mxGeometry x="680" y="1050" width="450" height="820" as="geometry"/>
                </mxCell>
                <mxCell id="43" value="session" style="text;html=1;align=center;verticalAlign=middle;whiteSpace=wrap;rounded=0;fontSize=30;" vertex="1" parent="1">
                    <mxGeometry x="782.5" y="1010" width="245" height="30" as="geometry"/>
                </mxCell>
                <mxCell id="44" value="" style="rounded=0;whiteSpace=wrap;html=1;" vertex="1" parent="1">
                    <mxGeometry x="770" y="1169" width="270" height="651" as="geometry"/>
                </mxCell>
                <mxCell id="45" value="お疲れ様です" style="text;html=1;align=center;verticalAlign=middle;whiteSpace=wrap;rounded=0;fontSize=35;" vertex="1" parent="1">
                    <mxGeometry x="788.75" y="1220" width="232.5" height="30" as="geometry"/>
                </mxCell>
                <mxCell id="46" value="時間：02:17.002" style="text;html=1;align=left;verticalAlign=middle;whiteSpace=wrap;rounded=0;fontSize=25;" vertex="1" parent="1">
                    <mxGeometry x="800" y="1310" width="250" height="30" as="geometry"/>
                </mxCell>
                <mxCell id="47" value="往復回数：3回" style="text;html=1;align=left;verticalAlign=middle;whiteSpace=wrap;rounded=0;fontSize=25;" vertex="1" parent="1">
                    <mxGeometry x="800" y="1370" width="250" height="30" as="geometry"/>
                </mxCell>
                <mxCell id="48" value="登った高さ：33m" style="text;html=1;align=left;verticalAlign=middle;whiteSpace=wrap;rounded=0;fontSize=25;" vertex="1" parent="1">
                    <mxGeometry x="800" y="1434.5" width="250" height="30" as="geometry"/>
                </mxCell>
                <mxCell id="49" value="消費カロリー:127kcal" style="text;html=1;align=left;verticalAlign=middle;whiteSpace=wrap;rounded=0;fontSize=25;" vertex="1" parent="1">
                    <mxGeometry x="782.5" y="1500" width="250" height="30" as="geometry"/>
                </mxCell>
                <mxCell id="50" value="&lt;font style=&quot;font-size: 25px;&quot;&gt;終了しますか?&lt;/font&gt;" style="text;html=1;align=center;verticalAlign=middle;whiteSpace=wrap;rounded=0;fontSize=35;" vertex="1" parent="1">
                    <mxGeometry x="788.74" y="1570" width="232.5" height="30" as="geometry"/>
                </mxCell>
                <mxCell id="51" value="&lt;span style=&quot;font-size: 30px;&quot;&gt;&lt;font style=&quot;color: rgb(255, 255, 255);&quot;&gt;YES&lt;/font&gt;&lt;/span&gt;" style="ellipse;whiteSpace=wrap;html=1;fillColor=#0050ef;strokeColor=#001DBC;fontColor=#ffffff;" vertex="1" parent="1">
                    <mxGeometry x="800" y="1630" width="200" height="60" as="geometry"/>
                </mxCell>
                <mxCell id="52" value="&lt;span style=&quot;font-size: 30px;&quot;&gt;&lt;font style=&quot;color: rgb(255, 255, 255);&quot;&gt;NO&lt;/font&gt;&lt;/span&gt;" style="ellipse;whiteSpace=wrap;html=1;fillColor=#e51400;strokeColor=#B20000;fontColor=#ffffff;" vertex="1" parent="1">
                    <mxGeometry x="800" y="1723" width="200" height="60" as="geometry"/>
                </mxCell>
                <mxCell id="55" value="" style="edgeStyle=elbowEdgeStyle;elbow=horizontal;endArrow=classic;html=1;curved=0;rounded=0;endSize=8;startSize=8;exitX=0;exitY=0.5;exitDx=0;exitDy=0;entryX=1.001;entryY=0.561;entryDx=0;entryDy=0;entryPerimeter=0;" edge="1" parent="1" source="51" target="4">
                    <mxGeometry width="50" height="50" relative="1" as="geometry">
                        <mxPoint x="810" y="1290" as="sourcePoint"/>
                        <mxPoint x="860" y="1240" as="targetPoint"/>
                        <Array as="points">
                            <mxPoint x="610" y="1110"/>
                        </Array>
                    </mxGeometry>
                </mxCell>
                <mxCell id="56" value="" style="edgeStyle=elbowEdgeStyle;elbow=horizontal;endArrow=classic;html=1;curved=0;rounded=0;endSize=8;startSize=8;exitX=0.5;exitY=1;exitDx=0;exitDy=0;entryX=1.001;entryY=0.829;entryDx=0;entryDy=0;entryPerimeter=0;" edge="1" parent="1" source="52" target="29">
                    <mxGeometry width="50" height="50" relative="1" as="geometry">
                        <mxPoint x="810" y="1988" as="sourcePoint"/>
                        <mxPoint x="860" y="1938" as="targetPoint"/>
                    </mxGeometry>
                </mxCell>
            </root>
        </mxGraphModel>
    </diagram>
</mxfile>